<svg xmlns="http://www.w3.org/2000/svg" width="200" height="200" viewBox="0 0 200 200" version="1.1">
	<rect x="0" y="0" width="100%" height="100%" fill="#fff" />
	<path d="M 3.828 7.248 C 4.139 14.134, 5.892 19.328, 6.090 13.950 C 6.169 11.817, 6.301 11.916, 7.109 14.711 C 7.709 16.787, 8.516 17.739, 9.390 17.404 C 10.133 17.119, 11.011 17.586, 11.340 18.443 C 11.668 19.299, 13.097 20, 14.514 20 C 16.945 20, 17.051 19.790, 16.395 16.290 C 16.012 14.250, 14.374 9.750, 12.755 6.290 C 10.056 0.522, 9.550 -0, 6.656 -0.002 L 3.500 -0.005 3.828 7.248 M 80.638 1.500 C 80.322 2.325, 80.499 3, 81.031 3 C 81.564 3, 82 2.325, 82 1.500 C 82 0.675, 81.823 0, 81.607 0 C 81.391 0, 80.955 0.675, 80.638 1.500 M 100.146 2.137 C 98.571 4.660, 98.706 4.805, 103.308 5.537 C 107.046 6.131, 108.449 4.770, 105.333 3.574 C 104.098 3.100, 103.957 2.643, 104.790 1.810 C 105.624 0.976, 106.304 1.007, 107.414 1.928 C 108.945 3.199, 111 2.633, 111 0.941 C 111 0.423, 109.200 0, 107 0 C 104.475 0, 102.994 0.461, 102.985 1.250 C 102.973 2.216, 102.794 2.225, 102.200 1.290 C 101.649 0.422, 101.067 0.662, 100.146 2.137 M 118 2.921 C 118 4.926, 118.591 5.921, 120 6.290 C 122.486 6.940, 122.938 13, 120.500 13 C 119.675 13, 119 13.450, 119 14 C 119 14.550, 119.491 15, 120.092 15 C 120.759 15, 121.098 16.849, 120.963 19.750 C 120.612 27.302, 120.917 30.170, 122 29.500 C 122.550 29.160, 123 29.552, 123 30.371 C 123 31.191, 121.987 32.056, 120.750 32.294 C 118.530 32.722, 118.532 32.729, 120.875 32.864 C 122.993 32.985, 123.181 33.343, 122.615 36.177 C 122.265 37.924, 121.805 39.529, 121.592 39.742 C 121.378 39.955, 118.709 40.225, 115.659 40.341 C 108.643 40.609, 107.647 41.559, 112.899 42.973 C 115.155 43.580, 117 44.205, 117 44.362 C 117 44.518, 114.572 44.711, 111.604 44.789 C 106.355 44.927, 106.048 45.099, 100.354 51.102 C 97.134 54.496, 92.988 57.913, 91.141 58.695 C 89.293 59.478, 87.553 60.991, 87.274 62.059 C 86.995 63.127, 86.199 64, 85.506 64 C 84.812 64, 83.710 64.644, 83.057 65.431 C 82.404 66.218, 80.542 66.825, 78.921 66.779 C 77.299 66.733, 75.678 66.989, 75.319 67.347 C 74.960 67.706, 75.389 68, 76.272 68 C 77.640 68, 77.883 69.519, 77.909 78.250 C 77.930 85.132, 77.627 88.007, 76.986 87 C 76.351 86.003, 76.025 85.919, 76.015 86.750 C 76.007 87.438, 75.498 88, 74.883 88 C 74.229 88, 73.966 86.956, 74.249 85.476 C 74.515 84.088, 74.342 82.711, 73.866 82.417 C 73.390 82.123, 73 81.046, 73 80.024 C 73 79.003, 72.438 77.904, 71.750 77.583 C 70.750 77.117, 70.750 76.883, 71.750 76.417 C 73.561 75.572, 73.324 72.938, 71.500 73.638 C 70.641 73.968, 69.950 73.634, 69.882 72.857 C 69.367 66.927, 69.573 64.025, 70.722 61 L 72.051 57.500 69.562 60.500 C 67.841 62.573, 67.061 63.007, 67.036 61.905 C 67.016 61.028, 67.898 59.497, 68.996 58.503 C 70.429 57.207, 70.701 56.345, 69.961 55.453 C 69.394 54.770, 68.999 53.826, 69.083 53.355 C 69.168 52.885, 69.184 51.038, 69.118 49.250 C 68.980 45.443, 66.399 44.748, 65.131 48.176 L 64.325 50.353 63.756 48.176 C 63.443 46.979, 62.695 46, 62.094 46 C 60.749 46, 60.633 50.655, 61.956 51.473 C 62.482 51.798, 62.659 52.725, 62.349 53.532 C 61.998 54.447, 62.391 55, 63.393 55 C 64.277 55, 65 55.727, 65 56.617 C 65 57.741, 64.391 58.074, 63 57.710 C 60.828 57.142, 60.496 59.093, 61.930 64 C 62.650 66.461, 62.673 66.449, 63.407 63.261 C 63.818 61.480, 64.496 59.811, 64.915 59.553 C 65.876 58.959, 65.691 65.642, 64.719 66.614 C 63.546 67.787, 63.894 69.751, 65.571 71.429 C 66.901 72.758, 66.918 73, 65.680 73 C 64.875 73, 63.921 71.822, 63.560 70.382 C 62.353 65.574, 61.501 69.067, 61.376 79.333 C 61.205 93.396, 61.129 94.198, 60.033 93.520 C 59.501 93.191, 59.326 91.477, 59.644 89.711 L 60.222 86.500 58.514 88.807 C 57.054 90.780, 56.470 92.271, 56.077 95.037 C 55.959 95.864, 52 95.974, 52 95.151 C 52 94.752, 51.090 94.357, 49.978 94.273 C 48.866 94.190, 48.218 94.544, 48.537 95.061 C 48.857 95.577, 49.666 96, 50.335 96 C 51.150 96, 51.428 97.308, 51.176 99.956 C 50.827 103.611, 51.015 103.960, 53.649 104.556 C 61.842 106.408, 64.003 107.185, 64.031 108.289 C 64.089 110.572, 72.516 115.997, 76.098 116.058 C 79.437 116.114, 88.340 117.659, 86.628 117.885 C 86.148 117.948, 86.293 118.648, 86.951 119.441 C 87.608 120.233, 88.859 120.607, 89.731 120.273 C 91.066 119.761, 91.219 120.264, 90.701 123.456 C 90.362 125.542, 89.906 127.428, 89.686 127.647 C 89.466 127.867, 85.410 128.134, 80.673 128.240 L 72.059 128.434 73.856 131.467 C 74.845 133.135, 76.294 135.625, 77.077 137 C 77.860 138.375, 79.737 141.140, 81.250 143.144 C 82.762 145.148, 84 146.981, 84 147.218 C 84 147.454, 80.918 146.614, 77.150 145.350 C 69.830 142.895, 60.074 141.374, 57.639 142.308 C 55.696 143.054, 56.686 147, 58.817 147 C 60.048 147, 60.133 147.267, 59.200 148.200 C 58.540 148.860, 58 149.850, 58 150.400 C 58 150.956, 58.533 150.867, 59.200 150.200 C 59.860 149.540, 61.322 149.007, 62.450 149.015 C 64.158 149.028, 64.250 149.201, 63 150.049 C 61.917 150.784, 63.169 151.004, 67.500 150.840 C 70.800 150.715, 73.521 151.037, 73.548 151.556 C 73.574 152.075, 74.585 154.075, 75.794 156 C 77.003 157.925, 77.994 160.007, 77.996 160.628 C 77.998 161.248, 78.628 162.276, 79.395 162.913 C 80.163 163.550, 81.073 165.577, 81.419 167.418 C 81.870 169.825, 83.121 171.476, 85.874 173.298 L 89.702 175.831 92.351 173.375 C 94.344 171.528, 95 169.953, 95 167.019 C 95 164.873, 95.424 162.856, 95.942 162.536 C 96.460 162.215, 97.198 159.826, 97.581 157.227 C 98.770 149.157, 99.497 148.824, 99.577 156.312 C 99.620 160.265, 100.295 165.300, 101.077 167.500 C 102.487 171.465, 102.504 171.399, 103 160 C 103.275 153.675, 103.131 145.592, 102.680 142.037 C 101.616 133.654, 104.314 122.185, 107.881 119.929 C 109.182 119.106, 109.058 119.025, 107.250 119.520 C 105.128 120.100, 105 119.842, 105 114.974 C 105 110.654, 105.326 109.728, 107 109.290 C 108.276 108.956, 109 107.926, 109 106.442 C 109 105.164, 109.450 103.840, 110 103.500 C 110.550 103.160, 111 103.782, 111 104.882 C 111 107.439, 112.827 108.614, 113.614 106.563 C 113.944 105.704, 114.953 104.992, 115.857 104.983 C 116.761 104.973, 118.560 103.848, 119.855 102.483 C 122.198 100.013, 122.199 100, 120.070 100 C 118.210 100, 118.076 99.727, 119.046 97.914 C 119.660 96.767, 119.839 95.530, 119.444 95.164 C 119.049 94.799, 118.525 95.063, 118.280 95.750 C 118.034 96.438, 117.141 97, 116.294 97 C 115.040 97, 114.985 96.723, 116 95.500 C 116.785 94.554, 116.852 94, 116.181 94 C 114.320 94, 113.640 96.262, 115.159 97.402 C 117.405 99.086, 118.220 102, 116.444 102 C 114.538 102, 113 97.971, 113 92.980 C 113 90.165, 113.690 88.401, 115.500 86.591 C 117.903 84.188, 118.815 80.622, 117.250 79.747 C 116.838 79.517, 117.063 79.465, 117.750 79.633 C 118.438 79.800, 119 79.501, 119 78.969 C 119 78.436, 118.502 78, 117.893 78 C 117.229 78, 117.076 77.300, 117.512 76.250 C 117.911 75.287, 118.260 73.894, 118.286 73.153 C 118.312 72.412, 119.383 71.327, 120.667 70.742 C 123.480 69.460, 123.788 67.561, 121.067 68.272 C 119.379 68.714, 119.252 68.467, 120.067 66.324 C 121.333 62.994, 121.336 63, 118.500 63 C 116.222 63, 115.431 61.732, 115.870 58.786 C 115.928 58.393, 115.306 58.329, 114.488 58.643 C 112.522 59.397, 112.607 58.780, 115.038 54.661 C 117.153 51.076, 119.658 50.678, 122.040 53.549 C 122.649 54.281, 123.826 54.620, 124.656 54.302 C 125.889 53.829, 126.105 54.527, 125.833 58.111 C 125.536 62.021, 125.746 62.535, 127.750 62.820 C 128.988 62.995, 130 63.713, 130 64.415 C 130 67.527, 133.529 68.738, 144.500 69.387 C 154.462 69.977, 168.440 71.780, 176.629 73.532 C 178.478 73.928, 180.025 73.769, 180.411 73.144 C 180.770 72.563, 181.667 72.319, 182.404 72.602 C 183.394 72.982, 183.612 72.382, 183.236 70.308 C 182.956 68.764, 183.107 67.857, 183.573 68.293 C 184.038 68.729, 184.510 71.879, 184.621 75.293 C 184.732 78.707, 184.601 80.938, 184.328 80.250 C 184.056 79.563, 183.119 79, 182.245 79 C 181.372 79, 179.821 78.243, 178.799 77.318 C 176.415 75.161, 164.934 73.286, 148.590 72.387 L 135.680 71.676 136.300 80.465 C 136.641 85.299, 137.058 89.391, 137.226 89.559 C 137.394 89.727, 143.824 90.106, 151.515 90.402 C 159.207 90.698, 168.057 91.311, 171.182 91.765 C 174.308 92.219, 176.644 92.233, 176.373 91.795 C 176.103 91.358, 174.671 90.971, 173.191 90.937 C 170.552 90.874, 170.544 90.855, 172.788 89.955 C 174.381 89.315, 176.356 89.518, 179.288 90.624 C 181.605 91.497, 184.423 92.307, 185.550 92.423 C 186.678 92.540, 188.139 92.968, 188.797 93.375 C 189.702 93.934, 189.749 93.470, 188.992 91.478 C 188.303 89.667, 188.327 88.319, 189.070 87.171 C 190.044 85.665, 190.095 85.679, 189.583 87.313 C 188.809 89.781, 191.649 94.997, 193.776 95.014 C 194.724 95.021, 196.540 95.306, 197.810 95.646 C 200.020 96.238, 200.107 96.053, 199.810 91.382 C 199.508 86.633, 199.407 86.491, 196.105 86.176 C 194.091 85.984, 192.331 86.390, 191.779 87.176 C 191.044 88.221, 190.933 88.184, 191.252 87 C 191.498 86.084, 193.376 85.267, 196.078 84.900 C 198.510 84.570, 199.825 84.226, 199 84.135 C 197.852 84.008, 197.796 83.781, 198.765 83.167 C 199.744 82.545, 200.032 74.513, 200.042 47.542 C 200.048 28.390, 199.816 12.483, 199.526 12.192 C 198.996 11.663, 193.941 13.939, 193 15.130 C 192.251 16.078, 178.420 23, 177.274 23 C 176.727 23, 175.435 24.125, 174.403 25.500 C 172.130 28.527, 171.333 28.626, 170.495 25.985 C 170.144 24.877, 169.438 24.229, 168.928 24.544 C 168.418 24.860, 168 24.601, 168 23.969 C 168 22.353, 172.153 19.073, 174.250 19.033 C 175.213 19.015, 176 18.580, 176 18.067 C 176 17.554, 176.891 16.852, 177.980 16.506 C 179.069 16.161, 179.856 15.343, 179.730 14.689 C 179.603 14.035, 180.401 13.483, 181.501 13.463 C 182.602 13.442, 184.138 13.033, 184.914 12.553 C 185.690 12.073, 187.715 11.387, 189.413 11.028 C 191.573 10.571, 192.412 9.869, 192.206 8.688 C 191.852 6.653, 192.696 6.611, 196 8.500 C 197.375 9.286, 198.870 9.945, 199.321 9.965 C 200.404 10.011, 197.877 7.507, 195.982 6.655 C 195.167 6.288, 195.738 6.224, 197.250 6.513 C 199.987 7.036, 201.132 5.623, 198.750 4.662 C 197.750 4.259, 197.750 4.142, 198.750 4.079 C 199.438 4.036, 200 3.093, 200 1.985 C 200 -0.003, 199.452 -0.029, 159 0.023 L 118 0.075 118 2.921 M 124.882 8.280 C 124.816 9.501, 124.832 10.885, 124.917 11.355 C 125.001 11.826, 124.583 12.798, 123.987 13.516 C 123.216 14.445, 123.213 15.014, 123.976 15.485 C 124.567 15.850, 124.926 15.553, 124.775 14.824 C 124.587 13.921, 125.884 13.401, 128.854 13.187 C 132.099 12.954, 133.099 13.209, 132.777 14.187 C 132.540 14.909, 130.947 15.639, 129.236 15.809 C 126.320 16.098, 126.130 16.364, 126.182 20.088 C 126.232 23.709, 126.364 23.902, 127.684 22.279 C 129.017 20.640, 129.098 20.717, 128.704 23.250 C 128.469 24.762, 128.616 26, 129.030 26 C 129.444 26, 130.109 24.762, 130.506 23.250 C 131.166 20.740, 131.296 20.675, 131.991 22.500 C 132.412 23.606, 132.294 25.074, 131.726 25.784 C 131.010 26.679, 131.113 27.842, 132.066 29.623 C 133.271 31.875, 133.229 32.292, 131.717 33.139 C 130.699 33.708, 130 35.301, 130 37.050 C 130 39.989, 130.022 40, 136 40 C 141.978 40, 142 39.989, 142 37.050 C 142 35.427, 141.355 33.738, 140.566 33.297 C 139.502 32.702, 139.077 30.038, 138.920 22.997 L 138.710 13.500 148.266 13.215 L 157.823 12.930 157.662 9.715 L 157.500 6.500 141.250 6.280 C 125.097 6.062, 124.999 6.074, 124.882 8.280 M 175.507 10.989 C 175.157 11.555, 175.558 11.723, 176.448 11.382 C 178.180 10.717, 178.497 10, 177.059 10 C 176.541 10, 175.843 10.445, 175.507 10.989 M 92.510 11.582 C 94.286 12.328, 92.749 25.515, 90.610 27.878 C 87.666 31.131, 82.422 31.688, 78.945 29.117 C 76.829 27.553, 76.214 27.395, 76.649 28.528 C 76.975 29.378, 78.515 30.732, 80.072 31.537 C 83.549 33.335, 91.464 33.560, 90.395 31.830 C 89.918 31.058, 90.205 30.865, 91.238 31.261 C 93.313 32.057, 94.253 31.009, 92.912 29.394 C 92.149 28.475, 92.166 27.587, 92.969 26.302 C 93.930 24.765, 93.994 24.866, 93.404 26.992 C 92.778 29.243, 92.875 29.349, 94.398 28.085 C 95.568 27.113, 95.766 26.366, 95.042 25.642 C 94.469 25.069, 94.007 23.903, 94.015 23.050 C 94.026 21.957, 94.255 21.853, 94.792 22.697 C 95.299 23.495, 96.044 23.579, 97.026 22.947 C 98.256 22.157, 98.274 21.854, 97.137 21.121 C 96.049 20.420, 96.035 20.155, 97.064 19.812 C 97.818 19.561, 98.031 18.859, 97.576 18.123 C 97.148 17.430, 96.168 17.105, 95.399 17.400 C 94.422 17.775, 94 17.155, 94 15.346 C 94 13.183, 94.242 12.956, 95.466 13.972 C 96.273 14.641, 97.510 14.952, 98.216 14.662 C 99.025 14.330, 98.668 13.882, 97.250 13.451 C 96.013 13.075, 95 12.369, 95 11.883 C 95 11.398, 94.213 11.036, 93.250 11.079 C 92.287 11.122, 91.954 11.349, 92.510 11.582 M 82.200 13.200 C 80.465 14.935, 80.722 16.476, 82.500 15 C 83.697 14.007, 84.303 14.007, 85.500 15 C 86.325 15.685, 87 15.830, 87 15.322 C 87 14.293, 84.930 12, 84 12 C 83.670 12, 82.860 12.540, 82.200 13.200 M 105.750 12.689 C 104.787 12.941, 104 13.775, 104 14.542 C 104 16.265, 106.634 15.395, 107.391 13.423 C 107.692 12.640, 107.839 12.052, 107.719 12.116 C 107.598 12.180, 106.713 12.438, 105.750 12.689 M 39 14 C 39 14.550, 39.702 15, 40.559 15 C 41.416 15, 41.840 14.550, 41.500 14 C 41.160 13.450, 40.459 13, 39.941 13 C 39.423 13, 39 13.450, 39 14 M 65.500 14 C 65.160 14.550, 65.584 15, 66.441 15 C 67.298 15, 68 14.550, 68 14 C 68 13.450, 67.577 13, 67.059 13 C 66.541 13, 65.840 13.450, 65.500 14 M 110 13.941 C 110 14.459, 110.450 15.160, 111 15.500 C 111.550 15.840, 112 19.241, 112 23.059 C 112 28.973, 111.741 30.012, 110.250 30.079 C 109.194 30.127, 108.998 30.359, 109.756 30.664 C 110.447 30.943, 110.758 31.582, 110.447 32.085 C 110.136 32.588, 110.584 33, 111.441 33 C 112.749 33, 113 31.390, 113 23 C 113 14.778, 112.733 13, 111.500 13 C 110.675 13, 110 13.423, 110 13.941 M 147.736 17.250 C 145.306 19.095, 144 23.427, 144 29.642 C 144 34.401, 144.399 35.553, 146.923 38.077 C 150.853 42.007, 155.147 42.007, 159.077 38.077 C 161.760 35.393, 162 34.570, 162 28.031 C 162 21.803, 161.692 20.601, 159.545 18.455 C 156.799 15.708, 150.600 15.076, 147.736 17.250 M 67.147 18.750 C 66.638 19.712, 66.215 22.525, 66.206 25 C 66.193 28.605, 66.363 29.052, 67.063 27.250 C 67.543 26.012, 68.397 25, 68.961 25 C 69.524 25, 69.915 23.200, 69.829 21 C 69.662 16.738, 68.655 15.893, 67.147 18.750 M 104 25 C 104 29, 104.429 32, 105 32 C 105.571 32, 106 29, 106 25 C 106 21, 105.571 18, 105 18 C 104.429 18, 104 21, 104 25 M 150.709 23.624 C 149.408 24.925, 149.974 31.734, 151.487 32.989 C 154.357 35.371, 156.136 33.422, 155.805 28.260 C 155.555 24.352, 155.135 23.448, 153.459 23.208 C 152.336 23.047, 151.099 23.235, 150.709 23.624 M 171.510 25.016 C 171.856 25.575, 172.557 25.774, 173.069 25.457 C 174.456 24.600, 174.198 24, 172.441 24 C 171.584 24, 171.165 24.457, 171.510 25.016 M 2.287 32.225 C 2.597 35.649, 3.335 38.612, 3.926 38.809 C 4.517 39.006, 5.045 41.042, 5.100 43.333 C 5.181 46.747, 5.328 47.048, 5.911 45 L 6.623 42.500 7.808 44.678 C 8.460 45.875, 8.843 47.450, 8.660 48.178 C 8.477 48.905, 8.517 49.163, 8.747 48.750 C 9.929 46.638, 11.002 48.530, 11.015 52.750 C 11.024 55.362, 11.467 58.175, 12 59 C 12.752 60.164, 12.973 59.868, 12.985 57.679 C 12.993 56.127, 13.675 54.182, 14.500 53.357 C 15.833 52.024, 16 52.143, 16 54.429 C 16 55.843, 16.450 57, 17 57 C 17.550 57, 18 57.648, 18 58.441 C 18 59.234, 18.408 60.134, 18.907 60.442 C 19.405 60.751, 19.577 60.100, 19.289 58.996 C 19 57.892, 19.203 56.429, 19.739 55.745 C 20.836 54.343, 17.603 46, 15.962 46 C 15.433 46, 15 45.167, 15 44.149 C 15 43.131, 13.875 40.182, 12.500 37.596 C 11.125 35.010, 10 32.228, 10 31.415 C 10 29.765, 6.193 27.999, 4.239 28.743 C 3.417 29.056, 3.193 28.662, 3.596 27.611 C 3.960 26.661, 3.703 26, 2.968 26 C 2.047 26, 1.869 27.621, 2.287 32.225 M 27.417 28.476 C 27.055 29.915, 27.039 31.372, 27.380 31.713 C 27.721 32.054, 28 31.583, 28 30.667 C 28 29.750, 28.712 29, 29.583 29 C 31.330 29, 31.051 26.850, 29.224 26.241 C 28.592 26.031, 27.778 27.036, 27.417 28.476 M 166.473 27.044 C 166.148 27.570, 166.809 28, 167.941 28 C 170.356 28, 170.599 27.444, 168.532 26.651 C 167.725 26.341, 166.798 26.518, 166.473 27.044 M 96.750 28.577 C 96.338 28.993, 96 30.248, 96 31.367 C 96 32.838, 96.302 33.098, 97.094 32.306 C 97.695 31.705, 98.033 30.449, 97.844 29.517 C 97.655 28.584, 97.162 28.161, 96.750 28.577 M 126.660 31.444 C 126.271 32.457, 126.189 33.522, 126.476 33.810 C 126.764 34.098, 127 33.808, 127 33.167 C 127 32.525, 127.506 32.112, 128.125 32.250 C 128.744 32.388, 129.453 31.825, 129.701 31 C 130.067 29.784, 129.972 29.758, 129.197 30.863 C 128.420 31.972, 128.160 31.981, 127.805 30.914 C 127.503 30.009, 127.148 30.173, 126.660 31.444 M 163 31.500 C 163 32.325, 163.177 33, 163.393 33 C 163.609 33, 164.045 32.325, 164.362 31.500 C 164.678 30.675, 164.501 30, 163.969 30 C 163.436 30, 163 30.675, 163 31.500 M 66 32 C 66 32.550, 66.642 33, 67.427 33 C 68.211 33, 69.061 33.788, 69.315 34.750 C 69.569 35.712, 69.729 35.263, 69.670 33.750 C 69.595 31.819, 69.033 31, 67.782 31 C 66.802 31, 66 31.450, 66 32 M 169.363 44.750 C 169.675 52.313, 169.946 59.063, 169.965 59.750 C 169.984 60.438, 170.459 61, 171.019 61 C 171.610 61, 171.786 59.843, 171.438 58.250 C 170.976 56.132, 171.083 55.845, 171.904 57 C 172.727 58.158, 172.996 57.475, 173.084 54 C 173.180 50.248, 173.333 49.916, 174 52 C 174.744 54.322, 174.814 54.250, 174.993 51 C 175.099 49.075, 175.127 45.475, 175.055 43 C 174.984 40.525, 175.280 38.950, 175.713 39.500 C 176.146 40.050, 177.287 40.563, 178.250 40.639 C 179.646 40.750, 179.970 40.041, 179.850 37.139 C 179.723 34.047, 179.637 33.920, 179.279 36.295 C 178.934 38.591, 178.492 38.974, 176.804 38.438 C 175.546 38.038, 174.417 38.312, 173.890 39.143 C 173.289 40.093, 172.977 39.599, 172.852 37.500 C 172.747 35.733, 172.397 36.760, 172 40 L 171.326 45.500 171.163 38.250 C 171.061 33.734, 170.584 31, 169.898 31 C 169.121 31, 168.963 35.057, 169.363 44.750 M 50 33 C 50 33.550, 51.575 34, 53.500 34 C 55.425 34, 57 33.550, 57 33 C 57 32.450, 55.425 32, 53.500 32 C 51.575 32, 50 32.450, 50 33 M 101.968 37.135 L 99.500 40.168 87.658 40.155 C 77.856 40.145, 75.487 39.845, 73.908 38.416 C 72.858 37.467, 72 37.179, 72 37.777 C 72 38.375, 73.350 39.825, 75 41 C 76.650 42.175, 78 43.781, 78 44.568 C 78 45.356, 78.450 46, 79 46 C 79.550 46, 79.947 45.663, 79.882 45.250 C 79.384 42.098, 80.114 41.837, 88.750 42.088 C 99.303 42.395, 101.035 41.903, 103.381 37.932 C 105.810 33.820, 105.025 33.377, 101.968 37.135 M 27.015 38.872 C 27.002 40.868, 27.238 41.047, 28.500 40 C 29.325 39.315, 29.964 38.248, 29.921 37.628 C 29.878 37.007, 29.598 37.113, 29.300 37.863 C 28.842 39.014, 28.623 39.014, 27.894 37.863 C 27.268 36.875, 27.026 37.152, 27.015 38.872 M 38.427 41.118 C 38.127 41.603, 40.609 42, 43.941 42 C 47.273 42, 50 41.638, 50 41.196 C 50 40.092, 39.107 40.019, 38.427 41.118 M 57.372 41.207 C 57.103 41.643, 58.244 42, 59.910 42 C 62.341 42, 62.826 42.345, 62.374 43.750 C 62.015 44.868, 62.120 45.077, 62.666 44.329 C 63.136 43.685, 64.750 42.850, 66.253 42.473 C 67.756 42.095, 68.773 41.442, 68.513 41.022 C 67.892 40.017, 58.006 40.181, 57.372 41.207 M 28 43 C 29.957 44.264, 32 44.264, 32 43 C 32 42.450, 30.762 42.007, 29.250 42.015 C 27.107 42.027, 26.831 42.245, 28 43 M 88.286 48.500 C 88.294 51.250, 88.488 52.256, 88.718 50.736 C 88.947 49.216, 88.941 46.966, 88.704 45.736 C 88.467 44.506, 88.279 45.750, 88.286 48.500 M 176.923 45.167 C 176.191 48.359, 176.371 49, 178 49 C 180.007 49, 180.141 45.880, 178.163 45.221 C 177.523 45.008, 176.966 44.983, 176.923 45.167 M 181 47.559 C 181 48.416, 181.450 48.840, 182 48.500 C 182.550 48.160, 183 47.459, 183 46.941 C 183 46.423, 182.550 46, 182 46 C 181.450 46, 181 46.702, 181 47.559 M 77.923 47.250 C 77.431 48.847, 77.681 54, 78.250 54 C 78.662 54, 79 52.425, 79 50.500 C 79 48.575, 78.775 47, 78.500 47 C 78.225 47, 77.965 47.112, 77.923 47.250 M 189 48.941 C 189 50.073, 189.450 51, 190 51 C 190.550 51, 191 50.352, 191 49.559 C 191 48.766, 190.550 47.840, 190 47.500 C 189.450 47.160, 189 47.809, 189 48.941 M 26.638 49.500 C 26.322 50.325, 26.499 51, 27.031 51 C 27.564 51, 28 50.523, 28 49.941 C 28 49.359, 28.450 49.160, 29 49.500 C 29.550 49.840, 30 49.641, 30 49.059 C 30 47.443, 27.291 47.798, 26.638 49.500 M 171.195 50.500 C 171.215 52.150, 171.439 52.704, 171.693 51.731 C 171.947 50.758, 171.930 49.408, 171.656 48.731 C 171.382 48.054, 171.175 48.850, 171.195 50.500 M 27.638 53.500 C 27.024 55.100, 27.866 55.372, 30.412 54.395 C 31.279 54.063, 31.740 53.388, 31.435 52.895 C 30.564 51.485, 28.272 51.850, 27.638 53.500 M 176 52.393 C 176 52.609, 176.675 53.045, 177.500 53.362 C 178.325 53.678, 179 53.501, 179 52.969 C 179 52.436, 178.325 52, 177.500 52 C 176.675 52, 176 52.177, 176 52.393 M 90.079 54.583 C 90.127 55.748, 90.364 55.985, 90.683 55.188 C 90.972 54.466, 90.936 53.603, 90.604 53.271 C 90.272 52.939, 90.036 53.529, 90.079 54.583 M 76.603 56.167 C 76.886 56.625, 76.641 57, 76.059 57 C 75.477 57, 75 57.638, 75 58.417 C 75 59.196, 74.587 59.983, 74.082 60.167 C 73.578 60.350, 73.435 61.850, 73.765 63.500 C 74.355 66.443, 74.388 66.415, 75.515 62 L 76.664 57.500 77.411 60.750 C 77.823 62.538, 78.573 64, 79.079 64 C 80.355 64, 80.235 62.264, 78.904 61.441 C 78.301 61.068, 77.987 59.541, 78.206 58.048 C 78.460 56.322, 78.146 55.333, 77.346 55.333 C 76.654 55.333, 76.320 55.708, 76.603 56.167 M 31 57.059 C 31 57.641, 31.450 57.840, 32 57.500 C 32.550 57.160, 33 56.684, 33 56.441 C 33 56.198, 32.550 56, 32 56 C 31.450 56, 31 56.477, 31 57.059 M 26.015 60.750 C 26.024 61.749, 26.351 62.071, 26.777 61.500 C 27.187 60.950, 27.931 60.163, 28.428 59.750 C 28.926 59.337, 28.583 59, 27.667 59 C 26.740 59, 26.007 59.777, 26.015 60.750 M 92.137 60.335 C 91.135 61.543, 91.647 61.681, 95.502 61.247 C 98.977 60.855, 100.514 61.155, 102.021 62.519 C 103.450 63.812, 103.705 64.650, 102.948 65.563 C 102.269 66.381, 102.248 67.035, 102.890 67.432 C 103.433 67.768, 104.320 67.251, 104.860 66.285 C 105.723 64.743, 105.929 64.868, 106.542 67.311 C 107.298 70.323, 106.369 72.215, 105.123 70.200 C 104.546 69.265, 103.778 69.458, 102.025 70.979 C 100.743 72.090, 100.058 73, 100.502 73 C 100.946 73, 100.523 73.870, 99.561 74.933 C 98.599 75.995, 97.174 76.620, 96.395 76.321 C 95.410 75.944, 95.166 76.270, 95.596 77.389 C 95.936 78.275, 96.691 79, 97.274 79 C 97.856 79, 98.044 79.289, 97.691 79.643 C 97.337 79.996, 96.382 79.732, 95.568 79.056 C 93.452 77.300, 92.165 78.512, 92.409 82.032 C 92.558 84.180, 92.236 84.921, 91.310 84.565 C 89.053 83.699, 89.879 85.721, 92.780 88.161 C 94.308 89.447, 95.621 90.875, 95.696 91.333 C 95.971 93.001, 97 93.289, 97 91.698 C 97 90.584, 97.530 90.266, 98.664 90.701 C 99.783 91.131, 100.091 90.957, 99.605 90.170 C 99.207 89.526, 98.249 89, 97.476 89 C 95.683 89, 93.841 85.577, 93.576 81.755 C 93.395 79.132, 93.518 78.988, 94.637 80.519 C 95.354 81.499, 96.576 81.993, 97.452 81.657 C 98.416 81.287, 99 81.617, 99 82.531 C 99 83.339, 99.563 84.069, 100.250 84.152 C 100.938 84.236, 101.950 84.409, 102.500 84.537 C 103.050 84.665, 104.737 84.821, 106.250 84.885 C 109.312 85.013, 109.966 86.601, 107.250 87.311 C 105.983 87.642, 106.145 87.800, 107.840 87.884 C 110.784 88.030, 114.052 84.217, 113.375 81.426 C 113.085 80.233, 113.536 78.800, 114.436 78.053 C 116.240 76.556, 116.526 74, 114.889 74 C 114.278 74, 114.658 73.213, 115.733 72.250 C 117.247 70.894, 117.524 69.824, 116.962 67.500 L 116.237 64.500 116.118 67.642 C 116.025 70.109, 115.465 70.918, 113.504 71.410 C 109.737 72.355, 109.692 72.312, 109.691 67.750 C 109.691 64.592, 110.116 63.417, 111.345 63.177 C 113.153 62.823, 113.652 61, 111.941 61 C 111.359 61, 111.203 60.480, 111.595 59.845 C 112.038 59.130, 111.870 58.962, 111.155 59.405 C 110.520 59.797, 110 60.766, 110 61.559 C 110 62.352, 109.550 63, 109 63 C 108.450 63, 108 62.550, 108 62 C 108 61.450, 107.495 61, 106.878 61 C 106.102 61, 106.140 61.464, 107 62.500 C 108.018 63.726, 107.955 64, 106.658 64 C 105.093 64, 102.634 60.699, 103.531 59.802 C 103.784 59.549, 101.590 59.245, 98.655 59.126 C 95.039 58.980, 92.938 59.369, 92.137 60.335 M 88.459 61.067 C 88.096 61.653, 88.014 62.348, 88.276 62.610 C 88.538 62.872, 89.019 62.392, 89.345 61.543 C 90.021 59.781, 89.445 59.471, 88.459 61.067 M 179.250 61.662 C 177.011 62.566, 177.934 63.735, 180.500 63.245 C 181.875 62.982, 183 62.369, 183 61.883 C 183 60.939, 181.292 60.838, 179.250 61.662 M 29.516 63.949 C 29.108 65.235, 28.349 65.688, 27.285 65.279 C 26.211 64.867, 25.913 65.051, 26.395 65.830 C 26.793 66.474, 27.766 67, 28.559 67 C 29.352 67, 30 67.450, 30 68 C 30 69.904, 31.575 68.991, 31.725 67 C 31.808 65.900, 31.468 65, 30.969 65 C 30.471 65, 30.322 64.325, 30.638 63.500 C 30.955 62.675, 30.971 62, 30.674 62 C 30.378 62, 29.856 62.877, 29.516 63.949 M 184.710 65 C 184.998 66.100, 185.968 66.964, 186.867 66.921 C 187.903 66.871, 188.043 66.658, 187.250 66.338 C 186.563 66.060, 186 65.196, 186 64.417 C 186 63.637, 185.592 63, 185.094 63 C 184.595 63, 184.423 63.900, 184.710 65 M 190.638 64.500 C 190.955 65.325, 191.873 66, 192.678 66 C 193.949 66, 193.944 65.801, 192.643 64.500 C 191.818 63.675, 190.900 63, 190.603 63 C 190.306 63, 190.322 63.675, 190.638 64.500 M 100.091 64.923 C 99.316 65.413, 98.073 65.581, 97.329 65.296 C 96.375 64.930, 96.178 65.300, 96.659 66.553 C 97.125 67.769, 96.971 68.100, 96.170 67.605 C 95.393 67.125, 95 67.742, 95 69.441 C 95 70.848, 95.450 72, 96 72 C 96.550 72, 97 71.564, 97 71.031 C 97 70.499, 97.747 70.350, 98.661 70.700 C 100.004 71.216, 100.204 70.890, 99.709 68.994 C 99.295 67.414, 99.650 66.229, 100.798 65.357 C 102.733 63.886, 102.223 63.573, 100.091 64.923 M 195.813 64.683 C 196.534 64.972, 197.397 64.936, 197.729 64.604 C 198.061 64.272, 197.471 64.036, 196.417 64.079 C 195.252 64.127, 195.015 64.364, 195.813 64.683 M 170 68.393 C 170 70.795, 171.724 72.058, 174.832 71.932 C 176.073 71.882, 175.924 71.587, 174.250 70.780 C 173.012 70.183, 172 68.863, 172 67.847 C 172 66.831, 171.550 66, 171 66 C 170.450 66, 170 67.077, 170 68.393 M 5 67.385 C 5 67.597, 6.125 68.507, 7.500 69.408 C 10.339 71.268, 10.752 70.895, 8.429 68.571 C 6.994 67.137, 5 66.447, 5 67.385 M 3.234 72.781 C 1.611 78.457, 0.782 83, 1.369 83 C 1.659 83, 2.652 80.309, 3.575 77.019 C 4.498 73.730, 5.605 71.256, 6.035 71.522 C 6.466 71.788, 6.189 74.367, 5.421 77.253 C 3.409 84.809, 3.536 86.282, 6.125 85.460 C 7.555 85.006, 8.027 85.148, 7.566 85.893 C 7.190 86.502, 7.359 87, 7.941 87 C 8.523 87, 9 85.395, 9 83.434 C 9 81.473, 9.475 78.981, 10.055 77.896 C 11.512 75.175, 10.522 72.740, 7.150 70.748 L 4.298 69.063 3.234 72.781 M 122.073 72.635 C 119.974 75.302, 119.275 79, 120.869 79 C 121.347 79, 121.162 81.475, 120.459 84.500 C 119.632 88.056, 119.540 90, 120.197 90 C 120.756 90, 120.960 90.661, 120.651 91.468 C 120.341 92.275, 120.518 93.202, 121.044 93.527 C 121.570 93.852, 122 95.216, 122 96.559 C 122 99.545, 123.089 99.689, 124.812 96.930 C 125.523 95.791, 127.544 94.234, 129.302 93.469 C 132.453 92.099, 132.461 92.078, 129.857 92.039 C 128.398 92.018, 126.942 91.292, 126.607 90.418 C 125.648 87.919, 125.956 87.320, 127.147 89.370 C 127.997 90.832, 128.412 90.952, 129.051 89.918 C 129.576 89.068, 129.177 88.112, 127.931 87.239 C 126.384 86.156, 126.089 85.041, 126.464 81.692 C 126.723 79.386, 126.695 78.263, 126.404 79.195 C 125.750 81.287, 122.994 80.432, 123.015 78.143 C 123.027 76.861, 123.216 76.793, 123.877 77.835 C 124.508 78.831, 124.881 78.578, 125.348 76.835 C 126.269 73.394, 126.132 70, 125.073 70 C 124.562 70, 123.212 71.186, 122.073 72.635 M 79.321 84.439 C 79.426 92.394, 79.903 98.028, 80.475 98.073 C 81.011 98.116, 81.608 97.554, 81.801 96.825 C 82.034 95.947, 81.794 96.007, 81.091 97 C 80.176 98.294, 80.029 98.260, 80.015 96.750 C 80.007 95.787, 80.417 95, 80.928 95 C 81.445 95, 81.647 92.456, 81.385 89.250 L 80.914 83.500 82.442 87.500 C 83.282 89.700, 83.977 91.612, 83.985 91.750 C 83.993 91.888, 84.787 91.964, 85.750 91.921 C 86.795 91.874, 86.997 91.639, 86.250 91.338 C 85.563 91.060, 85 90.394, 85 89.858 C 85 89.321, 85.450 89.160, 86 89.500 C 86.550 89.840, 87 89.641, 87 89.059 C 87 88.477, 86.325 88, 85.500 88 C 83.310 88, 83.646 87.003, 86.818 84.089 C 88.368 82.665, 90.213 80.060, 90.918 78.301 C 92.568 74.186, 91.733 71.498, 89.971 75.250 C 89.260 76.763, 88.241 78, 87.706 78 C 87.171 78, 85.731 79.165, 84.508 80.589 C 82.476 82.954, 82.222 83.021, 81.584 81.359 C 81.200 80.357, 81.339 79.387, 81.893 79.202 C 82.547 78.984, 82.571 78.002, 81.961 76.399 C 81.445 75.041, 81.130 73.440, 81.262 72.840 C 81.393 72.241, 80.970 71.554, 80.321 71.315 C 79.447 70.993, 79.189 74.388, 79.321 84.439 M 124.079 72.583 C 124.127 73.748, 124.364 73.985, 124.683 73.188 C 124.972 72.466, 124.936 71.603, 124.604 71.271 C 124.272 70.939, 124.036 71.529, 124.079 72.583 M 178 72 C 177.099 72.582, 176.975 72.975, 177.691 72.985 C 178.346 72.993, 179.160 72.550, 179.500 72 C 180.267 70.758, 179.921 70.758, 178 72 M 29.032 74.750 C 29.013 76.069, 28.379 77, 27.500 77 C 25.071 77, 25.785 78.726, 28.423 79.230 C 31.366 79.793, 32.491 77.020, 30.426 74.296 C 29.147 72.610, 29.062 72.638, 29.032 74.750 M 143.768 74.168 C 144.350 74.750, 145.415 75.028, 146.137 74.788 C 146.886 74.538, 146.432 74.085, 145.080 73.731 C 143.417 73.296, 143.026 73.426, 143.768 74.168 M 180.580 74.653 C 179.808 76.663, 180.713 78.008, 182.809 77.968 C 184.274 77.941, 184.232 77.722, 182.500 76.334 C 180.876 75.032, 180.829 74.844, 182.250 75.334 C 184.325 76.049, 184.643 74.461, 182.583 73.670 C 181.803 73.371, 180.902 73.813, 180.580 74.653 M 7.078 77.656 C 5.772 82.362, 5.752 83, 6.912 83 C 7.921 83, 9.510 75.177, 8.672 74.339 C 8.383 74.049, 7.665 75.542, 7.078 77.656 M 12 75.819 C 12 76.953, 12.457 78.165, 13.016 78.510 C 13.575 78.856, 13.774 79.557, 13.457 80.069 C 13.141 80.581, 13.359 81, 13.941 81 C 14.523 81, 15 80.546, 15 79.992 C 15 79.376, 15.741 79.446, 16.900 80.170 C 17.958 80.830, 18.581 82.054, 18.306 82.928 C 17.907 84.196, 18.001 84.234, 18.794 83.122 C 19.334 82.364, 20.277 82.053, 20.888 82.431 C 22.586 83.480, 22.243 79.447, 20.513 78.011 C 19.695 77.332, 18.295 77.057, 17.401 77.399 C 16.247 77.843, 15.941 77.595, 16.345 76.543 C 16.657 75.730, 16.482 74.798, 15.956 74.473 C 15.430 74.148, 15 74.414, 15 75.063 C 15 75.944, 14.618 75.928, 13.500 75 C 12.249 73.962, 12 74.098, 12 75.819 M 112.730 76.075 C 113.331 78.373, 113.609 78.461, 114.330 76.583 C 114.629 75.803, 114.278 74.937, 113.550 74.658 C 112.646 74.311, 112.386 74.761, 112.730 76.075 M 64.151 76.500 C 63.967 79.556, 65.649 81.751, 67.080 80.320 C 67.720 79.680, 68.976 79.389, 69.872 79.672 C 70.875 79.990, 71.088 79.864, 70.427 79.344 C 69.837 78.880, 69.017 77.600, 68.605 76.500 C 67.888 74.587, 67.798 74.607, 66.526 76.968 L 65.196 79.436 64.734 76.968 C 64.383 75.092, 64.243 74.980, 64.151 76.500 M 152.667 75.667 C 151.834 76.499, 151.793 82.298, 152.605 84.412 C 153.749 87.395, 154.791 85.006, 153.957 81.311 C 152.973 76.945, 153.499 75.706, 156 76.500 C 157.007 76.820, 158.121 76.613, 158.475 76.041 C 159.183 74.895, 153.786 74.548, 152.667 75.667 M 25 81.393 C 25 82.159, 25.739 83.070, 26.643 83.417 C 28.924 84.292, 28.980 83.799, 26.833 81.750 C 25.437 80.417, 25 80.332, 25 81.393 M 11.015 84.250 C 11.028 86.069, 11.216 86.213, 12 85 C 13.253 83.061, 13.253 82, 12 82 C 11.450 82, 11.007 83.013, 11.015 84.250 M 171 83.059 C 171 83.641, 171.450 83.840, 172 83.500 C 172.550 83.160, 173 82.684, 173 82.441 C 173 82.198, 172.550 82, 172 82 C 171.450 82, 171 82.477, 171 83.059 M 175 83.833 C 175 84.475, 174.100 85, 173 85 C 171.686 85, 171 85.667, 171 86.943 C 171 88.541, 171.624 88.847, 174.514 88.662 C 178.057 88.435, 178.561 87.964, 177.654 85.725 C 177.269 84.775, 177.140 84.781, 177.079 85.750 C 177.036 86.438, 176.270 87, 175.378 87 C 174.037 87, 173.975 86.735, 175.020 85.476 C 175.716 84.638, 175.996 83.663, 175.643 83.309 C 175.289 82.956, 175 83.192, 175 83.833 M 182 83.941 C 182 84.459, 182.445 85.157, 182.989 85.493 C 183.555 85.843, 183.723 85.442, 183.382 84.552 C 182.717 82.820, 182 82.503, 182 83.941 M 29.200 85.200 C 27.280 87.120, 27.676 91.179, 29.750 90.838 C 30.712 90.679, 32.063 90.903, 32.750 91.334 C 33.535 91.826, 34 91.581, 34 90.676 C 34 89.882, 33.060 88.987, 31.910 88.687 C 30.328 88.273, 29.980 87.638, 30.478 86.070 C 31.228 83.705, 30.911 83.489, 29.200 85.200 M 14.158 87 C 14.158 88.375, 14.385 88.938, 14.662 88.250 C 14.940 87.563, 14.940 86.438, 14.662 85.750 C 14.385 85.063, 14.158 85.625, 14.158 87 M 17 86.500 C 17 87.325, 17.177 88, 17.393 88 C 17.609 88, 18.045 87.325, 18.362 86.500 C 18.678 85.675, 18.501 85, 17.969 85 C 17.436 85, 17 85.675, 17 86.500 M 20.624 89.539 C 20.281 90.432, 20.052 92.364, 20.115 93.832 C 20.201 95.830, 20.426 95.496, 21.010 92.500 C 21.838 88.249, 21.655 86.850, 20.624 89.539 M 72 89.590 C 72 90.431, 72.450 90.840, 73 90.500 C 73.583 90.140, 74.048 91.263, 74.116 93.191 C 74.180 95.011, 74.438 95.713, 74.689 94.750 C 74.941 93.787, 75.579 93, 76.109 93 C 77.527 93, 75.364 89.354, 73.528 88.649 C 72.568 88.281, 72 88.631, 72 89.590 M 24.250 90.706 C 22.572 91.029, 22 91.833, 22 93.870 C 22 95.371, 21.439 97.161, 20.754 97.846 C 19.929 98.671, 20.521 98.604, 22.504 97.648 C 27.180 95.394, 30.363 94.603, 29.566 95.893 C 29.190 96.502, 29.302 97, 29.816 97 C 30.330 97, 30.750 95.958, 30.750 94.684 C 30.750 92.969, 30.199 92.385, 28.625 92.434 C 27.433 92.471, 26.610 91.951, 26.750 91.250 C 26.887 90.563, 26.887 90.061, 26.750 90.136 C 26.613 90.211, 25.488 90.467, 24.250 90.706 M 90 92.571 C 90 94.857, 90.167 94.976, 91.500 93.643 C 92.325 92.818, 93 91.661, 93 91.071 C 93 90.482, 92.325 90, 91.500 90 C 90.556 90, 90 90.952, 90 92.571 M 114 90.965 C 114 91.856, 117.132 94, 118.434 94 C 118.745 94, 118.993 93.213, 118.985 92.250 C 118.972 90.781, 118.820 90.737, 118.038 91.972 C 117.241 93.233, 117.013 93.197, 116.447 91.722 C 115.743 89.889, 114 89.349, 114 90.965 M 133.500 94.500 C 133.500 97.023, 134.408 97.766, 135.444 96.090 C 136.085 95.053, 135.114 92, 134.143 92 C 133.789 92, 133.500 93.125, 133.500 94.500 M 44.031 95.250 C 43.534 96.487, 43.098 96.980, 43.063 96.344 C 43.028 95.690, 42.135 95.413, 41.011 95.707 C 38.124 96.462, 39.760 98.279, 42.804 97.697 C 46.216 97.045, 48.717 97.930, 46.834 99.124 C 45.924 99.701, 45.879 99.974, 46.691 99.985 C 48.721 100.011, 49.295 97.920, 47.949 95.405 C 46.342 92.402, 45.194 92.357, 44.031 95.250 M 57 96 C 57 96.550, 57.450 97, 58 97 C 58.550 97, 59 96.550, 59 96 C 59 95.450, 58.550 95, 58 95 C 57.450 95, 57 95.450, 57 96 M 52.926 97.250 C 52.190 99.725, 52.229 102, 53.006 102 C 53.553 102, 54 101.138, 54 100.083 C 54 99.029, 54.563 97.940, 55.250 97.662 C 55.997 97.361, 55.795 97.126, 54.750 97.079 C 53.788 97.036, 52.967 97.112, 52.926 97.250 M 74 98.500 C 74 99.325, 74.436 100, 74.969 100 C 75.501 100, 75.678 99.325, 75.362 98.500 C 75.045 97.675, 74.609 97, 74.393 97 C 74.177 97, 74 97.675, 74 98.500 M 28.397 99.500 C 30.308 100.946, 32 100.684, 32 98.941 C 32 98.423, 30.762 98.014, 29.250 98.032 C 26.644 98.062, 26.600 98.139, 28.397 99.500 M 85.486 99.022 C 84.510 100.602, 84.155 108.978, 85.041 109.525 C 85.475 109.793, 86.057 109.447, 86.336 108.756 C 86.641 107.998, 86.873 108.194, 86.921 109.250 C 86.975 110.440, 87.819 111, 89.559 111 C 91.010 111, 91.851 110.567, 91.500 110 C 91.160 109.450, 90.302 109, 89.593 109 C 88.405 109, 87.836 106.223, 87.801 100.250 C 87.788 97.904, 86.575 97.261, 85.486 99.022 M 131.200 99.200 C 130.540 99.860, 130.007 100.873, 130.015 101.450 C 130.024 102.028, 130.424 101.879, 130.905 101.119 C 131.519 100.151, 131.996 101.016, 132.503 104.016 C 133.079 107.428, 132.899 108.477, 131.613 109.197 C 129.477 110.392, 129.556 111.894, 131.750 111.802 C 134.109 111.702, 139 113.738, 139 114.820 C 139 115.299, 138.097 116.507, 136.994 117.506 C 135.890 118.504, 135.212 119.545, 135.485 119.819 C 135.759 120.092, 135.486 120.914, 134.879 121.645 C 134.273 122.376, 134.080 123.767, 134.452 124.736 C 134.899 125.900, 134.140 125.550, 132.211 123.702 C 130.453 122.018, 129.380 120.033, 129.510 118.704 C 129.629 117.478, 129.533 117.276, 129.293 118.250 C 128.808 120.215, 127.361 120.583, 126.795 118.885 C 126.591 118.272, 124.729 121.534, 122.659 126.135 C 120.588 130.736, 118.058 136.300, 117.036 138.500 C 115.867 141.017, 114.946 146.023, 114.551 152 C 114.205 157.225, 113.656 165.133, 113.331 169.574 L 112.740 177.649 116.620 179.525 C 119.687 181.008, 123.328 181.469, 134 181.728 C 141.425 181.908, 149.222 182.577, 151.326 183.213 C 154.413 184.147, 155.315 184.109, 155.990 183.016 C 156.632 181.977, 160.961 181.596, 174.564 181.381 C 185.230 181.211, 192.719 180.681, 193.350 180.050 C 193.928 179.472, 195.660 179, 197.200 179 L 200 179 200 166.500 C 200 159.456, 199.594 154, 199.070 154 C 198.558 154, 197.944 152.988, 197.706 151.750 C 197.283 149.556, 197.269 149.554, 197.136 151.653 C 197.019 153.506, 196.294 153.855, 191.949 154.153 C 189.171 154.344, 186.471 154.072, 185.949 153.550 C 185.350 152.950, 185 153.064, 185 153.859 C 185 156.175, 183.160 154.014, 181.915 150.236 C 181.239 148.181, 179.968 145.904, 179.093 145.176 C 178.217 144.448, 178.063 144.137, 178.750 144.485 C 179.438 144.833, 180.007 144.529, 180.015 143.809 C 180.026 142.858, 180.296 142.910, 181 144 C 181.533 144.825, 181.976 145.028, 181.985 144.450 C 181.993 143.873, 181.441 142.841, 180.758 142.158 C 179.770 141.170, 179.820 140.722, 181.008 139.958 C 182.231 139.173, 182.259 138.845, 181.165 138.138 C 180.430 137.664, 179.868 136.989, 179.915 136.638 C 180.214 134.399, 179.507 134.002, 175.250 134.015 C 172.062 134.026, 170.965 134.325, 171.915 134.926 C 172.693 135.419, 174.155 135.663, 175.165 135.468 C 176.174 135.274, 177 135.509, 177 135.991 C 177 136.473, 175.762 137.055, 174.250 137.284 L 171.500 137.700 174.250 137.850 C 175.762 137.933, 177 138.450, 177 139 C 177 139.550, 176.438 139.888, 175.750 139.750 C 175.047 139.609, 174.362 140.703, 174.184 142.250 C 174.010 143.762, 174.275 145, 174.773 145 C 176.011 145, 178 149.574, 178 152.419 C 178 154.360, 177.336 154.850, 173.982 155.387 C 171.773 155.740, 168.960 155.821, 167.732 155.566 C 166.505 155.311, 161.233 154.837, 156.017 154.514 C 150.165 154.151, 145.656 153.350, 144.239 152.421 C 142.977 151.594, 141.558 151.155, 141.088 151.446 C 140.617 151.737, 139.675 150.630, 138.995 148.987 C 138.314 147.344, 137.362 146, 136.879 146 C 136.395 146, 136 144.823, 136 143.385 C 136 140.835, 136.062 140.810, 138.465 142.385 C 141.552 144.408, 143.726 144.580, 142.147 142.677 C 141.265 141.615, 141.666 141.444, 144.176 141.813 C 147.088 142.240, 147.252 142.106, 146.546 139.886 C 145.380 136.217, 144.936 129, 145.877 129 C 146.338 129, 146.667 127.763, 146.608 126.250 C 146.506 123.648, 146.715 123.515, 150.500 123.772 C 152.700 123.921, 155.625 123.764, 157 123.422 C 159.439 122.815, 159.417 122.772, 156.094 121.650 C 152.281 120.363, 149.509 116.992, 148.568 112.500 C 148.106 110.295, 148.208 109.897, 148.954 111 C 149.742 112.164, 149.973 111.776, 149.985 109.269 C 149.998 106.541, 149.572 105.951, 147.250 105.481 C 145.738 105.174, 142.836 104.041, 140.802 102.962 C 138.768 101.883, 136.420 101, 135.583 101 C 134.643 101, 134.282 100.428, 134.638 99.500 C 135.334 97.686, 132.924 97.476, 131.200 99.200 M 157.395 101.170 C 156.896 101.977, 157.237 102.123, 158.491 101.642 C 160.491 100.874, 165 104.360, 165 106.674 C 165 107.403, 165.408 108, 165.906 108 C 167.285 108, 166.057 104.438, 163.867 102.088 C 161.730 99.794, 158.526 99.340, 157.395 101.170 M 81.079 102.583 C 81.127 103.748, 81.364 103.985, 81.683 103.188 C 81.972 102.466, 81.936 101.603, 81.604 101.271 C 81.272 100.939, 81.036 101.529, 81.079 102.583 M 27 103.219 C 27 103.664, 28.449 103.773, 30.220 103.461 C 34.802 102.654, 35.101 101.863, 30.712 102.159 C 28.671 102.296, 27 102.773, 27 103.219 M 126.020 104.476 C 125.231 105.426, 125.155 106, 125.819 106 C 127.027 106, 128.436 104.103, 127.743 103.409 C 127.491 103.158, 126.716 103.638, 126.020 104.476 M 96.021 106.960 C 95.409 108.105, 95.180 109.482, 95.513 110.021 C 95.846 110.559, 95.529 111.007, 94.809 111.015 C 93.858 111.026, 93.910 111.296, 95 112 C 96.276 112.824, 96.283 112.972, 95.050 112.985 C 93.925 112.997, 93.868 113.268, 94.796 114.196 C 95.725 115.125, 96.301 114.971, 97.370 113.509 C 98.701 111.689, 98.770 111.699, 99.441 113.813 C 100.347 116.669, 102.004 116.628, 101.985 113.750 C 101.972 111.931, 101.784 111.787, 101 113 C 100.467 113.825, 100.024 113.993, 100.015 113.372 C 100.007 112.752, 100.681 111.680, 101.512 110.990 C 102.484 110.183, 102.693 109.335, 102.097 108.617 C 101.587 108.003, 101.244 107.050, 101.335 106.500 C 101.671 104.463, 97.148 104.855, 96.021 106.960 M 106 105.892 C 106 106.566, 105.550 106.840, 105 106.500 C 104.450 106.160, 104 106.359, 104 106.941 C 104 107.523, 104.423 108, 104.941 108 C 106.176 108, 107.368 106.035, 106.600 105.267 C 106.270 104.937, 106 105.218, 106 105.892 M 122 108.500 C 121.246 109.408, 121.166 110, 121.796 110 C 122.368 110, 123.661 110.259, 124.668 110.576 C 126.396 111.118, 126.400 111.087, 124.729 110.014 C 123.755 109.389, 123.219 108.455, 123.538 107.939 C 124.457 106.452, 123.371 106.848, 122 108.500 M 111.268 112.311 C 110.232 114.584, 110.334 114.971, 112.121 115.538 C 114.829 116.398, 115.027 116.015, 113.630 112.614 L 112.445 109.728 111.268 112.311 M 85.015 111.781 C 85.007 112.486, 85.672 113.321, 86.494 113.636 C 87.316 113.952, 87.694 114.725, 87.334 115.355 C 86.974 115.985, 87.065 116.149, 87.535 115.721 C 88.779 114.590, 89.011 111.875, 87.800 112.623 C 87.237 112.971, 86.384 112.636, 85.904 111.878 C 85.243 110.835, 85.027 110.811, 85.015 111.781 M 150.667 111.667 C 149.545 112.788, 149.953 114.385, 152.028 117 L 154.012 119.500 152.546 115.877 C 151.739 113.884, 151.361 111.972, 151.706 111.627 C 152.051 111.282, 152.108 111, 151.833 111 C 151.558 111, 151.033 111.300, 150.667 111.667 M 171.573 119.118 C 171.990 119.793, 176 119.138, 176 118.395 C 176 118.190, 174.907 118.113, 173.572 118.223 C 172.237 118.334, 171.337 118.737, 171.573 119.118 M 183.403 120.049 C 177.750 120.787, 170 123.283, 170 124.366 C 170 124.623, 176.750 124.883, 185 124.944 L 200 125.054 200 122.027 C 200 119.026, 199.955 119.001, 194.750 119.127 C 191.863 119.197, 186.756 119.612, 183.403 120.049 M 181.789 123.741 C 185.248 123.937, 190.648 123.936, 193.789 123.738 C 196.930 123.540, 194.100 123.380, 187.500 123.382 C 180.900 123.384, 178.330 123.546, 181.789 123.741 M 175.658 127.235 C 175.021 127.639, 180.238 127.976, 187.250 127.985 C 194.322 127.993, 200 127.592, 200 127.083 C 200 126.007, 177.370 126.148, 175.658 127.235 M 152.688 129.370 C 152.310 130.356, 152 132.252, 152 133.582 C 152 135.525, 152.515 136, 154.622 136 C 156.788 136, 157.037 135.750, 156.053 134.564 C 155.398 133.774, 154.527 131.879, 154.119 130.352 C 153.497 128.028, 153.264 127.868, 152.688 129.370 M 167.813 129.683 C 168.534 129.972, 169.397 129.936, 169.729 129.604 C 170.061 129.272, 169.471 129.036, 168.417 129.079 C 167.252 129.127, 167.015 129.364, 167.813 129.683 M 178.296 129.744 C 182.583 129.932, 189.333 129.931, 193.296 129.742 C 197.258 129.552, 193.750 129.399, 185.500 129.400 C 177.250 129.401, 174.008 129.556, 178.296 129.744 M 174 132.118 C 172.075 132.458, 177.213 132.796, 185.417 132.868 C 193.621 132.941, 200.006 132.672, 199.605 132.272 C 198.715 131.381, 178.846 131.262, 174 132.118 M 183.847 134.884 C 184.588 135.354, 188.076 135.550, 191.597 135.319 C 195.119 135.088, 198 135.266, 198 135.714 C 198 136.162, 194.971 136.663, 191.270 136.828 C 181.846 137.247, 182.070 138, 191.619 138 C 198.905 138, 199.571 137.832, 199.571 136 C 199.571 134.155, 198.910 134.001, 191.036 134.015 C 185.929 134.024, 183.041 134.374, 183.847 134.884 M 185.277 139.610 C 186.003 140.336, 199.088 140.245, 199.824 139.510 C 200.104 139.229, 196.808 139, 192.500 139 C 188.192 139, 184.941 139.275, 185.277 139.610 M 59 145 C 59 145.550, 59.702 146, 60.559 146 C 61.416 146, 61.840 145.550, 61.500 145 C 61.160 144.450, 60.459 144, 59.941 144 C 59.423 144, 59 144.450, 59 145 M 101.667 172.667 C 101.300 173.033, 101 173.798, 101 174.367 C 101 174.993, 101.466 174.934, 102.183 174.217 C 102.834 173.566, 103.134 172.801, 102.850 172.517 C 102.566 172.232, 102.033 172.300, 101.667 172.667 M 115 176.500 C 115.685 177.325, 116.695 178, 117.245 178 C 117.803 178, 117.694 177.337, 117 176.500 C 116.315 175.675, 115.305 175, 114.755 175 C 114.197 175, 114.306 175.663, 115 176.500 M 94 186.139 C 94 186.612, 95.125 187, 96.500 187 C 97.875 187, 99 186.827, 99 186.617 C 99 186.406, 97.875 186.018, 96.500 185.755 C 95.125 185.492, 94 185.665, 94 186.139" stroke="none" fill="#c7d4d8" fill-rule="evenodd"/>
</svg>