<svg xmlns="http://www.w3.org/2000/svg" width="200" height="200" viewBox="0 0 200 200" version="1.1">
	<rect x="0" y="0" width="100%" height="100%" fill="#fff" />
	<path d="M 141.751 61.689 C 138.518 62.534, 137.909 71.759, 141.120 71.236 C 142.375 71.031, 142.662 71.653, 142.390 73.986 C 142.190 75.705, 142.506 77, 143.127 77 C 143.725 77, 143.971 77.633, 143.674 78.406 C 143.378 79.179, 144.005 80.599, 145.067 81.561 C 146.130 82.523, 146.986 83.803, 146.968 84.405 C 146.951 85.007, 146.327 84.696, 145.581 83.713 C 144.288 82.009, 143.967 82.032, 138.577 84.213 C 134.597 85.824, 132.758 87.165, 132.355 88.750 C 131.773 91.039, 130 91.905, 130 89.899 C 130 89.171, 128.395 88.997, 125.250 89.385 C 122.638 89.707, 119.316 89.974, 117.868 89.979 C 116.037 89.984, 115.069 90.627, 114.686 92.094 C 114.383 93.253, 113.701 93.934, 113.172 93.606 C 112.643 93.279, 111.954 93.676, 111.643 94.489 C 110.647 97.083, 108 95.014, 108 91.643 C 108 88.817, 107.697 88.500, 105 88.500 C 102.556 88.500, 102 88.917, 102 90.750 C 102 91.987, 101.550 93, 101 93 C 100.450 93, 100 91.650, 100 90 C 100 87.167, 99.778 87, 96 87 C 92.713 87, 92 87.345, 92 88.933 C 92 90.062, 91.065 91.157, 89.750 91.567 C 88.513 91.954, 87.187 92.758, 86.804 93.356 C 85.912 94.750, 85.133 93.951, 84.715 91.215 C 84.262 88.244, 83 87.184, 83 89.774 C 83 90.934, 82.550 92.160, 82 92.500 C 81.370 92.890, 81 90.530, 81 86.118 C 81 82.268, 80.529 78.827, 79.954 78.472 C 79.379 78.116, 76.679 78.132, 73.954 78.506 C 70.130 79.032, 69 79.593, 69 80.965 C 69 82.432, 67.782 82.862, 62.002 83.431 C 58.153 83.810, 54.523 83.823, 53.935 83.460 C 53.344 83.095, 52.619 83.740, 52.316 84.899 C 51.881 86.565, 50.986 87, 48 87 C 45.074 87, 44.116 87.447, 43.710 89 C 43.423 90.100, 42.447 91, 41.542 91 C 40.188 91, 39.937 90.028, 40.120 85.504 C 40.242 82.482, 40.096 79.762, 39.795 79.462 C 39.494 79.161, 37.730 78.733, 35.874 78.510 C 34.018 78.288, 27.888 77.559, 22.250 76.891 C 15.507 76.092, 12 75.259, 12 74.455 C 12 72.976, 8.809 72.032, 3.750 72.014 L 0 72 -0 84.869 L -0 97.738 3.750 98.358 C 5.812 98.699, 17.288 98.983, 29.250 98.989 C 45.064 98.997, 51 99.316, 51 100.159 C 51 101.023, 44.516 101.161, 25.500 100.703 L -0 100.088 -0 150.044 L 0 200 75 200 L 150 200 150 197.878 C 150 196.344, 150.347 196.016, 151.250 196.697 C 154.868 199.425, 161.116 200.087, 180.500 199.798 L 200.500 199.500 200.558 135 C 200.590 99.525, 200.365 73.840, 200.058 77.921 C 199.518 85.097, 197.794 88.232, 196.394 84.583 C 195.490 82.228, 190.929 82.556, 190.284 85.022 C 189.839 86.723, 189.217 86.944, 186.378 86.411 C 183.224 85.819, 183 85.955, 183 88.456 C 183 90.742, 182.685 91.035, 180.849 90.452 C 179.138 89.909, 178.824 90.100, 179.317 91.385 C 179.658 92.273, 179.550 93, 179.077 93 C 178.604 93, 177.771 90.862, 177.226 88.250 C 176.682 85.638, 176.183 84.483, 176.118 85.685 C 176.053 86.887, 175.550 89.054, 174.999 90.502 L 173.998 93.135 170.999 90.999 C 169.350 89.825, 168 87.985, 168 86.910 C 168 85.797, 166.925 84.467, 165.500 83.818 C 164.125 83.192, 162.964 81.964, 162.921 81.089 C 162.878 80.215, 162.637 79.997, 162.386 80.605 C 161.878 81.836, 157.661 81.412, 154.319 79.793 C 152.308 78.818, 152.182 78.216, 152.701 72.031 L 153.263 65.326 149.763 63.163 C 146.295 61.019, 145.132 60.805, 141.751 61.689 M 140 69 C 140 69.550, 140.423 70, 140.941 70 C 141.459 70, 142.160 69.550, 142.500 69 C 142.840 68.450, 142.416 68, 141.559 68 C 140.702 68, 140 68.450, 140 69 M 144 72.622 C 144 73.951, 144.271 74.020, 145.500 73 C 146.325 72.315, 147 71.585, 147 71.378 C 147 71.170, 146.325 71, 145.500 71 C 144.675 71, 144 71.730, 144 72.622 M 0.392 85 C 0.392 92.425, 0.549 95.463, 0.742 91.750 C 0.934 88.037, 0.934 81.963, 0.742 78.250 C 0.549 74.537, 0.392 77.575, 0.392 85 M 74.079 85.583 C 74.127 86.748, 74.364 86.985, 74.683 86.188 C 74.972 85.466, 74.936 84.603, 74.604 84.271 C 74.272 83.939, 74.036 84.529, 74.079 85.583 M 61.750 85.572 C 61.337 85.991, 61 87.473, 61 88.867 C 61 90.687, 61.305 91.095, 62.085 90.315 C 62.681 89.719, 63.019 88.236, 62.835 87.020 C 62.651 85.805, 62.163 85.153, 61.750 85.572 M 170.622 94.750 C 171.563 98.676, 172 98.808, 172 95.167 C 172 93.425, 171.541 92, 170.981 92 C 170.376 92, 170.230 93.117, 170.622 94.750 M 62.500 96 C 62.840 96.550, 63.316 97, 63.559 97 C 63.802 97, 64 96.550, 64 96 C 64 95.450, 63.523 95, 62.941 95 C 62.359 95, 62.160 95.450, 62.500 96 M 125.500 98 C 125.160 98.550, 125.359 99, 125.941 99 C 126.523 99, 127 98.550, 127 98 C 127 97.450, 126.802 97, 126.559 97 C 126.316 97, 125.840 97.450, 125.500 98 M 54 99.942 C 54 100.648, 60.406 101.016, 73.250 101.047 C 83.838 101.073, 96.799 101.339, 102.053 101.637 C 109.623 102.067, 111.853 101.882, 112.795 100.746 C 113.823 99.508, 109.903 99.284, 83.993 99.098 C 63.427 98.951, 54 99.216, 54 99.942 M 116.244 99.665 C 115.553 99.943, 115.242 100.582, 115.553 101.085 C 116.318 102.323, 123.726 102.253, 124.500 101 C 124.848 100.436, 124.038 100, 122.641 100 C 121.278 100, 119.564 99.811, 118.832 99.579 C 118.099 99.348, 116.935 99.386, 116.244 99.665 M 0.464 150 C 0.464 177.775, 0.592 189.138, 0.749 175.250 C 0.906 161.363, 0.906 138.638, 0.749 124.750 C 0.592 110.863, 0.464 122.225, 0.464 150 M 173.250 101.689 C 174.213 101.941, 175.787 101.941, 176.750 101.689 C 177.713 101.438, 176.925 101.232, 175 101.232 C 173.075 101.232, 172.287 101.438, 173.250 101.689 M 183.762 101.707 C 185.006 101.946, 186.806 101.937, 187.762 101.687 C 188.718 101.437, 187.700 101.241, 185.500 101.252 C 183.300 101.263, 182.518 101.468, 183.762 101.707 M 130.678 112.120 C 129.676 112.703, 126.211 113.252, 122.977 113.340 C 119.744 113.428, 116.547 114.052, 115.872 114.727 C 114.903 115.697, 116.677 115.907, 124.322 115.727 C 133.623 115.509, 133.999 115.413, 134 113.250 C 134 110.760, 133.380 110.549, 130.678 112.120 M 97.250 112.808 C 93.164 113.209, 92.959 115, 97 115 C 99.421 115, 100.015 115.434, 100.079 117.250 C 100.152 119.334, 100.230 119.304, 101.134 116.836 C 101.670 115.371, 102.737 113.931, 103.504 113.637 C 105.021 113.055, 104.566 115.280, 102.612 118 C 102.019 118.825, 102.556 118.628, 103.804 117.562 C 108.264 113.753, 105.803 111.968, 97.250 112.808 M 173.638 113.500 C 173.291 114.405, 173.633 115, 174.500 115 C 175.367 115, 175.709 114.405, 175.362 113.500 C 175.045 112.675, 174.657 112, 174.500 112 C 174.343 112, 173.955 112.675, 173.638 113.500 M 178 114 C 178 114.550, 179.125 115, 180.500 115 C 181.875 115, 183 114.550, 183 114 C 183 113.450, 181.875 113, 180.500 113 C 179.125 113, 178 113.450, 178 114 M 165.926 126.339 C 164.990 127.039, 164.380 129.023, 164.387 131.337 C 164.399 134.795, 164.533 134.992, 165.745 133.337 C 166.484 132.327, 166.844 130.521, 166.544 129.323 C 166.156 127.774, 166.503 127.047, 167.749 126.800 C 168.712 126.609, 169.045 126.166, 168.489 125.815 C 167.933 125.464, 166.780 125.700, 165.926 126.339 M 17.825 151.375 C 17.492 154.227, 17.746 154.753, 19.465 154.770 C 20.584 154.781, 22.175 154.949, 23 155.145 C 24.092 155.403, 24.584 154.481, 24.810 151.750 C 25.114 148.081, 25.046 148, 21.670 148 C 18.495 148, 18.187 148.270, 17.825 151.375 M 19.484 165.085 C 18.174 165.596, 18.009 165.888, 19 165.945 C 20.280 166.018, 20.291 166.163, 19.074 166.933 C 18.290 167.429, 17.496 168.833, 17.310 170.052 C 17.023 171.931, 17.202 172.077, 18.486 171.012 C 19.576 170.107, 20 170.080, 20 170.913 C 20 171.733, 20.544 171.779, 21.869 171.070 C 22.896 170.520, 23.927 170.260, 24.159 170.492 C 24.391 170.724, 24.647 170.033, 24.728 168.957 C 24.809 167.881, 24.341 166.993, 23.688 166.985 C 22.883 166.974, 22.930 166.697, 23.835 166.123 C 25.730 164.922, 22.113 164.058, 19.484 165.085 M 33.150 166.167 C 33.067 167.633, 32.438 169.034, 31.750 169.280 C 31.063 169.525, 30.845 170.095, 31.267 170.546 C 32.613 171.987, 34.171 169.344, 33.728 166.372 L 33.300 163.500 33.150 166.167 M 36.863 166.894 C 37.950 167.583, 37.965 167.845, 36.936 168.188 C 36.226 168.425, 35.965 169.134, 36.355 169.765 C 37.391 171.442, 40 170.101, 40 167.893 C 40 166.592, 39.296 166.005, 37.750 166.015 C 36.099 166.027, 35.863 166.260, 36.863 166.894 M 41.213 168.786 C 41.282 171.218, 41.604 171.744, 42.544 170.963 C 44.109 169.665, 45.115 166, 43.906 166 C 43.408 166, 42.993 166.563, 42.985 167.250 C 42.974 168.103, 42.676 168.036, 42.046 167.040 C 41.375 165.980, 41.147 166.459, 41.213 168.786 M 22 169.059 C 22 169.641, 22.450 169.840, 23 169.500 C 23.550 169.160, 24 168.684, 24 168.441 C 24 168.198, 23.550 168, 23 168 C 22.450 168, 22 168.477, 22 169.059 M 18.529 173.805 C 18.238 174.095, 18 175.557, 18 177.053 C 18 179.312, 18.510 179.848, 21.006 180.214 C 22.659 180.457, 24.234 180.433, 24.506 180.161 C 25.295 179.372, 25.077 174.013, 24.250 173.872 C 21.375 173.383, 18.979 173.355, 18.529 173.805 M 31.037 175.931 C 29.830 178.187, 32.356 181.525, 34.331 180.283 C 35.124 179.783, 34.937 179.435, 33.750 179.200 C 32.788 179.009, 32 178.234, 32 177.476 C 32 176.719, 32.788 175.641, 33.750 175.080 C 35.381 174.130, 35.383 174.059, 33.785 174.030 C 32.842 174.014, 31.605 174.869, 31.037 175.931 M 36.070 177.135 C 36.129 179.924, 36.288 180.158, 37 178.500 C 37.735 176.790, 37.870 176.754, 37.930 178.250 C 38.009 180.220, 39.991 180.695, 40.015 178.750 C 40.026 177.867, 40.246 177.829, 40.765 178.621 C 41.169 179.237, 43.294 179.687, 45.487 179.621 C 48.429 179.532, 49.562 179.042, 49.810 177.750 C 49.995 176.787, 49.697 176, 49.147 176 C 48.597 176, 47.941 176.787, 47.689 177.750 C 47.254 179.417, 47.226 179.417, 47.116 177.750 C 47.052 176.787, 46.523 176, 45.941 176 C 45.359 176, 45.211 176.563, 45.613 177.250 C 46.015 177.938, 45.411 177.683, 44.271 176.685 C 42.938 175.517, 41.966 175.246, 41.547 175.924 C 41.116 176.622, 40.069 176.436, 38.448 175.374 C 36.015 173.780, 36 173.791, 36.070 177.135 M 131.517 175.973 C 131.186 176.508, 132.060 179.364, 133.458 182.319 C 134.856 185.275, 136 188.271, 136 188.978 C 136 191.224, 140.102 197, 141.697 197 C 143.033 197, 143.012 196.668, 141.535 194.413 C 139.685 191.589, 136.143 182.122, 135.302 177.750 C 134.782 175.045, 132.696 174.065, 131.517 175.973" stroke="none" fill="#c7d4d8" fill-rule="evenodd"/>
</svg>