<svg xmlns="http://www.w3.org/2000/svg" width="200" height="200" viewBox="0 0 200 200" version="1.1">
	<rect x="0" y="0" width="100%" height="100%" fill="#fff" />
	<path d="M -0 100.005 L -0 200.010 100.250 199.755 L 200.500 199.500 200.755 99.750 L 201.010 0 100.505 0 L 0 0 -0 100.005 M 0.481 100.500 C 0.481 155.500, 0.602 178.147, 0.750 150.826 C 0.898 123.506, 0.898 78.506, 0.750 50.826 C 0.602 23.147, 0.481 45.500, 0.481 100.500 M 139.530 21.951 C 139.152 22.563, 134.948 23, 129.441 23 C 124.184 23, 120 23.419, 120 23.944 C 120 24.464, 121.800 24.672, 124 24.407 C 128.603 23.852, 128.393 23.283, 128.459 36.500 C 128.492 42.926, 128.795 44.500, 130 44.500 C 131.207 44.500, 131.557 42.653, 131.790 35.034 C 131.964 29.389, 132.536 25.287, 133.209 24.871 C 133.829 24.487, 136.073 24.297, 138.195 24.448 C 142.449 24.751, 143.728 23.849, 141.578 22.065 C 140.620 21.269, 139.974 21.234, 139.530 21.951 M 160.730 23.750 C 160.453 24.712, 159.879 26.400, 159.453 27.500 C 158.735 29.356, 158.858 29.338, 161.154 27.250 C 164.206 24.475, 164.626 24.460, 165.316 27.101 C 165.641 28.343, 166.329 28.914, 167.001 28.499 C 167.625 28.113, 167.895 27.168, 167.600 26.399 C 167.290 25.592, 167.684 25, 168.531 25 C 169.339 25, 170 24.514, 170 23.921 C 170 23.241, 168.887 23.085, 167 23.500 C 165.113 23.915, 164 23.759, 164 23.079 C 164 21.302, 161.273 21.861, 160.730 23.750 M 169.654 26.054 C 168.639 28.256, 168.052 30.693, 168.350 31.469 C 168.731 32.463, 167.945 33, 165.696 33.281 C 163.376 33.570, 163.837 33.724, 167.377 33.840 L 172.254 34 171.771 39.030 C 171.279 44.151, 172.269 46.131, 174.305 44.095 C 175.320 43.080, 175.660 41.321, 175.919 35.750 C 175.963 34.788, 176.730 34, 177.622 34 C 178.951 34, 179.020 33.729, 178 32.500 C 176.958 31.245, 177.111 31, 178.937 31 C 180.136 31, 180.866 30.593, 180.559 30.095 C 180.251 29.598, 178.267 29.423, 176.150 29.707 C 171.883 30.279, 169.893 28.164, 172.591 25.925 C 173.780 24.938, 174.329 25.067, 175.449 26.600 C 176.212 27.643, 177.189 28.144, 177.620 27.713 C 178.408 26.925, 173.775 21.978, 172.294 22.026 C 171.857 22.040, 170.669 23.853, 169.654 26.054 M 177.991 23.511 C 176.962 24.750, 177.111 25, 178.878 25 C 180.045 25, 181 24.577, 181 24.059 C 181 22.327, 179.240 22.006, 177.991 23.511 M 93.829 28 C 93.619 30.200, 93.749 32, 94.119 32 C 94.488 32, 94.962 30.200, 95.171 28 C 95.381 25.800, 95.251 24, 94.881 24 C 94.512 24, 94.038 25.800, 93.829 28 M 96.962 24.250 C 96.604 26.621, 96.407 31.028, 96.716 29.750 C 97.289 27.380, 99 27.523, 99 29.941 C 99 31.709, 100.676 33.693, 101.457 32.850 C 101.636 32.658, 101.997 30.587, 102.260 28.250 C 102.611 25.130, 102.382 24, 101.400 24 C 100.586 24, 100.276 24.684, 100.607 25.750 C 101.125 27.417, 101.097 27.417, 100.026 25.750 C 99.094 24.301, 97.102 23.326, 96.962 24.250 M 100.079 29.583 C 100.127 30.748, 100.364 30.985, 100.683 30.188 C 100.972 29.466, 100.936 28.603, 100.604 28.271 C 100.272 27.939, 100.036 28.529, 100.079 29.583 M 160.250 30.689 C 161.213 30.941, 162.787 30.941, 163.750 30.689 C 164.713 30.438, 163.925 30.232, 162 30.232 C 160.075 30.232, 159.287 30.438, 160.250 30.689 M 135.576 33.909 C 138.519 36.852, 140 37.042, 140 34.476 C 140 32.876, 136.977 31, 134.399 31 C 133.026 31, 133.269 31.603, 135.576 33.909 M 171 31.883 C 171 33.422, 174.839 33.863, 175.404 32.389 C 175.770 31.435, 175.165 31, 173.469 31 C 172.111 31, 171 31.398, 171 31.883 M 177.667 35.667 C 176.356 36.978, 177.034 37.804, 179 37.290 C 180.100 37.002, 181 36.369, 181 35.883 C 181 34.850, 178.637 34.697, 177.667 35.667 M 160 37 C 160 37.550, 162.052 38, 164.559 38 C 167.344 38, 168.878 37.611, 168.500 37 C 168.160 36.450, 166.109 36, 163.941 36 C 161.773 36, 160 36.450, 160 37 M 97 37.969 C 97 38.501, 96.213 38.684, 95.250 38.374 C 93.839 37.920, 93.778 38.008, 94.936 38.829 C 96.183 39.714, 96.183 40.087, 94.936 41.674 C 93.640 43.323, 93.661 43.374, 95.153 42.208 C 96.503 41.153, 96.915 41.153, 97.403 42.208 C 97.891 43.264, 98.109 43.264, 98.597 42.208 C 99.056 41.217, 99.520 41.187, 100.597 42.081 C 101.651 42.955, 102 42.958, 102 42.091 C 102 41.456, 101.325 40.678, 100.500 40.362 C 99.675 40.045, 99 39.159, 99 38.393 C 99 37.627, 98.550 37, 98 37 C 97.450 37, 97 37.436, 97 37.969 M 164.610 40.427 C 165.320 42.276, 168.363 42.589, 167.750 40.750 C 167.522 40.063, 166.586 39.355, 165.671 39.177 C 164.511 38.952, 164.190 39.331, 164.610 40.427 M 93.500 45 C 93.160 45.550, 93.359 46, 93.941 46 C 94.523 46, 95 45.550, 95 45 C 95 44.450, 94.802 44, 94.559 44 C 94.316 44, 93.840 44.450, 93.500 45 M 96 45.151 C 96 45.549, 96.900 45.808, 98 45.725 C 99.100 45.642, 100 45.248, 100 44.849 C 100 44.451, 99.100 44.192, 98 44.275 C 96.900 44.358, 96 44.752, 96 45.151 M 101 45 C 101 45.550, 101.477 46, 102.059 46 C 102.641 46, 102.840 45.550, 102.500 45 C 102.160 44.450, 101.684 44, 101.441 44 C 101.198 44, 101 44.450, 101 45 M 94.669 51.421 C 94.301 52.380, 94 54.657, 94 56.482 C 94 59.711, 94.108 59.796, 97.994 59.650 C 101.647 59.513, 101.989 59.265, 101.994 56.750 C 102.002 53.107, 101.735 52.474, 100.261 52.637 C 99.579 52.712, 99.249 52.406, 99.527 51.956 C 99.805 51.506, 99.575 50.856, 99.016 50.510 C 98.103 49.946, 97.565 51.245, 97.882 53.250 C 98.140 54.884, 96.889 53.873, 96.136 51.840 C 95.425 49.916, 95.264 49.871, 94.669 51.421 M 162.015 51.750 C 162.040 52.978, 163.412 54.482, 164.750 54.750 C 166.140 55.028, 166.356 54.026, 165.235 52.500 C 164.330 51.268, 161.994 50.724, 162.015 51.750 M 167.528 53.806 C 166.340 54.993, 168.270 55.618, 172.447 55.398 C 174.951 55.265, 177 55.572, 177 56.079 C 177 56.585, 177.675 57, 178.500 57 C 179.325 57, 180 56.167, 180 55.149 C 180 53.552, 179.178 53.301, 174 53.316 C 170.701 53.325, 167.788 53.545, 167.528 53.806 M 123 56.843 C 123 57.949, 122.213 59.059, 121.250 59.311 C 120.287 59.562, 121.911 59.820, 124.857 59.884 C 129.180 59.978, 130.103 60.290, 129.638 61.500 C 128.688 63.977, 130.032 66.125, 132.118 65.462 C 133.421 65.049, 134 65.354, 134 66.452 C 134 67.645, 133.380 67.882, 131.500 67.411 C 129.960 67.024, 129 67.209, 129 67.892 C 129 68.501, 129.675 69, 130.500 69 C 132.590 69, 132.396 69.792, 129.319 73.827 C 126.590 77.404, 127.685 77.337, 131.750 73.677 L 134 71.651 134 74.909 C 134 79.365, 136.465 78.425, 136.610 73.914 C 136.670 72.036, 136.835 70.050, 136.975 69.500 C 137.115 68.950, 137.156 67.749, 137.066 66.831 C 136.946 65.613, 137.456 65.306, 138.951 65.697 C 140.756 66.169, 141.018 65.743, 141.150 62.117 C 141.233 59.852, 141.345 57.438, 141.400 56.750 C 141.455 56.063, 140.825 55.500, 140 55.500 C 138.978 55.500, 138.309 56.933, 137.900 60 L 137.300 64.500 137.150 60.719 C 136.999 56.906, 136.739 56.658, 131.750 55.564 C 129.543 55.081, 129 55.318, 129 56.767 C 129 57.857, 128.267 58.571, 127.147 58.571 C 126.128 58.571, 125.340 57.929, 125.397 57.143 C 125.454 56.358, 124.938 55.517, 124.250 55.274 C 123.518 55.016, 123 55.667, 123 56.843 M 132 58.500 C 132 59.325, 132.450 60, 133 60 C 133.550 60, 134 59.325, 134 58.500 C 134 57.675, 133.550 57, 133 57 C 132.450 57, 132 57.675, 132 58.500 M 163 62 C 163 63.556, 163.667 64, 166 64 C 167.650 64, 169 63.550, 169 63 C 169 62.450, 167.848 62, 166.441 62 C 164.990 62, 164.149 61.567, 164.500 61 C 164.840 60.450, 164.641 60, 164.059 60 C 163.477 60, 163 60.900, 163 62 M 123.733 61.782 C 122.211 61.977, 121.225 62.555, 121.542 63.068 C 122.296 64.288, 128 64.280, 128 63.059 C 128 61.711, 126.889 61.379, 123.733 61.782 M 132 62.441 C 132 63.298, 132.450 64, 133 64 C 133.550 64, 134 63.577, 134 63.059 C 134 62.541, 133.550 61.840, 133 61.500 C 132.450 61.160, 132 61.584, 132 62.441 M 171.243 64.421 C 171.120 66.053, 171.276 66.171, 172.004 64.994 C 172.573 64.073, 174.069 63.634, 175.960 63.832 C 177.721 64.017, 179 63.681, 179 63.035 C 179 62.370, 177.463 62.010, 175.199 62.143 C 172.164 62.322, 171.367 62.781, 171.243 64.421 M 121 66 C 121 66.550, 121.500 67, 122.111 67 C 122.722 67, 122.242 67.793, 121.045 68.762 C 119.193 70.262, 119.024 70.932, 119.910 73.262 C 121.119 76.444, 124.920 77.011, 127.128 74.339 C 128.375 72.830, 128.307 72.799, 126.382 73.997 C 123.383 75.865, 120.983 74.636, 121.081 71.281 L 121.162 68.500 122.437 71.387 C 123.264 73.260, 123.969 73.859, 124.442 73.093 C 124.844 72.444, 124.628 71.257, 123.964 70.456 C 123.002 69.297, 123.046 69, 124.178 69 C 124.960 69, 126.140 69.540, 126.800 70.200 C 127.582 70.982, 128 71.025, 128 70.322 C 128 69.729, 126.987 68.502, 125.750 67.594 L 123.500 65.945 125.750 66.540 C 127.050 66.883, 128 66.684, 128 66.067 C 128 65.480, 126.425 65, 124.500 65 C 122.575 65, 121 65.450, 121 66 M 139.500 68 C 139.840 68.550, 140.541 69, 141.059 69 C 141.577 69, 142 68.550, 142 68 C 142 67.450, 141.298 67, 140.441 67 C 139.584 67, 139.160 67.450, 139.500 68 M 138.158 72.115 C 139.027 73.427, 140.473 74.645, 141.369 74.823 C 144.184 75.381, 143.145 73.126, 139.788 71.391 L 136.577 69.730 138.158 72.115 M 156 86.241 C 156 100.931, 156.604 103.429, 159.872 102.263 C 160.767 101.943, 161.185 102.030, 160.801 102.457 C 160.416 102.883, 158.616 103.601, 156.801 104.052 L 153.500 104.872 157.488 104.686 C 161.233 104.511, 161.512 104.284, 162.046 100.966 C 162.359 99.022, 162.913 96.950, 163.277 96.360 C 163.642 95.771, 164.021 92.807, 164.120 89.775 C 164.282 84.813, 164.637 83.992, 167.662 81.579 C 171.883 78.210, 172.464 79.270, 171.764 89.060 C 171.377 94.459, 171.566 96, 172.614 96 C 174.243 96, 174.800 93.624, 175.251 84.750 C 175.588 78.127, 175.548 78, 173.097 78 C 171.155 78, 170.867 77.733, 171.800 76.800 C 173.527 75.073, 173.279 74, 171.152 74 C 169.907 74, 168.755 75.388, 167.625 78.250 C 166.353 81.473, 165.730 82.152, 165.047 81.059 C 164.472 80.140, 164.652 78.640, 165.543 76.918 C 166.805 74.477, 166.763 74.171, 165.111 73.739 C 163.653 73.358, 162.936 74.298, 161.572 78.381 C 160.632 81.196, 159.595 84.175, 159.268 85 C 158.759 86.287, 158.910 86.306, 160.337 85.128 C 161.822 83.902, 161.989 84.062, 161.900 86.628 C 161.786 89.910, 160.259 95.272, 160.084 93 C 159.982 91.667, 159.862 91.667, 159 93 C 157.964 94.603, 157.604 89.800, 157.938 78.843 C 158.033 75.732, 157.636 72.893, 157.056 72.534 C 156.334 72.088, 156 76.419, 156 86.241 M 177.931 77.250 C 177.133 80.145, 177.342 82.917, 178.316 82.362 C 181.518 80.540, 182.031 79.743, 180.890 78.367 C 179.904 77.179, 178.135 76.511, 177.931 77.250 M 167.387 85.750 C 167.085 86.713, 166.407 88.571, 165.881 89.879 C 164.282 93.859, 165.702 93.433, 168.428 89.114 C 171.432 84.355, 171.504 84, 169.469 84 C 168.626 84, 167.690 84.787, 167.387 85.750 M 178.525 89.750 C 179.918 93.802, 181.263 94.587, 181.824 91.676 C 182.160 89.931, 179.486 86, 177.963 86 C 177.563 86, 177.816 87.688, 178.525 89.750 M 35.306 91.645 C 34.332 94.184, 39.964 97.559, 41.324 95.250 C 41.566 94.838, 41.383 93.487, 40.915 92.250 C 39.916 89.606, 36.241 89.209, 35.306 91.645 M 138 92 C 136.718 92.828, 136.754 92.972, 138.250 92.985 C 139.213 92.993, 140 92.550, 140 92 C 140 90.780, 139.887 90.780, 138 92 M 109.079 94.583 C 109.127 95.748, 109.364 95.985, 109.683 95.188 C 109.972 94.466, 109.936 93.603, 109.604 93.271 C 109.272 92.939, 109.036 93.529, 109.079 94.583 M 128 93.969 C 128 94.501, 128.675 94.678, 129.500 94.362 C 130.325 94.045, 131 93.609, 131 93.393 C 131 93.177, 130.325 93, 129.500 93 C 128.675 93, 128 93.436, 128 93.969 M 158 96 C 158 96.550, 158.675 97, 159.500 97 C 160.325 97, 161 96.550, 161 96 C 161 95.450, 160.325 95, 159.500 95 C 158.675 95, 158 95.450, 158 96 M 137 97.562 C 137 98.353, 137.900 99, 139 99 C 140.100 99, 141 98.421, 141 97.713 C 141 97.005, 140.100 96.358, 139 96.275 C 137.857 96.189, 137 96.741, 137 97.562 M 128 98.969 C 128 100.308, 128.480 100.753, 129.500 100.362 C 130.325 100.045, 131 99.159, 131 98.393 C 131 97.627, 130.325 97, 129.500 97 C 128.675 97, 128 97.885, 128 98.969 M 44.624 100.537 C 43.773 102.756, 45.057 104.486, 47.614 104.565 C 49.403 104.620, 49.623 104.236, 49.042 102.065 C 48.246 99.088, 45.539 98.152, 44.624 100.537 M 119 100.500 C 119 101.325, 119.675 102, 120.500 102 C 121.325 102, 122 101.325, 122 100.500 C 122 99.675, 121.325 99, 120.500 99 C 119.675 99, 119 99.675, 119 100.500 M 150 102 C 150 103.100, 150.422 104, 150.938 104 C 151.454 104, 151.808 103.100, 151.725 102 C 151.642 100.900, 151.220 100, 150.787 100 C 150.354 100, 150 100.900, 150 102 M 137.667 101.667 C 137.300 102.033, 137 103.158, 137 104.167 C 137 105.225, 136.282 106, 135.300 106 C 134.242 106, 133.959 106.348, 134.550 106.923 C 135.072 107.431, 136.738 107.603, 138.250 107.306 C 140.489 106.867, 141 106.231, 141 103.883 C 141 101.172, 139.295 100.038, 137.667 101.667 M 127.919 102.250 C 127.874 102.388, 127.750 103.669, 127.642 105.098 C 127.488 107.148, 127.825 107.597, 129.239 107.227 C 131.538 106.626, 132.159 105.579, 131.396 103.590 C 130.903 102.305, 128.235 101.277, 127.919 102.250 M 53.011 104 C 52.875 104.825, 52.809 105.815, 52.865 106.201 C 52.921 106.586, 50.725 106.636, 47.984 106.312 C 43.298 105.757, 43 105.857, 43 107.988 C 43 110.105, 43.329 110.223, 48 109.774 L 53 109.294 53.150 113.147 C 53.232 115.266, 53.345 117.563, 53.400 118.250 C 53.463 119.037, 51.648 119.685, 48.500 120 C 43.868 120.463, 43.476 120.713, 43.170 123.391 C 42.845 126.240, 42.897 126.272, 46.847 125.641 C 50.161 125.111, 50.923 125.302, 51.257 126.750 C 51.488 127.752, 52.394 126.076, 53.378 122.830 C 54.781 118.199, 54.927 115.814, 54.177 109.830 C 53.672 105.798, 53.147 103.175, 53.011 104 M 118 106.073 C 118 107.504, 118.539 108.043, 119.739 107.812 C 122.345 107.310, 122.636 104, 120.073 104 C 118.642 104, 118 104.642, 118 106.073 M 163.697 105.393 C 163.288 106.434, 163.189 107.522, 163.476 107.810 C 164.389 108.722, 165.191 107.227, 164.809 105.328 C 164.459 103.588, 164.405 103.591, 163.697 105.393 M 37 108 C 37 108.550, 38.125 109, 39.500 109 C 40.875 109, 42 108.550, 42 108 C 42 107.450, 40.875 107, 39.500 107 C 38.125 107, 37 107.450, 37 108 M 110 113 C 110 113.550, 110.477 114, 111.059 114 C 111.641 114, 111.840 113.550, 111.500 113 C 111.160 112.450, 110.684 112, 110.441 112 C 110.198 112, 110 112.450, 110 113 M 156.882 118.750 C 156.816 119.162, 156.828 119.871, 156.906 120.324 C 156.985 120.778, 156.585 120.862, 156.018 120.511 C 154.811 119.765, 154.212 121.186, 153.731 125.936 C 153.144 131.741, 151.405 130.504, 151.678 124.475 C 151.831 121.104, 151.551 119.159, 150.965 119.522 C 149.671 120.321, 149.705 136, 151 136 C 151.550 136, 152 134.875, 152 133.500 C 152 132.125, 152.470 131, 153.044 131 C 153.618 131, 154.015 131.563, 153.925 132.250 C 153.836 132.938, 153.816 135.188, 153.882 137.250 C 153.998 140.939, 154.066 141, 158 141 C 161.795 141, 162 140.843, 162 137.941 C 162 136.249, 162.427 135.146, 162.956 135.473 C 163.482 135.798, 163.781 136.612, 163.620 137.282 C 163.459 137.952, 163.517 138.162, 163.747 137.750 C 164.566 136.286, 166.083 137.027, 165.794 138.750 C 165.595 139.931, 166.150 140.500, 167.500 140.500 C 169.363 140.500, 169.521 139.729, 169.813 129.250 C 170.116 118.325, 169.592 116.377, 167.142 119.328 C 165.764 120.989, 165.170 124.141, 165.074 130.289 C 165.012 134.319, 164.781 134.874, 163.618 133.789 C 162.858 133.080, 162.356 131.150, 162.503 129.500 C 162.650 127.850, 162.536 124.588, 162.249 122.250 C 161.801 118.595, 161.397 118, 159.364 118 C 158.064 118, 156.947 118.338, 156.882 118.750 M 136.401 121.397 C 136.106 122.165, 135.949 123.403, 136.051 124.147 C 136.153 124.891, 136.177 126.400, 136.103 127.500 C 136 129.042, 135.769 129.184, 135.096 128.121 C 134.504 127.187, 134.054 128.313, 133.699 131.621 C 132.676 141.136, 132.681 141.150, 136.808 140.807 L 140.500 140.500 140.785 130.250 C 141.057 120.465, 140.976 120, 139.004 120 C 137.867 120, 136.696 120.629, 136.401 121.397 M 37.500 122 C 37.160 122.550, 37.696 123.036, 38.691 123.079 C 39.740 123.125, 39.975 123.370, 39.250 123.662 C 37.509 124.365, 37.684 126, 39.500 126 C 40.433 126, 41 125.056, 41 123.500 C 41 120.988, 38.727 120.014, 37.500 122 M 127 124 C 127 125.650, 126.564 127, 126.031 127 C 125.499 127, 125.322 126.325, 125.638 125.500 C 125.955 124.675, 125.716 124, 125.107 124 C 124.429 124, 123.950 126.424, 123.872 130.250 C 123.802 133.688, 123.640 137.483, 123.512 138.685 C 123.308 140.603, 123.752 140.864, 127.140 140.818 C 130.916 140.765, 132.549 138.792, 129.750 137.662 C 128.750 137.259, 128.750 137.142, 129.750 137.079 C 130.438 137.036, 131 135.905, 131 134.566 C 131 132.679, 130.383 132.039, 128.250 131.716 L 125.500 131.300 128.250 131.150 C 130.863 131.007, 131 130.752, 131 126 C 131 121.667, 130.733 121, 129 121 C 127.444 121, 127 121.667, 127 124 M 117 123.559 C 117 124.416, 116.550 124.840, 116 124.500 C 115.138 123.967, 114.750 128.005, 114.750 137.500 C 114.750 140.768, 115.117 141.115, 118.250 140.813 L 121.500 140.500 121.811 133.835 C 122.079 128.089, 121.872 127.105, 120.311 126.701 C 118.653 126.272, 118.648 126.222, 120.250 126.116 C 121.295 126.047, 122 125.194, 122 124 C 122 122.533, 121.333 122, 119.500 122 C 117.902 122, 117 122.563, 117 123.559 M 167.343 129.500 C 167.346 133.900, 167.522 135.576, 167.733 133.224 C 167.945 130.872, 167.942 127.272, 167.727 125.224 C 167.512 123.176, 167.339 125.100, 167.343 129.500 M 135 131.500 C 135 132.325, 135.177 133, 135.393 133 C 135.609 133, 136.045 132.325, 136.362 131.500 C 136.678 130.675, 136.501 130, 135.969 130 C 135.436 130, 135 130.675, 135 131.500 M 52.232 135 C 52.232 136.925, 52.438 137.713, 52.689 136.750 C 52.941 135.787, 52.941 134.213, 52.689 133.250 C 52.438 132.287, 52.232 133.075, 52.232 135 M 23 137.559 C 23 138.416, 23.450 138.840, 24 138.500 C 24.550 138.160, 25 137.459, 25 136.941 C 25 136.423, 24.550 136, 24 136 C 23.450 136, 23 136.702, 23 137.559 M 150 138.559 C 150 139.416, 150.457 139.835, 151.016 139.490 C 151.575 139.144, 151.774 138.443, 151.457 137.931 C 150.600 136.544, 150 136.802, 150 138.559 M 108 139 C 108 139.550, 108.413 140, 108.918 140 C 109.423 140, 110.548 140.273, 111.418 140.607 C 112.456 141.005, 113 140.662, 113 139.607 C 113 138.560, 112.130 138, 110.500 138 C 109.125 138, 108 138.450, 108 139 M 133.738 144.692 C 131.499 145.276, 132.486 147, 135.059 147 C 136.127 147, 137 146.325, 137 145.500 C 137 143.960, 136.765 143.902, 133.738 144.692 M 151.702 145.667 C 151.984 146.400, 152.616 147, 153.107 147 C 153.598 147, 154 146.400, 154 145.667 C 154 144.933, 153.368 144.333, 152.595 144.333 C 151.823 144.333, 151.421 144.933, 151.702 145.667 M 50.204 148.045 C 49.431 149.283, 49.365 150, 50.023 150 C 50.595 150, 51.329 149.306, 51.655 148.457 C 52.555 146.111, 51.583 145.836, 50.204 148.045 M 138.500 147 C 138.840 147.550, 139.316 148, 139.559 148 C 139.802 148, 140 147.550, 140 147 C 140 146.450, 139.523 146, 138.941 146 C 138.359 146, 138.160 146.450, 138.500 147 M 29.500 149.512 C 35 150.180, 38.539 150.788, 37.365 150.864 C 34.442 151.050, 25.436 153.836, 20.079 156.211 C 14.646 158.620, 15.059 158.955, 28.500 163.059 C 34 164.738, 39.063 166.298, 39.750 166.525 C 40.691 166.835, 41 164.597, 41 157.469 L 41 148 30.250 148.148 L 19.500 148.297 29.500 149.512 M 43.390 149.427 C 42.570 151.564, 43.357 155.573, 44.484 155 C 45.025 154.725, 45.343 153.768, 45.192 152.873 C 45.040 151.978, 45.610 150.980, 46.458 150.654 C 47.306 150.329, 48 149.599, 48 149.031 C 48 147.459, 44.013 147.802, 43.390 149.427 M 194 150.594 C 194 151.367, 193.031 152, 191.847 152 L 189.694 152 191.928 153.938 C 193.157 155.003, 194.806 155.628, 195.594 155.326 C 196.381 155.023, 197.720 155.353, 198.570 156.058 C 199.898 157.160, 200.067 157.001, 199.782 154.920 C 199.329 151.626, 198.397 150.337, 196.016 149.714 C 194.700 149.370, 194 149.676, 194 150.594 M 43 163.985 C 43 166.987, 43.453 168.009, 45 168.500 C 46.159 168.868, 47 170.013, 47 171.222 C 47 173.182, 47.112 173.209, 48.831 171.653 C 49.838 170.741, 50.975 170.308, 51.357 170.690 C 51.739 171.072, 53.043 171.536, 54.254 171.721 C 57.442 172.208, 58.819 173.871, 56.992 175.026 C 55.878 175.731, 56.323 175.973, 58.750 175.985 C 60.538 175.993, 62 176.498, 62 177.107 C 62 177.716, 62.675 177.955, 63.500 177.638 C 64.325 177.322, 65 177.389, 65 177.787 C 65 178.185, 66.575 179.004, 68.500 179.606 C 70.425 180.209, 72 180.310, 72 179.832 C 72 179.353, 73.237 179.232, 74.750 179.562 C 76.868 180.024, 77.155 179.917, 76 179.096 C 74.982 178.373, 74.902 178.026, 75.750 178.015 C 76.438 178.007, 76.993 177.213, 76.985 176.250 C 76.971 174.738, 76.823 174.704, 75.898 176 C 75.023 177.225, 74.909 177.116, 75.279 175.407 C 75.815 172.922, 73.242 171, 69.381 171 C 67.925 171, 66.001 170.154, 65.104 169.120 C 63.406 167.162, 55.328 164, 52.024 164 C 50.976 164, 49.867 163.594, 49.561 163.098 C 49.254 162.603, 47.653 161.726, 46.002 161.150 C 43.002 160.105, 43 160.107, 43 163.985 M 192.813 160.683 C 193.534 160.972, 194.397 160.936, 194.729 160.604 C 195.061 160.272, 194.471 160.036, 193.417 160.079 C 192.252 160.127, 192.015 160.364, 192.813 160.683 M 129.710 163 C 129.423 164.100, 129.270 165, 129.371 165 C 129.473 165, 130.326 164.100, 131.268 163 C 132.579 161.469, 132.659 161, 131.607 161 C 130.851 161, 129.998 161.900, 129.710 163 M 75 170.393 C 75 170.609, 75.698 171.054, 76.552 171.382 C 77.442 171.723, 77.843 171.555, 77.493 170.989 C 76.906 170.038, 75 169.583, 75 170.393 M 195.750 173.484 C 194.238 174.815, 193 176.402, 193 177.011 C 193 177.620, 192.550 177.840, 192 177.500 C 191.450 177.160, 191 177.310, 191 177.834 C 191 178.642, 193.239 180, 194.570 180 C 194.794 180, 194.869 178.988, 194.738 177.750 C 194.564 176.103, 194.964 175.578, 196.234 175.790 C 197.528 176.007, 197.798 175.626, 197.297 174.290 C 196.707 172.718, 196.831 172.667, 198.313 173.872 C 199.797 175.080, 200 174.989, 200 173.122 C 200 170.413, 199.157 170.485, 195.750 173.484 M 68 173.107 C 68 173.718, 68.728 173.935, 69.627 173.590 C 70.521 173.246, 71.984 173.536, 72.877 174.233 C 74.320 175.360, 74.348 175.306, 73.128 173.750 C 71.611 171.816, 68 171.363, 68 173.107 M 79.332 176.925 C 79.199 180.831, 79.462 181.760, 80.582 181.330 C 82.335 180.658, 82.438 175.979, 80.750 173.679 C 79.684 172.226, 79.475 172.703, 79.332 176.925 M 65 175 C 65 175.550, 65.702 176, 66.559 176 C 67.416 176, 67.840 175.550, 67.500 175 C 67.160 174.450, 66.459 174, 65.941 174 C 65.423 174, 65 174.450, 65 175 M 70.619 175.808 C 69.835 177.076, 71.449 178.960, 72.666 178.197 C 73.456 177.702, 73.391 177.141, 72.442 176.260 C 71.707 175.578, 70.887 175.374, 70.619 175.808 M 196 180.059 C 196 180.641, 196.450 180.840, 197 180.500 C 197.550 180.160, 198 179.684, 198 179.441 C 198 179.198, 197.550 179, 197 179 C 196.450 179, 196 179.477, 196 180.059" stroke="none" fill="#c7d4d8" fill-rule="evenodd"/>
</svg>