<svg xmlns="http://www.w3.org/2000/svg" width="200" height="218" viewBox="0 0 200 218" version="1.1">
	<rect x="0" y="0" width="100%" height="100%" fill="#fff" />
	<path d="M 0 109.005 L 0 218.010 100.250 217.755 L 200.500 217.500 200.754 108.750 L 201.009 0 100.504 0 L 0 0 0 109.005 M 0.482 109.500 C 0.482 169.450, 0.603 194.122, 0.750 164.327 C 0.897 134.531, 0.897 85.481, 0.750 55.327 C 0.603 25.172, 0.483 49.550, 0.482 109.500 M 124 22.941 C 124 23.459, 124.445 24.157, 124.989 24.493 C 125.555 24.843, 125.723 24.442, 125.382 23.552 C 124.717 21.820, 124 21.503, 124 22.941 M 191.552 33.001 C 191.581 38.500, 191.283 43, 190.890 43 C 190.497 43, 189.853 44.911, 189.458 47.247 C 189.058 49.616, 187.914 52.072, 186.870 52.803 C 184.741 54.295, 184.384 58.280, 186.250 59.719 C 186.938 60.250, 189.443 61.438, 191.818 62.361 L 196.135 64.038 195.908 57.012 C 195.782 53.148, 195.977 49.690, 196.340 49.327 C 196.703 48.964, 197 42.892, 197 35.833 L 197 23 194.250 23.001 L 191.500 23.001 191.552 33.001 M 149.015 29.698 C 149.062 32.163, 151.011 33.209, 154.872 32.841 C 157.133 32.625, 159.183 32.910, 159.428 33.474 C 159.673 34.038, 159.746 33.375, 159.591 32 C 159.336 29.739, 158.816 29.471, 154.155 29.198 C 151.320 29.031, 149.007 29.256, 149.015 29.698 M 166.272 34.885 C 163.160 36.442, 163.043 36.723, 163.022 42.691 C 163.010 46.096, 163.461 49.167, 164.024 49.515 C 165.714 50.559, 170.667 49.024, 170.667 47.457 C 170.667 45.670, 169.821 45.603, 168.078 47.250 C 166.987 48.281, 166.953 48.115, 167.883 46.306 C 168.503 45.099, 169.458 43.835, 170.005 43.497 C 171.602 42.510, 171.152 41.003, 169.250 40.968 C 167.716 40.940, 167.686 40.786, 169.006 39.718 C 170.464 38.539, 171.445 32.862, 170.144 33.135 C 169.790 33.210, 168.047 33.997, 166.272 34.885 M 124.015 37.971 C 122.902 40.051, 122.643 45.310, 123.607 46.273 C 125.093 47.759, 126.700 44.442, 125.880 41.582 C 124.637 37.247, 125.262 37.544, 127.919 42.553 C 130.387 47.206, 132.660 48.829, 130.656 44.508 C 130.020 43.137, 129.162 42.012, 128.750 42.008 C 128.338 42.004, 128 40.923, 128 39.607 C 128 36.540, 125.361 35.457, 124.015 37.971 M 147.229 57.653 C 143.803 61.381, 141 65.010, 141 65.716 C 141 66.517, 139.683 67, 137.500 67 C 135.575 67, 133.703 67.112, 133.339 67.250 C 132.976 67.388, 132.188 66.070, 131.589 64.322 C 130.127 60.056, 129.632 59.702, 126.174 60.462 C 123.657 61.015, 123.137 61.675, 122.754 64.807 C 122.158 69.675, 122.693 70.867, 125.320 70.526 C 126.519 70.370, 130.425 69.903, 134 69.488 C 142.045 68.553, 144.981 67.111, 148.673 62.280 C 156.552 51.969, 155.512 48.637, 147.229 57.653 M 161.619 51.807 C 161.345 52.251, 161.284 53.489, 161.484 54.557 C 161.683 55.626, 161.881 58.143, 161.923 60.152 C 161.990 63.321, 162.417 63.950, 165.149 64.902 C 169.025 66.253, 168.569 66.288, 170.357 64.500 C 171.690 63.167, 172.035 63.177, 173.454 64.597 C 174.333 65.476, 175.715 65.940, 176.526 65.629 C 178.592 64.836, 178.372 62.849, 176.258 63.206 C 174.950 63.427, 174.389 62.629, 174.008 60 C 173.625 57.364, 172.962 56.423, 171.323 56.190 C 170.125 56.019, 168.607 55.232, 167.950 54.440 C 166.976 53.266, 167.136 53, 168.819 53 C 169.953 53, 171.160 52.550, 171.500 52 C 171.881 51.384, 170.197 51, 167.118 51 C 164.368 51, 161.894 51.363, 161.619 51.807 M 141.890 57.250 C 140.715 59.488, 140.720 59.490, 142.854 57.595 C 145.238 55.479, 145.456 55, 144.035 55 C 143.505 55, 142.539 56.013, 141.890 57.250 M 113.724 67.493 C 105.458 69.766, 105.470 69.757, 107.456 71.952 C 109.271 73.956, 112.633 74.302, 114.750 72.701 C 116.263 71.556, 116.447 73.744, 115.026 75.992 C 114.275 77.180, 113.830 77.230, 112.842 76.242 C 111.180 74.580, 109.656 74.662, 110.315 76.378 C 110.606 77.136, 110.346 78.254, 109.739 78.861 C 109.131 79.469, 108.921 80.255, 109.274 80.607 C 110.174 81.508, 113.239 80.195, 112.610 79.178 C 112.210 78.530, 114.890 78.363, 116.785 78.917 C 116.942 78.963, 116.560 79.954, 115.935 81.121 C 115.044 82.787, 115.070 83.075, 116.058 82.464 C 116.985 81.891, 117.153 82.306, 116.699 84.042 C 116.361 85.336, 116.565 86.976, 117.154 87.685 C 118.981 89.887, 117.245 91.999, 111.411 94.669 C 104.778 97.706, 102.632 101.481, 103.165 109.172 C 103.349 111.828, 103.162 114.001, 102.750 114.001 C 101.669 114, 101.826 103.093, 102.964 99.125 C 105.441 90.489, 93.095 81.991, 83.585 85.784 C 80.799 86.895, 80.177 87.518, 81.167 88.205 C 82.078 88.838, 81.792 88.932, 80.262 88.502 C 77.594 87.752, 72.046 90.714, 71.901 92.966 C 71.847 93.810, 71.620 96.686, 71.398 99.358 C 71.039 103.667, 71.192 104.138, 72.747 103.526 C 73.711 103.146, 76.768 102.594, 79.540 102.299 C 85.887 101.625, 93.678 104.730, 98.007 109.661 C 101.779 113.957, 101.770 115, 97.960 115 L 94.919 115 95.210 123.250 C 95.480 130.942, 95.652 131.522, 97.750 131.820 C 99.528 132.072, 100.001 131.652, 100.003 129.820 C 100.005 127.857, 100.536 127.489, 103.453 127.427 C 105.348 127.387, 106.668 127.728, 106.385 128.186 C 105.531 129.567, 107.039 133, 108.500 133 C 109.251 133, 110.144 132.123, 110.484 131.051 C 111.253 128.626, 114 129.451, 114 132.107 C 114 133.548, 114.724 134, 117.031 134 C 120.543 134, 122.190 131.343, 119.774 129.577 C 118.389 128.564, 118.425 128.193, 120.112 126.111 C 122.434 123.242, 122.525 120.238, 120.362 117.847 C 119.027 116.372, 118.957 115.757, 119.984 114.519 C 120.956 113.348, 120.975 112.674, 120.067 111.580 C 119.193 110.528, 119.070 104.454, 119.590 88.080 C 119.999 75.203, 119.918 66.037, 119.396 66.089 C 118.903 66.139, 116.351 66.770, 113.724 67.493 M 151.028 68.820 C 145.886 69.605, 144.500 71.558, 144.500 78.021 C 144.500 81.309, 144.786 83.999, 145.135 84 C 146.320 84, 149.155 78.845, 148.667 77.575 C 148.333 76.704, 148.935 76.456, 150.606 76.775 C 152.522 77.142, 152.899 76.900, 152.407 75.619 C 152.065 74.728, 152.284 74, 152.893 74 C 153.502 74, 154 73.277, 154 72.393 C 154 71.375, 154.550 70.997, 155.500 71.362 C 156.325 71.678, 157 71.610, 157 71.209 C 157 69.841, 153.503 68.442, 151.028 68.820 M 191.491 79.014 C 191.146 79.572, 189.029 80.965, 186.786 82.109 C 184.544 83.253, 181.537 85.277, 180.104 86.606 C 178.672 87.935, 176.713 89.272, 175.750 89.578 C 174.787 89.884, 174 90.506, 174 90.960 C 174 92.337, 177.131 93.134, 184.905 93.737 C 190.703 94.187, 192.142 94.040, 191.535 93.056 C 190.935 92.085, 191.209 92.042, 192.748 92.865 C 193.842 93.451, 195.021 93.645, 195.369 93.298 C 195.716 92.951, 196 89.367, 196 85.333 C 196 78.741, 195.804 78, 194.059 78 C 192.991 78, 191.836 78.456, 191.491 79.014 M 168.100 96.018 C 165.679 97.658, 163.317 99, 162.850 99 C 161.844 99, 161.697 104.364, 162.676 105.342 C 163.048 105.714, 164.398 105.036, 165.676 103.835 C 166.954 102.634, 168 101.966, 168 102.351 C 168 102.736, 169.335 102.361, 170.966 101.518 C 172.900 100.518, 173.732 99.465, 173.359 98.492 C 172.943 97.410, 173.486 97, 175.334 97 C 179.138 97, 179.432 95.346, 175.850 94.097 C 172.086 92.785, 173.323 92.479, 168.100 96.018 M 124.710 97 C 124.998 98.100, 125.620 99, 126.092 99 C 126.564 99, 126.691 100.295, 126.374 101.878 L 125.799 104.756 135.221 104.915 C 140.403 105.003, 145.370 104.795, 146.258 104.454 C 149.138 103.349, 146.983 101.225, 142.266 100.517 C 139.737 100.138, 135.211 98.741, 132.209 97.414 C 125.501 94.447, 124.021 94.365, 124.710 97 M 192.813 96.683 C 193.534 96.972, 194.397 96.936, 194.729 96.604 C 195.061 96.272, 194.471 96.036, 193.417 96.079 C 192.252 96.127, 192.015 96.364, 192.813 96.683 M 138.500 98 C 140.150 98.420, 142.625 98.810, 144 98.866 C 145.962 98.947, 146.177 98.761, 145 98 C 144.175 97.467, 141.700 97.077, 139.500 97.134 C 135.647 97.233, 135.610 97.265, 138.500 98 M 72.667 104.667 C 72.300 105.033, 72 105.954, 72 106.712 C 72 107.759, 72.902 107.928, 75.750 107.413 C 80.318 106.587, 80.874 106.164, 78.971 104.961 C 77.253 103.875, 73.628 103.705, 72.667 104.667 M 137 118.500 C 137 126.333, 137.157 127, 139 127 C 140.843 127, 141 126.333, 141 118.500 C 141 110.667, 140.843 110, 139 110 C 137.157 110, 137 110.667, 137 118.500 M 123 115.440 C 123 119.848, 123.026 119.881, 126.750 120.190 C 129.279 120.399, 130.500 120.989, 130.500 122 C 130.500 123.087, 129.467 123.469, 126.750 123.386 C 123.730 123.294, 123 123.631, 123 125.117 C 123 129.422, 132.437 128.515, 134.691 123.993 C 136.286 120.794, 134.406 117.636, 130.637 117.184 C 126.750 116.717, 127.429 115, 131.500 115 C 134.333 115, 135 114.619, 135 113 C 135 111.222, 134.333 111, 129 111 L 123 111 123 115.440 M 142.725 112.942 C 142.038 115.571, 142.747 116.047, 145.687 114.929 C 148.247 113.955, 150 114.415, 150 116.059 C 150 116.577, 149.100 117, 148 117 C 146.667 117, 146 117.667, 146 119 C 146 120.333, 146.667 121, 148 121 C 149.183 121, 150 121.667, 150 122.632 C 150 123.958, 149.252 124.163, 146 123.727 C 142.575 123.267, 142 123.458, 142 125.050 C 142 127.653, 148.433 128.827, 151.942 126.864 C 154.684 125.330, 155.799 121.668, 154.134 119.661 C 153.494 118.890, 153.459 117.888, 154.042 116.966 C 155.318 114.949, 155.238 114.381, 153.429 112.571 C 152.486 111.629, 150.132 111, 147.545 111 C 144.117 111, 143.129 111.398, 142.725 112.942 M 60.397 116.593 C 60.733 117.469, 61.281 119.272, 61.615 120.601 C 62.130 122.654, 61.888 122.977, 60.002 122.758 C 58.638 122.599, 57.343 123.271, 56.641 124.500 C 56.014 125.600, 55.097 126.792, 54.604 127.149 C 53.473 127.969, 58.412 133, 60.348 133 C 61.139 133, 62.045 132.325, 62.362 131.500 C 62.678 130.675, 63.626 130, 64.469 130 C 65.311 130, 66 129.550, 66 129 C 66 128.450, 66.697 128, 67.548 128 C 68.400 128, 69.667 126.643, 70.365 124.983 C 71.063 123.324, 72.013 122.312, 72.477 122.733 C 72.941 123.155, 73.023 122.979, 72.658 122.342 C 72.294 121.706, 72.418 120.131, 72.935 118.842 C 73.704 116.922, 73.885 117.446, 73.937 121.750 C 73.992 126.312, 74.262 127, 76 127 C 77.528 127, 78.030 126.292, 78.125 124 C 78.339 118.854, 78.460 118.500, 80 118.500 C 81.050 118.500, 81.592 119.776, 81.807 122.750 C 82.056 126.186, 82.487 127, 84.057 127 C 85.652 127, 86 126.294, 86 123.059 C 86 120.891, 86.500 118.809, 87.112 118.431 C 88.828 117.370, 90.124 120.144, 89.599 123.750 C 89.176 126.657, 89.383 127, 91.563 127 C 93.806 127, 93.999 126.622, 93.985 122.250 C 93.976 119.638, 93.639 116.993, 93.235 116.373 C 92.768 115.658, 88.239 115.195, 80.833 115.107 L 69.166 114.967 68.504 117.983 C 67.658 121.835, 66.344 121.843, 65.500 118 C 64.980 115.632, 64.309 115, 62.314 115 C 60.412 115, 59.937 115.395, 60.397 116.593 M 100 121 C 100 122.898, 100.512 124, 101.393 124 C 103.082 124, 104.151 121.557, 103.362 119.500 C 102.318 116.780, 100 117.814, 100 121 M 194.938 121.809 C 192.476 124.473, 193.580 127.137, 196.823 126.360 C 200.423 125.497, 200.495 125.381, 199.184 122.504 C 197.862 119.603, 197.093 119.477, 194.938 121.809 M 51.564 124.293 C 51.940 125.279, 52.499 125.834, 52.807 125.526 C 53.115 125.219, 52.808 124.412, 52.124 123.733 C 51.136 122.753, 51.022 122.868, 51.564 124.293 M 181.750 123.662 C 182.438 123.940, 183.563 123.940, 184.250 123.662 C 184.938 123.385, 184.375 123.158, 183 123.158 C 181.625 123.158, 181.063 123.385, 181.750 123.662 M 167.270 126.931 C 167.350 127.993, 167.752 128.653, 168.164 128.399 C 168.576 128.144, 168.659 127.275, 168.349 126.468 C 167.568 124.432, 167.097 124.634, 167.270 126.931 M 114.813 128.683 C 115.534 128.972, 116.397 128.936, 116.729 128.604 C 117.061 128.272, 116.471 128.036, 115.417 128.079 C 114.252 128.127, 114.015 128.364, 114.813 128.683 M 189.044 130.671 C 186.612 133.763, 187.779 136.258, 190.572 133.940 C 191.484 133.183, 193.151 132.550, 194.277 132.532 C 195.403 132.515, 196.514 131.938, 196.746 131.250 C 196.993 130.515, 196.308 130, 195.083 130 C 193.938 130, 193 129.550, 193 129 C 193 127.187, 191.179 127.956, 189.044 130.671 M 5 136.445 L 5 142.890 9.750 143.195 C 13.732 143.451, 14.500 143.823, 14.500 145.500 C 14.500 147.133, 13.858 147.487, 11 147.427 C 9.075 147.387, 6.713 147.002, 5.750 146.570 C 4.299 145.920, 4 146.296, 4 148.776 C 4 151.032, 4.553 151.915, 6.250 152.370 C 14.379 154.548, 21.040 151.307, 21.217 145.086 C 21.333 140.992, 18.240 138, 13.889 138 C 11.988 138, 11 137.487, 11 136.500 C 11 135.367, 12.222 135, 16 135 C 20.667 135, 21 134.833, 21 132.500 C 21 130.042, 20.867 130, 13 130 L 5 130 5 136.445 M 81.304 131.930 C 75.219 135.690, 74.340 146.758, 79.787 151.052 C 81.898 152.716, 83.385 153.072, 86.490 152.658 C 91.276 152.020, 94 149.076, 94 144.544 C 94 140.292, 91.041 137.637, 86.493 137.808 C 84.572 137.880, 83 137.492, 83 136.945 C 83 135.418, 87.275 134.139, 90.388 134.734 C 92.867 135.208, 93.137 135.003, 92.837 132.883 C 92.554 130.882, 91.858 130.456, 88.500 130.228 C 85.873 130.049, 83.404 130.633, 81.304 131.930 M 146.420 131.145 C 143.827 132.403, 141.013 137.047, 140.961 140.154 C 140.926 142.262, 140.785 142.186, 139.572 139.400 C 137.859 135.465, 136.653 135.040, 129.134 135.722 L 123 136.278 123 147.139 L 123 158 126 158 C 128.605 158, 129 157.638, 129.003 155.250 C 129.006 152.768, 129.361 152.492, 132.657 152.419 C 136.895 152.324, 139.975 149.289, 140.044 145.139 C 140.082 142.855, 140.275 143.025, 141.478 146.400 C 142.242 148.545, 143.460 150.687, 144.184 151.159 C 152.759 156.754, 163.306 147.540, 157.100 139.875 C 155.617 138.044, 154.280 137.553, 151.012 137.638 C 147.321 137.735, 146.998 137.573, 148.297 136.274 C 149.108 135.463, 151.398 134.800, 153.386 134.800 C 156.534 134.800, 157 134.491, 157 132.400 C 157 130.233, 156.588 130.007, 152.750 130.068 C 150.412 130.105, 147.564 130.589, 146.420 131.145 M 38.250 135.727 C 36.709 136.269, 36.490 151.567, 38.009 152.506 C 38.564 152.848, 39.914 152.845, 41.009 152.497 C 42.675 151.968, 43 150.979, 43 146.433 C 43 141.063, 43.035 141, 46 141 C 48.804 141, 49 141.247, 49 144.777 C 49 151.313, 50.880 152.816, 58.990 152.765 L 66 152.721 66 144.477 C 66 137.465, 65.738 136.165, 64.250 135.779 C 60.757 134.873, 60 136.008, 60 142.153 C 60 147.789, 59.868 148.120, 57.750 147.820 C 55.770 147.538, 55.440 146.781, 55 141.500 L 54.500 135.500 49.645 135.689 C 46.974 135.793, 44.565 136.101, 44.292 136.375 C 44.018 136.649, 42.828 136.516, 41.647 136.080 C 40.466 135.644, 38.938 135.485, 38.250 135.727 M 96.260 135.765 L 94.021 136.136 96.510 139.800 C 99.599 144.345, 99.596 144.506, 96.344 148.356 L 93.689 151.500 96.449 151.826 C 98.201 152.034, 100.002 151.407, 101.384 150.109 C 103.481 148.139, 103.601 148.132, 104.711 149.909 C 105.896 151.806, 112 153.357, 112 151.760 C 112 151.269, 110.828 149.330, 109.395 147.452 L 106.791 144.037 109.395 140.942 C 112.178 137.635, 112.713 137.772, 110.854 141.316 C 109.745 143.431, 109.771 143.445, 111.683 141.750 C 112.769 140.787, 113.980 140, 114.374 140 C 114.769 140, 114.958 143.037, 114.796 146.750 C 114.527 152.883, 114.294 153.529, 112.250 153.820 C 110.621 154.051, 110 154.810, 110 156.570 L 110 159 98.500 159 L 87 159 87 163.500 L 87 168 92.500 168 L 98 168 98 180.453 C 98 194.033, 97.047 197.699, 93.268 198.648 C 90.741 199.282, 84.682 198.674, 81.750 197.492 C 80.209 196.870, 80 197.449, 80 202.348 L 80 207.909 83.589 208.583 C 90.199 209.823, 100.663 208.489, 104.398 205.930 C 110.710 201.605, 111 200.387, 111 178.234 L 111 158.277 113.440 158.744 C 115.143 159.069, 116.654 158.437, 118.440 156.651 C 120.804 154.287, 121 153.408, 121 145.162 C 121 135.041, 120.999 135.040, 111.823 135.014 C 108.032 135.003, 106.777 135.468, 105.205 137.466 C 103.406 139.754, 102 139.889, 102 137.774 C 102 137.284, 102.520 137.203, 103.155 137.595 C 103.892 138.051, 104.037 137.868, 103.554 137.088 C 103.139 136.416, 102.561 136.106, 102.268 136.398 C 101.976 136.691, 101.009 136.584, 100.119 136.162 C 99.228 135.739, 97.492 135.561, 96.260 135.765 M 129 144.070 C 129 147.718, 129.233 148.106, 131.250 147.820 C 133.057 147.563, 133.561 146.762, 133.810 143.750 C 134.095 140.312, 133.908 140, 131.560 140 C 129.233 140, 129 140.370, 129 144.070 M 82.451 144.661 C 83.706 149.663, 88.377 150.065, 87.804 145.122 C 87.566 143.066, 86.879 142.429, 84.622 142.171 C 81.919 141.862, 81.787 142.014, 82.451 144.661 M 147 143.418 C 147 146.151, 148.230 148, 150.048 148 C 152.393 148, 153.299 146.517, 152.497 143.991 C 151.756 141.657, 147 141.162, 147 143.418 M 197.303 144.277 C 196.094 144.817, 194.643 146.584, 194.079 148.204 C 193.514 149.824, 192.668 150.913, 192.198 150.622 C 191.728 150.332, 187.946 153.427, 183.792 157.501 L 176.241 164.907 175.609 160.953 C 175.128 157.945, 174.518 157, 173.062 157 C 172.008 157, 170.941 157.787, 170.689 158.750 C 170.396 159.872, 170.190 159.551, 170.116 157.857 C 170.052 156.403, 169.360 154.969, 168.579 154.669 C 167.541 154.270, 167.290 152.961, 167.650 149.812 L 168.143 145.500 165.321 148.086 C 163.770 149.508, 160.439 151.428, 157.919 152.354 C 152.687 154.275, 149.036 157.292, 148.921 159.789 C 148.873 160.832, 148.645 161.012, 148.338 160.250 C 147.996 159.402, 145.366 159.001, 140.167 159.002 L 132.500 159.003 123.750 182.356 C 118.937 195.199, 115 206.224, 115 206.854 C 115 207.596, 117.261 208, 121.420 208 L 127.839 208 129.500 203 L 131.161 198 139.905 198 L 148.649 198 150.121 202.750 L 151.593 207.500 158.742 207.793 L 165.891 208.085 162.851 199.793 C 161.179 195.232, 158.298 187.338, 156.449 182.250 L 153.086 173 157.793 173.009 L 162.500 173.019 166.750 180.243 L 171 187.467 171 197.733 L 171 208 177.500 208 L 184 208 184 197.881 C 184 187.223, 184.148 186.795, 191.846 175.156 C 192.579 174.047, 193.300 174.104, 195.960 175.479 C 197.734 176.397, 199.380 176.953, 199.618 176.716 C 199.855 176.478, 199.926 168.861, 199.775 159.790 L 199.500 143.295 197.303 144.277 M 23.187 149.250 C 23.449 151.966, 23.910 152.500, 26 152.500 C 28.090 152.500, 28.551 151.966, 28.813 149.250 C 29.107 146.209, 28.925 146, 26 146 C 23.075 146, 22.893 146.209, 23.187 149.250 M 68.095 150.250 C 67.422 152.588, 66.646 155.287, 66.369 156.250 C 66.004 157.517, 66.439 158, 67.945 158 C 69.511 158, 70.641 156.608, 72.513 152.376 C 73.881 149.282, 75 146.582, 75 146.376 C 75 146.169, 73.721 146, 72.158 146 C 69.673 146, 69.163 146.534, 68.095 150.250 M 48 158 C 48 160.533, 47.611 161, 45.500 161 C 43.667 161, 43 161.533, 43 163 C 43 164.452, 43.667 165, 45.434 165 C 47.345 165, 47.935 165.590, 48.184 167.750 C 48.372 169.387, 49.107 170.500, 50 170.500 C 50.893 170.500, 51.628 169.387, 51.816 167.750 C 52.065 165.590, 52.655 165, 54.566 165 C 56.333 165, 57 164.452, 57 163 C 57 161.533, 56.333 161, 54.500 161 C 52.389 161, 52 160.533, 52 158 C 52 155.667, 51.556 155, 50 155 C 48.444 155, 48 155.667, 48 158 M 189.638 157.500 C 189.240 158.539, 189.706 159, 191.154 159 C 192.899 159, 193.039 158.752, 192 157.500 C 191.315 156.675, 190.633 156, 190.485 156 C 190.336 156, 189.955 156.675, 189.638 157.500 M 4 159.727 C 4 161.953, 4.227 162, 15 162 C 21.667 162, 26 161.606, 26 161 C 26 160.450, 27.323 160, 28.941 160 C 32.408 160, 34.193 158.029, 30.809 157.938 C 29.539 157.904, 26.587 157.656, 24.250 157.388 C 20.960 157.010, 20 157.231, 20 158.367 C 20 159.173, 20.563 160.060, 21.250 160.338 C 22.190 160.717, 22.167 160.862, 21.156 160.921 C 20.417 160.964, 19.577 160.100, 19.290 159 C 18.605 156.380, 13.361 156.181, 12.689 158.750 C 12.351 160.045, 12.202 160.104, 12.116 158.977 C 12.033 157.887, 10.865 157.455, 8 157.455 C 4.507 157.455, 4 157.742, 4 159.727 M 6.750 159.662 C 7.438 159.940, 8.563 159.940, 9.250 159.662 C 9.938 159.385, 9.375 159.158, 8 159.158 C 6.625 159.158, 6.063 159.385, 6.750 159.662 M 63 166.091 C 64.129 166.890, 64.191 167.278, 63.250 167.659 C 61.267 168.464, 61.798 170, 64.059 170 C 65.191 170, 65.859 169.581, 65.542 169.068 C 65.225 168.556, 66.271 168.787, 67.865 169.582 C 71.336 171.314, 74 170.535, 74 167.788 C 74 166.060, 73.459 165.841, 70 166.171 C 67.800 166.381, 66 166.203, 66 165.776 C 66 165.349, 64.987 165.007, 63.750 165.015 C 61.887 165.028, 61.758 165.213, 63 166.091 M 174 168.132 C 174 169.305, 174.955 171.810, 176.123 173.699 L 178.246 177.133 180.568 173.317 L 182.891 169.500 179.195 167.824 C 174.319 165.613, 174 165.632, 174 168.132 M 79.131 174.209 C 78.072 175.469, 76.137 177.775, 74.833 179.333 L 72.460 182.166 70.575 180.083 C 68.703 178.014, 68.711 178, 71.845 178 C 73.983 178, 75 177.516, 75 176.500 C 75 175.413, 73.882 175, 70.941 175 C 68.490 175, 67.127 174.604, 67.500 174 C 67.840 173.450, 67.443 173, 66.618 173 C 65.793 173, 64.840 173.450, 64.500 174 C 64.160 174.550, 62.559 175, 60.941 175 C 58.993 175, 58 175.507, 58 176.500 C 58 177.325, 58.675 178, 59.500 178 C 61.569 178, 61.377 179.349, 59 181.500 C 56.609 183.664, 56.433 185, 58.539 185 C 59.772 185, 59.673 185.435, 58.039 187.189 C 55.708 189.691, 55.440 191, 57.259 191 C 59.073 191, 61.193 187.184, 60.533 185.105 C 60.196 184.043, 60.777 182.607, 61.986 181.513 C 63.957 179.729, 64 179.747, 64 182.345 C 64 184.122, 64.534 185, 65.615 185 C 67.102 185, 67.102 185.196, 65.615 187.465 C 64.727 188.820, 64 190.170, 64 190.465 C 64 191.677, 66.372 190.878, 67.608 189.250 C 69.174 187.187, 69.436 183, 68 183 C 67.450 183, 67.001 182.213, 67.001 181.250 C 67.002 179.876, 67.610 180.143, 69.829 182.493 C 72.180 184.982, 72.433 185.710, 71.328 186.815 C 69.786 188.357, 69.556 191, 70.965 191 C 72.310 191, 74.462 186.845, 74.157 184.839 C 74.018 183.925, 74.376 182.886, 74.952 182.530 C 75.624 182.114, 76 183.517, 76 186.441 C 76 189.911, 76.374 191, 77.565 191 C 78.853 191, 79.078 189.859, 78.840 184.554 C 78.590 178.975, 78.860 177.778, 80.851 175.659 C 82.270 174.148, 82.750 172.963, 82.104 172.564 C 81.529 172.209, 80.191 172.949, 79.131 174.209 M 85.375 172.843 C 83.950 173.835, 80 179.156, 80 180.083 C 80 180.530, 82.362 181.061, 85.250 181.263 L 90.500 181.630 85.250 181.815 L 80 182 80 185.500 C 80 187.944, 80.452 189, 81.500 189 C 82.325 189, 83 189.540, 83 190.200 C 83 191.133, 83.267 191.133, 84.200 190.200 C 85.779 188.621, 87.319 188.656, 86.387 190.250 C 85.985 190.938, 86.634 190.643, 87.828 189.595 C 89.827 187.842, 90 187.828, 90 189.428 C 90 190.384, 90.563 190.982, 91.250 190.756 C 93.435 190.037, 93.280 182.575, 90.980 177.680 C 88.837 173.122, 87.112 171.633, 85.375 172.843 M 4.607 174.582 C 4.273 175.452, 4 176.352, 4 176.582 C 4 176.812, 7.037 177.085, 10.750 177.189 L 17.500 177.378 11.524 177.746 C 6.203 178.073, 4.063 179.051, 4.015 181.177 C 4.007 181.549, 4.787 182.059, 5.750 182.311 C 7.417 182.746, 7.417 182.774, 5.750 182.884 C 4.787 182.948, 4 183.413, 4 183.918 C 4 184.423, 3.727 185.548, 3.393 186.418 C 2.993 187.460, 3.340 188, 4.407 188 C 5.298 188, 6.980 188.563, 8.144 189.250 C 9.838 190.250, 10.352 190.250, 10.714 189.250 C 10.963 188.563, 12.142 188.036, 13.333 188.079 C 14.525 188.122, 14.938 188.385, 14.250 188.662 C 12.290 189.453, 12.787 191, 15 191 C 16.111 191, 17 190.333, 17 189.500 C 17 188.667, 17.889 188, 19 188 C 20.111 188, 21 187.333, 21 186.500 C 21 185.675, 21.450 185, 22 185 C 22.550 185, 23 185.900, 23 187 C 23 188.111, 22.333 189, 21.500 189 C 20.675 189, 20 189.450, 20 190 C 20 190.550, 21.125 191, 22.500 191 C 24.750 191, 25 190.600, 25 187 C 25 184.111, 25.417 183, 26.500 183 C 27.325 183, 28 182.325, 28 181.500 C 28 178.747, 29.832 179.957, 30.539 183.177 C 31.223 186.294, 30.085 188.075, 26.608 189.327 C 25.999 189.547, 25.809 190.060, 26.188 190.467 C 26.566 190.875, 28.235 190.531, 29.896 189.702 C 32.482 188.412, 33.084 188.397, 34.081 189.597 C 35.736 191.592, 37 191.333, 37 189 C 37 187.889, 36.333 187, 35.500 187 C 33.650 187, 33.650 186.900, 35.494 183.364 C 37.418 179.674, 37.411 175.586, 35.476 173.980 C 33.497 172.337, 32.337 173.497, 33.980 175.476 C 35.025 176.735, 34.963 177, 33.622 177 C 32.667 177, 32 176.178, 32 175 C 32 173.900, 31.550 173, 31 173 C 30.450 173, 30 173.900, 30 175 C 30 176.100, 29.100 177.900, 28 179 C 25.608 181.392, 25 181.494, 25 179.500 C 25 178.675, 25.675 178, 26.500 178 C 27.325 178, 28 177.550, 28 177 C 28 176.450, 27.325 176, 26.500 176 C 25.675 176, 25 175.325, 25 174.500 C 25 173.675, 24.550 173, 24 173 C 23.450 173, 23 173.675, 23 174.500 C 23 175.325, 22.311 176, 21.469 176 C 20.626 176, 19.678 175.325, 19.362 174.500 C 18.510 172.280, 5.463 172.352, 4.607 174.582 M 41 174.500 C 41.685 175.325, 42.955 176, 43.822 176 C 45.049 176, 45.133 176.267, 44.200 177.200 C 42.222 179.178, 42.786 180.859, 45.250 180.332 C 47.336 179.887, 47.373 179.956, 45.750 181.286 C 43.464 183.160, 43.262 191, 45.500 191 C 46.333 191, 47 190.111, 47 189 C 47 187.900, 47.480 187, 48.067 187 C 48.700 187, 48.861 187.864, 48.462 189.118 C 47.977 190.649, 48.166 191.113, 49.145 190.791 C 51.316 190.077, 51.445 185.254, 49.308 184.701 C 47.838 184.320, 47.908 184.210, 49.687 184.116 C 51.441 184.023, 51.935 184.628, 52.187 187.173 C 52.359 188.918, 53.063 190.531, 53.750 190.756 C 54.688 191.064, 55 188.902, 55 182.083 L 55 173 47.378 173 C 40.715 173, 39.912 173.189, 41 174.500 M 137.627 179.251 C 136.597 182.688, 135.532 186.287, 135.260 187.250 C 134.836 188.754, 135.490 189, 139.902 189 C 144.998 189, 145.033 188.979, 144.379 186.250 C 143.705 183.440, 140 172.999, 139.678 173.001 C 139.580 173.002, 138.657 175.815, 137.627 179.251 M 85.489 176.018 C 84.574 177.498, 85.442 178.255, 87.577 177.838 C 89.140 177.534, 89.156 177.371, 87.745 176.201 C 86.620 175.269, 85.984 175.218, 85.489 176.018 M 39 183.500 C 39 189.500, 39.300 191, 40.500 191 C 41.664 191, 42 189.676, 42 185.082 C 42 178.798, 41.351 176, 39.893 176 C 39.402 176, 39 179.375, 39 183.500 M 48.750 176.662 C 49.438 176.940, 50.563 176.940, 51.250 176.662 C 51.938 176.385, 51.375 176.158, 50 176.158 C 48.625 176.158, 48.063 176.385, 48.750 176.662 M 19.387 179.318 C 19.709 180.518, 19.979 182.048, 19.986 182.719 C 19.994 183.389, 20.675 183.678, 21.500 183.362 C 23.811 182.475, 23.374 178.331, 20.901 177.684 C 19.136 177.223, 18.895 177.483, 19.387 179.318 M 50.638 179.500 C 50.322 180.325, 50.499 181, 51.031 181 C 51.564 181, 52 180.325, 52 179.500 C 52 178.675, 51.823 178, 51.607 178 C 51.391 178, 50.955 178.675, 50.638 179.500 M 32.070 179.750 C 32.109 180.162, 32.446 181.267, 32.820 182.204 C 33.405 183.669, 33.662 183.564, 34.656 181.454 C 35.669 179.303, 35.577 179, 33.906 179 C 32.858 179, 32.032 179.338, 32.070 179.750 M 9.813 182.683 C 10.534 182.972, 11.397 182.936, 11.729 182.604 C 12.061 182.272, 11.471 182.036, 10.417 182.079 C 9.252 182.127, 9.015 182.364, 9.813 182.683 M 14.750 182.662 C 15.438 182.940, 16.563 182.940, 17.250 182.662 C 17.938 182.385, 17.375 182.158, 16 182.158 C 14.625 182.158, 14.063 182.385, 14.750 182.662 M 8.264 185.718 C 9.784 185.947, 12.034 185.941, 13.264 185.704 C 14.494 185.467, 13.250 185.279, 10.500 185.286 C 7.750 185.294, 6.744 185.488, 8.264 185.718 M 17.813 185.683 C 18.534 185.972, 19.397 185.936, 19.729 185.604 C 20.061 185.272, 19.471 185.036, 18.417 185.079 C 17.252 185.127, 17.015 185.364, 17.813 185.683 M 61.241 187.986 C 59.706 190.444, 59.687 191, 61.140 191 C 62.303 191, 64.911 188.105, 64.968 186.750 C 65.033 185.210, 62.436 186.072, 61.241 187.986" stroke="none" fill="#c7d4d8" fill-rule="evenodd"/>
</svg>