<svg xmlns="http://www.w3.org/2000/svg" width="200" height="200" viewBox="0 0 200 200" version="1.1">
	<rect x="0" y="0" width="100%" height="100%" fill="#fff" />
	<path d="M 89.250 0.662 C 88.563 0.940, 88.036 2.142, 88.079 3.333 C 88.132 4.776, 88.337 4.999, 88.694 4 C 88.989 3.175, 89.939 1.938, 90.806 1.250 C 92.381 0.001, 91.610 -0.290, 89.250 0.662 M 94 1 C 92.651 1.872, 93.275 2.430, 95.250 2.118 C 95.662 2.053, 96 2.450, 96 3 C 96 3.550, 95.550 4, 95 4 C 94.450 4, 94 4.638, 94 5.417 C 94 6.196, 93.438 7.060, 92.750 7.338 C 91.750 7.741, 91.750 7.858, 92.750 7.921 C 93.529 7.970, 94 9.509, 94 12 C 94 14.396, 94.471 16, 95.174 16 C 96.773 16, 92.142 20.820, 89.842 21.550 C 88.829 21.872, 88 22.828, 88 23.674 C 88 24.632, 87.433 24.996, 86.500 24.638 C 85.675 24.322, 85 24.288, 85 24.564 C 85 24.839, 86.013 25.471, 87.250 25.969 C 89.383 26.826, 89.393 26.877, 87.441 26.937 C 86.309 26.971, 84.509 27.667, 83.441 28.482 C 81.636 29.861, 81.746 29.925, 85 29.398 C 88.216 28.877, 88.079 29.035, 83.309 31.342 C 77.358 34.221, 76.480 36.438, 77.343 46.407 C 77.843 52.179, 79.959 56, 82.655 56 C 85.906 56, 83.481 58.765, 77.530 61.842 C 67.813 66.866, 61.795 74.395, 64.963 77.563 C 65.581 78.181, 65.418 79.957, 64.507 82.513 C 63.727 84.706, 63.068 89.741, 63.044 93.703 C 63.020 97.665, 62.472 102.064, 61.827 103.480 C 61.019 105.254, 60.976 106.376, 61.689 107.089 C 63.038 108.438, 62.206 131.255, 60.775 132.139 C 58.900 133.298, 60.868 137.457, 64.171 139.318 C 66.510 140.635, 67.039 141.358, 66.092 141.943 C 65.194 142.498, 65.126 142.960, 65.873 143.421 C 67.242 144.267, 65.111 148, 63.259 148 C 61.060 148, 61.289 160.715, 63.568 165.129 C 65.051 167.999, 66.864 169, 70.582 169 C 73.664 169, 73.675 167.488, 70.608 165.479 C 69.293 164.617, 68.005 162.807, 67.747 161.456 C 67.277 158.998, 68.337 158.118, 69.500 160 C 70.495 161.609, 71.743 161.151, 71.540 159.250 C 71.438 158.287, 70.413 155.475, 69.263 153 C 66.491 147.034, 67.200 139, 70.499 139 C 71.205 139, 72.133 137.762, 72.560 136.250 C 73.250 133.809, 73.427 134.119, 74.135 139 C 74.615 142.313, 74.535 145.508, 73.934 147.034 C 72.788 149.945, 75.258 191.661, 76.659 193.054 C 77.121 193.514, 79.637 194.028, 82.249 194.195 C 84.861 194.363, 87.055 194.838, 87.124 195.250 C 87.193 195.662, 87.362 196.450, 87.500 197 C 87.638 197.550, 87.806 198.400, 87.875 198.889 C 87.946 199.394, 112.209 199.841, 144 199.923 C 192.632 200.049, 200 199.875, 200 198.601 C 200 197.767, 198.812 196.953, 197.250 196.716 L 194.500 196.300 197.250 196.150 C 199.409 196.032, 200 195.506, 200 193.700 C 200 192.435, 199.511 190.911, 198.913 190.313 C 198.130 189.530, 198.130 189.038, 198.913 188.554 C 199.572 188.147, 200 184.157, 200 178.427 L 200 168.972 193.250 169.551 C 189.537 169.870, 186.069 170.554, 185.542 171.073 C 184.941 171.664, 186.525 171.831, 189.792 171.520 C 192.656 171.247, 195 171.226, 195 171.473 C 195 172.441, 186.238 174.274, 181.500 174.298 C 178.750 174.312, 177.503 174.506, 178.729 174.729 L 180.957 175.134 178.524 177.567 C 175.633 180.458, 175.030 180.600, 175.646 178.246 C 176.048 176.709, 175.205 176.461, 168.802 176.241 C 164.786 176.102, 161.351 175.545, 161.170 175.003 C 160.988 174.461, 160.168 174.689, 159.348 175.509 C 158.528 176.329, 156.764 177.056, 155.429 177.125 C 152.647 177.268, 152.166 177.380, 149.707 178.460 C 148.721 178.893, 147.633 178.966, 147.290 178.624 C 146.947 178.281, 147.405 178, 148.308 178 C 149.618 178, 149.828 177.343, 149.344 174.750 C 149.011 172.963, 148.685 171.114, 148.619 170.643 C 148.554 170.171, 150.242 169.591, 152.371 169.352 C 154.501 169.114, 156.526 168.884, 156.871 168.841 C 157.217 168.798, 159.439 168.816, 161.809 168.882 C 166.936 169.022, 166.592 171, 161.441 171 C 159.548 171, 158 171.450, 158 172 C 158 172.550, 159.125 173, 160.500 173 C 161.875 173, 163 173.450, 163 174 C 163 174.550, 164.012 174.993, 165.250 174.985 C 167.027 174.973, 167.191 174.774, 166.029 174.039 C 164.322 172.960, 164.450 172.828, 168.645 171.356 C 170.467 170.717, 172.361 170.614, 173.145 171.111 C 174.721 172.109, 180.124 172.273, 182.418 171.393 C 184.751 170.498, 184.345 168.756, 181.978 169.507 C 179.934 170.156, 174 168.128, 174 166.781 C 174 166.379, 172.762 166.253, 171.250 166.502 C 169.738 166.751, 163.950 167.140, 158.390 167.366 L 148.279 167.779 144.217 157.139 C 138.274 141.575, 138.314 141.789, 141.529 143.011 C 144.825 144.264, 184.019 143.429, 189.004 141.999 C 194.494 140.424, 197.171 140.871, 193.036 142.672 C 189.962 144.011, 189.775 144.295, 191.382 145.194 C 192.633 145.894, 193.534 145.866, 194.296 145.104 C 194.903 144.497, 196.435 144, 197.700 144 L 200 144 200 118.893 C 200 95.355, 199.891 93.834, 198.250 94.557 C 197.287 94.980, 195.488 95.366, 194.250 95.414 C 193.012 95.461, 192 95.838, 192 96.250 C 192 96.662, 188.512 96.927, 184.250 96.838 L 176.500 96.677 183.500 96.075 C 187.350 95.744, 191.483 94.917, 192.684 94.237 C 193.886 93.556, 196.023 93, 197.434 93 L 200 93 200 46.500 L 200 0 163.941 0 C 140.156 0, 128.092 0.340, 128.500 1 C 128.840 1.550, 128.668 2, 128.118 2 C 127.568 2, 126.840 1.550, 126.500 1 C 125.696 -0.301, 96.013 -0.301, 94 1 M 132 5.333 C 132 6.391, 131.177 7.006, 129.750 7.015 C 127.931 7.028, 127.787 7.216, 129 8 C 131.525 9.632, 133.678 9.165, 133.520 7.020 C 133.338 4.548, 132 3.063, 132 5.333 M 120 14.893 C 120 16.095, 122.576 17.009, 125.832 16.961 C 128.420 16.923, 128.399 16.878, 125.135 15.461 C 121.256 13.777, 120 13.638, 120 14.893 M 138.500 15 C 138.840 15.550, 139.541 16, 140.059 16 C 140.577 16, 141 15.550, 141 15 C 141 14.450, 140.298 14, 139.441 14 C 138.584 14, 138.160 14.450, 138.500 15 M 138.500 20 C 138.160 20.550, 138.359 21, 138.941 21 C 139.523 21, 140 20.550, 140 20 C 140 19.450, 139.802 19, 139.559 19 C 139.316 19, 138.840 19.450, 138.500 20 M 104 21.893 C 104 23.111, 106.944 24.153, 108.197 23.378 C 108.835 22.984, 108.708 22.430, 107.857 21.890 C 106.079 20.764, 104 20.765, 104 21.893 M 115 22 C 115 22.550, 115.675 23, 116.500 23 C 117.325 23, 118 22.550, 118 22 C 118 21.450, 117.325 21, 116.500 21 C 115.675 21, 115 21.450, 115 22 M 189.597 22.844 C 189.251 23.404, 189.455 24.163, 190.050 24.531 C 191.588 25.481, 192.580 24.180, 191.296 22.896 C 190.578 22.178, 190.019 22.161, 189.597 22.844 M 131.500 24 C 131.840 24.550, 132.541 25, 133.059 25 C 133.577 25, 134 24.550, 134 24 C 134 23.450, 133.298 23, 132.441 23 C 131.584 23, 131.160 23.450, 131.500 24 M 82.813 26.683 C 83.534 26.972, 84.397 26.936, 84.729 26.604 C 85.061 26.272, 84.471 26.036, 83.417 26.079 C 82.252 26.127, 82.015 26.364, 82.813 26.683 M 120 27 C 120 27.550, 120.450 28, 121 28 C 121.550 28, 122 27.550, 122 27 C 122 26.450, 121.550 26, 121 26 C 120.450 26, 120 26.450, 120 27 M 158 27.050 C 158 28.462, 161.882 29.167, 163.730 28.091 C 165.743 26.920, 165.681 26.880, 161.250 26.507 C 159.463 26.357, 158 26.601, 158 27.050 M 164 36 C 164 36.550, 164.675 37, 165.500 37 C 166.325 37, 167 36.550, 167 36 C 167 35.450, 166.325 35, 165.500 35 C 164.675 35, 164 35.450, 164 36 M 136 42 C 136 42.550, 136.450 43, 137 43 C 137.550 43, 138 42.550, 138 42 C 138 41.450, 137.550 41, 137 41 C 136.450 41, 136 41.450, 136 42 M 177 44 C 177 44.550, 177.450 45, 178 45 C 178.550 45, 179 44.550, 179 44 C 179 43.450, 178.550 43, 178 43 C 177.450 43, 177 43.450, 177 44 M 172 45 C 172 45.550, 172.450 46, 173 46 C 173.550 46, 174 45.550, 174 45 C 174 44.450, 173.550 44, 173 44 C 172.450 44, 172 44.450, 172 45 M 180.500 45 C 180.160 45.550, 180.584 46, 181.441 46 C 182.298 46, 183.326 46.034, 183.725 46.075 C 184.124 46.116, 184.611 45.666, 184.808 45.075 C 185.261 43.718, 181.334 43.650, 180.500 45 M 118 46 C 118 46.550, 118.900 47, 120 47 C 121.100 47, 122 46.550, 122 46 C 122 45.450, 121.100 45, 120 45 C 118.900 45, 118 45.450, 118 46 M 160 46 C 160 46.550, 160.477 47, 161.059 47 C 161.641 47, 161.840 46.550, 161.500 46 C 161.160 45.450, 160.684 45, 160.441 45 C 160.198 45, 160 45.450, 160 46 M 124 48 C 124 48.550, 124.450 49, 125 49 C 125.550 49, 126 48.550, 126 48 C 126 47.450, 125.550 47, 125 47 C 124.450 47, 124 47.450, 124 48 M 188.553 50.915 C 188.231 51.436, 188.394 52.125, 188.915 52.447 C 189.436 52.769, 190.125 52.606, 190.447 52.085 C 190.769 51.564, 190.606 50.875, 190.085 50.553 C 189.564 50.231, 188.875 50.394, 188.553 50.915 M 172 54 C 172 54.550, 172.648 55, 173.441 55 C 174.234 55, 175.160 54.550, 175.500 54 C 175.840 53.450, 175.191 53, 174.059 53 C 172.927 53, 172 53.450, 172 54 M 170.500 57 C 170.840 57.550, 171.316 58, 171.559 58 C 171.802 58, 172 57.550, 172 57 C 172 56.450, 171.523 56, 170.941 56 C 170.359 56, 170.160 56.450, 170.500 57 M 185.797 56.854 C 186.834 57.511, 186.783 57.935, 185.547 58.961 C 184.696 59.667, 184 60.640, 184 61.122 C 184 61.605, 184.916 61.084, 186.036 59.964 C 188.082 57.918, 187.912 55.987, 185.691 56.015 C 184.853 56.026, 184.885 56.275, 185.797 56.854 M 189.500 57 C 189.840 57.550, 190.568 58, 191.118 58 C 191.668 58, 191.840 57.550, 191.500 57 C 191.160 56.450, 190.432 56, 189.882 56 C 189.332 56, 189.160 56.450, 189.500 57 M 160.657 59.766 C 160.220 60.463, 159.494 60.806, 159.045 60.528 C 158.596 60.250, 158.019 61.121, 157.763 62.462 C 157.469 63.999, 157.826 65.103, 158.730 65.450 C 160.914 66.288, 161.263 66.128, 160.663 64.565 C 160.360 63.775, 160.588 62.971, 161.170 62.777 C 161.752 62.583, 162.054 61.541, 161.841 60.462 C 161.560 59.044, 161.233 58.851, 160.657 59.766 M 166.711 62.731 C 166.223 65.285, 166.280 65.338, 167.595 63.540 C 169.201 61.342, 169.399 60, 168.117 60 C 167.631 60, 166.998 61.229, 166.711 62.731 M 172 61.059 C 172 61.641, 172.450 61.840, 173 61.500 C 173.550 61.160, 174 60.684, 174 60.441 C 174 60.198, 173.550 60, 173 60 C 172.450 60, 172 60.477, 172 61.059 M 188 64.059 C 188 64.641, 188.450 64.840, 189 64.500 C 189.550 64.160, 190 63.684, 190 63.441 C 190 63.198, 189.550 63, 189 63 C 188.450 63, 188 63.477, 188 64.059 M 148.229 72.188 C 148.847 74.042, 151 74.349, 151 72.583 C 151 71.713, 150.287 71, 149.417 71 C 148.546 71, 148.011 71.534, 148.229 72.188 M 133.179 73 C 133.368 73.885, 132.885 74.392, 132 74.236 C 130.962 74.052, 131.097 74.437, 132.441 75.485 C 133.508 76.318, 134.756 77.562, 135.212 78.250 C 135.707 78.994, 135.847 78.320, 135.558 76.587 C 135.291 74.984, 134.575 73.184, 133.965 72.587 C 133.163 71.800, 132.946 71.914, 133.179 73 M 137.500 73 C 137.840 73.550, 138.316 74, 138.559 74 C 138.802 74, 139 73.550, 139 73 C 139 72.450, 138.523 72, 137.941 72 C 137.359 72, 137.160 72.450, 137.500 73 M 175.500 77 C 175.160 77.550, 175.359 78, 175.941 78 C 176.523 78, 177 77.550, 177 77 C 177 76.450, 176.802 76, 176.559 76 C 176.316 76, 175.840 76.450, 175.500 77 M 141.079 89.583 C 141.127 90.748, 141.364 90.985, 141.683 90.188 C 141.972 89.466, 141.936 88.603, 141.604 88.271 C 141.272 87.939, 141.036 88.529, 141.079 89.583 M 169.170 89 C 169.219 91.498, 170.786 95.770, 170.900 93.719 C 170.955 92.739, 171.647 91.689, 172.437 91.386 C 173.227 91.083, 173.629 90.197, 173.330 89.417 C 172.568 87.433, 171.014 87.648, 170.930 89.750 C 170.870 91.246, 170.735 91.210, 170 89.500 C 169.473 88.275, 169.152 88.081, 169.170 89 M 138.638 90.500 C 138.322 91.325, 138.499 92, 139.031 92 C 139.564 92, 140 91.325, 140 90.500 C 140 89.675, 139.823 89, 139.607 89 C 139.391 89, 138.955 89.675, 138.638 90.500 M 160.813 89.683 C 161.534 89.972, 162.397 89.936, 162.729 89.604 C 163.061 89.272, 162.471 89.036, 161.417 89.079 C 160.252 89.127, 160.015 89.364, 160.813 89.683 M 174.244 94.365 C 173.429 96.152, 173.498 96.667, 174.553 96.667 C 175.301 96.667, 175.649 96.241, 175.328 95.722 C 175.007 95.202, 175.299 94.433, 175.979 94.013 C 176.709 93.562, 176.821 93.008, 176.253 92.656 C 175.725 92.330, 174.820 93.099, 174.244 94.365 M 141.989 95.021 C 141.394 96.132, 141.223 97.552, 141.608 98.175 C 142.057 98.901, 141.859 99.031, 141.058 98.536 C 140.197 98.003, 139.919 98.340, 140.165 99.620 C 140.362 100.641, 141.312 101.629, 142.276 101.815 C 143.771 102.102, 143.991 101.476, 143.765 97.581 C 143.619 95.067, 143.403 93.008, 143.285 93.005 C 143.167 93.002, 142.584 93.909, 141.989 95.021 M 150.035 94.542 C 151.005 95.711, 151.034 96.366, 150.158 97.242 C 149.281 98.119, 148.978 97.927, 148.910 96.450 C 148.857 95.315, 148.415 95.905, 147.853 97.860 C 146.741 101.723, 146.700 101.636, 150.002 102.464 C 152.384 103.062, 152.501 102.885, 152.520 98.628 C 152.531 96.174, 152.194 94.380, 151.770 94.642 C 151.347 94.904, 151 94.641, 151 94.059 C 151 93.477, 150.495 93, 149.878 93 C 149.116 93, 149.166 93.496, 150.035 94.542 M 155 94.692 C 155 95.702, 155.629 95.935, 157.099 95.469 C 158.841 94.916, 159.093 95.130, 158.584 96.735 C 158.157 98.080, 158.444 98.667, 159.529 98.667 C 160.562 98.667, 160.863 98.133, 160.424 97.083 C 160.060 96.213, 159.740 94.994, 159.714 94.375 C 159.643 92.681, 155 92.994, 155 94.692 M 167.318 95.697 C 167.630 97.164, 167.239 98.040, 166.143 98.331 C 165.239 98.572, 165.738 98.820, 167.250 98.884 C 170.390 99.016, 170.667 98.205, 168.426 95.441 C 166.887 93.544, 166.862 93.550, 167.318 95.697 M 171.658 100.449 C 171.287 101.416, 171.582 101.714, 172.545 101.344 C 173.339 101.040, 173.740 100.388, 173.435 99.895 C 172.669 98.655, 172.303 98.769, 171.658 100.449 M 178.750 99.662 C 179.438 99.940, 180.563 99.940, 181.250 99.662 C 181.938 99.385, 181.375 99.158, 180 99.158 C 178.625 99.158, 178.063 99.385, 178.750 99.662 M 165.813 100.683 C 166.534 100.972, 167.397 100.936, 167.729 100.604 C 168.061 100.272, 167.471 100.036, 166.417 100.079 C 165.252 100.127, 165.015 100.364, 165.813 100.683 M 156.158 101.881 C 155.176 102.503, 155.504 102.863, 157.378 103.221 C 159.080 103.547, 159.718 103.340, 159.278 102.606 C 158.914 101.997, 159.325 102.074, 160.191 102.776 C 161.488 103.825, 161.870 103.781, 162.352 102.526 C 162.789 101.387, 162.248 101.004, 160.219 101.015 C 158.723 101.024, 156.896 101.413, 156.158 101.881 M 12.079 114.583 C 12.127 115.748, 12.364 115.985, 12.683 115.188 C 12.972 114.466, 12.936 113.603, 12.604 113.271 C 12.272 112.939, 12.036 113.529, 12.079 114.583 M 11.507 121.989 C 11.157 122.555, 11.558 122.723, 12.448 122.382 C 14.180 121.717, 14.497 121, 13.059 121 C 12.541 121, 11.843 121.445, 11.507 121.989 M 16 122.559 C 16 123.416, 16.457 123.835, 17.016 123.490 C 17.575 123.144, 17.774 122.443, 17.457 121.931 C 16.600 120.544, 16 120.802, 16 122.559 M 20 123 C 20 123.550, 20.450 124, 21 124 C 21.550 124, 22 123.550, 22 123 C 22 122.450, 21.550 122, 21 122 C 20.450 122, 20 122.450, 20 123 M 24 124.059 C 24 124.641, 24.450 124.840, 25 124.500 C 25.550 124.160, 26 123.684, 26 123.441 C 26 123.198, 25.550 123, 25 123 C 24.450 123, 24 123.477, 24 124.059 M 181.188 148.307 C 181.559 150.916, 183.123 150.901, 184.093 148.279 C 184.612 146.875, 184.298 146.373, 182.830 146.262 C 181.358 146.151, 180.953 146.656, 181.188 148.307 M 195 147.125 C 195 147.606, 194.395 148, 193.655 148 C 191.946 148, 188.775 151.442, 189.664 152.331 C 190.032 152.699, 189.358 153, 188.167 153 C 185.910 153, 185.258 154.423, 187.016 155.510 C 187.575 155.856, 187.774 156.557, 187.457 157.069 C 186.365 158.836, 185.157 157.990, 184.500 155 C 184.047 152.937, 183.241 152, 181.921 152 C 180.853 152, 180 152.688, 180 153.550 C 180 154.598, 179.539 154.841, 178.576 154.300 C 176.276 153.009, 166 153.978, 166 155.486 C 166 157.055, 168.371 158.125, 172.750 158.532 C 175.944 158.829, 177.203 157.652, 174.750 156.662 C 174.063 156.385, 175.863 156.122, 178.750 156.079 C 182.785 156.018, 184 156.347, 184 157.500 C 184 158.325, 183.295 159, 182.433 159 C 181.301 159, 181.048 159.577, 181.525 161.078 C 182.040 162.702, 181.781 163.115, 180.342 162.963 C 176.571 162.567, 174 163.033, 174 164.113 C 174 164.777, 175.190 165.052, 176.947 164.794 C 178.568 164.557, 179.667 164.730, 179.388 165.181 C 179.110 165.631, 177.896 166.052, 176.691 166.115 C 172.912 166.313, 182.249 167.882, 187.500 167.931 C 190.250 167.957, 194.118 167.710, 196.095 167.383 C 199.640 166.797, 199.693 166.718, 199.870 161.719 C 199.983 158.526, 199.577 156.349, 198.775 155.840 C 197.775 155.205, 197.770 155.027, 198.750 155.015 C 199.557 155.005, 200 153.450, 200 150.625 C 200 146.625, 199.786 146.250, 197.500 146.250 C 196.125 146.250, 195 146.644, 195 147.125 M 185.667 147.667 C 183.285 150.048, 186.585 150.781, 189.559 148.532 C 191.428 147.118, 191.404 147.062, 188.917 147.032 C 187.496 147.014, 186.033 147.300, 185.667 147.667 M 177.500 149 C 177.160 149.550, 177.610 150, 178.500 150 C 179.390 150, 179.840 149.550, 179.500 149 C 179.160 148.450, 178.710 148, 178.500 148 C 178.290 148, 177.840 148.450, 177.500 149 M 193.500 150 C 191.656 150.792, 191.696 150.870, 194 151 C 196.304 151.130, 196.344 151.208, 194.500 152 C 192.824 152.720, 193.026 152.871, 195.750 152.930 C 199.175 153.004, 199.788 152.188, 197.800 150.200 C 196.433 148.833, 196.237 148.824, 193.500 150 M 160 156 C 160 156.550, 160.477 157, 161.059 157 C 161.641 157, 161.840 156.550, 161.500 156 C 161.160 155.450, 160.684 155, 160.441 155 C 160.198 155, 160 155.450, 160 156 M 189.995 156.003 C 188.076 157.189, 189.277 158.243, 192.079 157.831 C 193.977 157.552, 194.103 157.313, 192.881 156.307 C 191.977 155.562, 190.893 155.448, 189.995 156.003 M 176.785 159.146 C 176.562 159.815, 173.296 160.476, 168.951 160.734 C 162.389 161.123, 158.743 162.193, 160.067 163.343 C 160.305 163.550, 162.931 163.995, 165.901 164.331 C 170.745 164.879, 171.106 164.793, 169.401 163.503 C 167.616 162.151, 167.691 162.062, 170.635 162.032 C 174.306 161.995, 180.342 159.675, 179.350 158.683 C 178.325 157.658, 177.214 157.859, 176.785 159.146 M 187.813 160.683 C 188.534 160.972, 189.397 160.936, 189.729 160.604 C 190.061 160.272, 189.471 160.036, 188.417 160.079 C 187.252 160.127, 187.015 160.364, 187.813 160.683 M 152.750 174.662 C 153.438 174.940, 154.563 174.940, 155.250 174.662 C 155.938 174.385, 155.375 174.158, 154 174.158 C 152.625 174.158, 152.063 174.385, 152.750 174.662 M 184.663 176.250 C 184.913 176.662, 183.891 177, 182.392 177 C 180.893 177, 179.965 177.298, 180.329 177.662 C 181.087 178.421, 189.628 178.245, 192.250 177.418 C 195.611 176.357, 193.961 175.298, 189.104 175.399 C 186.411 175.454, 184.412 175.838, 184.663 176.250 M 138 182 C 135.613 182.765, 135.644 182.805, 138.691 182.900 C 140.446 182.955, 142.160 182.550, 142.500 182 C 143.211 180.850, 141.591 180.850, 138 182 M 132.813 183.683 C 133.534 183.972, 134.397 183.936, 134.729 183.604 C 135.061 183.272, 134.471 183.036, 133.417 183.079 C 132.252 183.127, 132.015 183.364, 132.813 183.683 M 153.349 187.250 C 152.673 188.335, 157.228 188.143, 159 187.012 C 160.101 186.309, 159.611 186.114, 157.158 186.277 C 155.320 186.400, 153.606 186.838, 153.349 187.250 M 162 187.768 C 162 189.064, 164.425 190, 167.782 190 C 169.494 190, 170.060 189.660, 169.419 189.019 C 167.962 187.562, 162 186.557, 162 187.768 M 104.886 191.071 C 104.155 191.522, 103.770 192.087, 104.029 192.327 C 104.782 193.024, 111 191.851, 111 191.012 C 111 189.994, 106.558 190.037, 104.886 191.071 M 141.813 190.683 C 142.534 190.972, 143.397 190.936, 143.729 190.604 C 144.061 190.272, 143.471 190.036, 142.417 190.079 C 141.252 190.127, 141.015 190.364, 141.813 190.683 M 86 192 C 86 192.550, 86.477 193, 87.059 193 C 87.641 193, 87.840 192.550, 87.500 192 C 87.160 191.450, 86.684 191, 86.441 191 C 86.198 191, 86 191.450, 86 192 M 186.813 191.683 C 187.534 191.972, 188.397 191.936, 188.729 191.604 C 189.061 191.272, 188.471 191.036, 187.417 191.079 C 186.252 191.127, 186.015 191.364, 186.813 191.683 M 159 194.023 C 159 194.595, 159.694 195.329, 160.543 195.655 C 162.889 196.555, 163.164 195.583, 160.955 194.204 C 159.717 193.431, 159 193.365, 159 194.023 M 136.813 194.683 C 137.534 194.972, 138.397 194.936, 138.729 194.604 C 139.061 194.272, 138.471 194.036, 137.417 194.079 C 136.252 194.127, 136.015 194.364, 136.813 194.683 M 145.500 196 C 145.840 196.550, 146.766 197, 147.559 197 C 148.352 197, 149 196.550, 149 196 C 149 195.450, 148.073 195, 146.941 195 C 145.809 195, 145.160 195.450, 145.500 196 M 142 196.393 C 142 196.609, 142.698 197.054, 143.552 197.382 C 144.442 197.723, 144.843 197.555, 144.493 196.989 C 143.906 196.038, 142 195.583, 142 196.393 M 164.813 198.683 C 165.534 198.972, 166.397 198.936, 166.729 198.604 C 167.061 198.272, 166.471 198.036, 165.417 198.079 C 164.252 198.127, 164.015 198.364, 164.813 198.683" stroke="none" fill="#c7d4d8" fill-rule="evenodd"/>
</svg>