<svg xmlns="http://www.w3.org/2000/svg" width="200" height="200" viewBox="0 0 200 200" version="1.1">
	<rect x="0" y="0" width="100%" height="100%" fill="#fff" />
	<path d="M 100.145 36.573 C 100.275 39.088, 99.954 41.451, 99.431 41.823 C 98.908 42.195, 97.631 44.122, 96.592 46.104 C 95.025 49.092, 94.892 50.251, 95.811 52.888 C 96.445 54.707, 96.509 55.814, 95.960 55.475 C 95.432 55.149, 95 55.584, 95 56.441 C 95 57.298, 94.438 57.887, 93.750 57.750 C 93.009 57.602, 92.638 58.292, 92.839 59.446 C 93.103 60.964, 92.883 61.153, 91.839 60.304 C 89.971 58.785, 80.930 59.753, 78.775 61.703 C 77.799 62.587, 77 64.071, 77 65.001 C 77 66.369, 75.912 66.727, 71.294 66.878 C 65.179 67.078, 62 69.117, 62 72.842 C 62 75.004, 59.479 75.965, 53.750 75.986 C 50.888 75.997, 49.977 76.415, 49.901 77.750 C 49.847 78.713, 49.705 80.400, 49.586 81.500 C 49.467 82.600, 49.286 84.993, 49.185 86.817 C 49.027 89.646, 48.706 90.041, 47 89.500 C 45.853 89.136, 45 89.320, 45 89.933 C 45 91.428, 41.276 91.271, 40.662 89.750 C 40.361 89.003, 40.126 89.205, 40.079 90.250 C 40.036 91.213, 39.352 92, 38.559 92 C 36.437 92, 35.649 93.872, 37.056 95.568 C 37.732 96.382, 38.108 97.163, 37.893 97.304 C 37.677 97.444, 35.925 98.331, 34 99.273 C 31.055 100.716, 29.008 101.879, 26.029 103.804 C 25.770 103.972, 26.220 104.569, 27.029 105.131 C 28.142 105.904, 28.196 106.276, 27.250 106.659 C 26.563 106.938, 26 107.831, 26 108.642 C 26 109.454, 25.582 109.860, 25.072 109.544 C 24.562 109.229, 23.854 109.884, 23.500 111 C 23.146 112.116, 22.390 112.741, 21.821 112.389 C 21.137 111.967, 21.028 112.851, 21.500 115 C 21.959 117.088, 21.855 118.029, 21.211 117.630 C 20.659 117.290, 18.956 117.660, 17.426 118.454 C 15.895 119.248, 14.204 119.626, 13.667 119.294 C 13.126 118.960, 13.009 119.205, 13.405 119.845 C 13.797 120.480, 13.566 121, 12.892 121 C 12.218 121, 11.964 121.297, 12.327 121.661 C 12.691 122.024, 12.029 122.812, 10.856 123.411 C 9.684 124.010, 8.899 124.844, 9.112 125.264 C 9.794 126.608, 3.775 129.175, 2.629 128.029 C 1.924 127.324, 2.125 127, 3.269 127 C 4.441 127, 4.742 126.480, 4.281 125.250 C 3.720 123.753, 3.856 123.687, 5.224 124.799 C 6.298 125.672, 7.034 125.753, 7.470 125.049 C 7.826 124.472, 7.766 124, 7.337 124 C 6.907 124, 7.555 123.299, 8.777 122.443 C 11.062 120.843, 11.801 116.613, 9.992 115.495 C 9.437 115.152, 8.604 115.896, 8.141 117.149 L 7.298 119.426 6.114 117.213 C 5.402 115.883, 3.982 115, 2.555 115 C 0.246 115, 0.185 115.216, 0.301 122.948 C 0.397 129.314, 0.677 130.683, 1.710 129.825 C 3.338 128.475, 3.415 130.185, 1.800 131.800 C 0.867 132.733, 0.952 133, 2.183 133 C 3.054 133, 4.002 132.100, 4.290 131 C 4.577 129.900, 5.353 129, 6.013 129 C 6.684 129, 6.953 129.680, 6.623 130.540 C 6.273 131.451, 6.536 131.998, 7.266 131.880 C 7.945 131.770, 9.811 132.218, 11.413 132.877 C 14.777 134.260, 16.017 133.447, 16.442 129.581 C 16.603 128.113, 17.771 125.808, 19.038 124.460 C 21.961 121.349, 20.775 119.923, 17.682 122.829 C 14.675 125.654, 13.916 125.577, 15.325 122.591 C 16.119 120.909, 17.574 120.004, 20.147 119.592 C 22.174 119.268, 24.059 118.440, 24.337 117.752 C 24.649 116.979, 24.872 117.147, 24.921 118.191 C 24.964 119.121, 24.550 120.160, 24 120.500 C 23.450 120.840, 23 122.516, 23 124.226 C 23 125.935, 23.271 127.062, 23.603 126.731 C 23.934 126.399, 25.284 126.538, 26.603 127.039 C 27.921 127.540, 29 127.564, 29 127.092 C 29 125.908, 33.921 125.064, 34.583 126.134 C 35.408 127.469, 38.998 127.158, 39.015 125.750 C 39.026 124.843, 39.232 124.815, 39.765 125.647 C 40.819 127.292, 45.563 127.814, 45.250 126.250 C 44.942 124.708, 45.249 124.701, 48.480 126.173 C 50.468 127.079, 51.331 127.069, 52.269 126.131 C 53.187 125.213, 53.199 124.741, 52.317 124.196 C 50.742 123.223, 51.523 110.920, 53.229 109.837 C 53.928 109.394, 55.261 109.024, 56.191 109.015 C 57.121 109.007, 58.160 108.550, 58.500 108 C 59.548 106.304, 63.815 106.854, 64.311 108.750 C 64.746 110.417, 64.774 110.417, 64.884 108.750 C 64.948 107.787, 65.477 107, 66.059 107 C 66.641 107, 66.848 107.437, 66.518 107.971 C 66.188 108.504, 66.681 110.417, 67.614 112.221 C 69.044 114.988, 69.067 115.299, 67.757 114.212 C 66.450 113.128, 65.889 113.326, 64.208 115.462 C 63.110 116.858, 61.714 118, 61.106 118 C 60.498 118, 60 118.450, 60 119 C 60 119.550, 61.013 120.007, 62.250 120.015 C 63.539 120.024, 64.032 120.344, 63.405 120.765 C 62.104 121.638, 62.801 129.241, 64.108 128.433 C 64.599 128.130, 65 129.034, 65 130.441 C 65 132.307, 64.475 133, 63.059 133 C 61.991 133, 60.875 133.394, 60.577 133.875 C 59.713 135.274, 66.434 135.758, 82 135.420 C 89.975 135.246, 98.862 135.081, 101.750 135.052 C 108.293 134.987, 108.755 133.026, 102.250 132.930 C 98.676 132.877, 97.995 132.647, 99.500 132 C 101.347 131.206, 101.309 131.128, 99 130.971 L 96.500 130.801 99 130 C 101.369 129.241, 101.329 129.194, 98.250 129.100 C 95.458 129.014, 95 128.640, 95 126.447 C 95 123.957, 95.155 123.899, 101.348 124.100 C 108.063 124.317, 111.275 123.406, 108.921 121.951 C 107.995 121.379, 107.927 120.776, 108.681 119.826 C 109.260 119.097, 110.026 116.250, 110.383 113.500 C 111.543 104.557, 113.528 100.304, 118.749 95.573 C 122.669 92.020, 123.514 92.525, 121.543 97.243 C 120.461 99.833, 119.914 106.547, 119.521 122.072 C 119.224 133.776, 118.765 143.568, 118.500 143.834 C 118.234 144.099, 118.576 145.004, 119.259 145.845 C 120.278 147.101, 120.232 147.275, 119 146.819 C 117.865 146.399, 117.454 147.116, 117.311 149.770 C 117.208 151.699, 116.670 153.730, 116.117 154.283 C 115.443 154.957, 115.246 154.664, 115.518 153.394 C 116.573 148.479, 117.083 140.914, 117.634 122 C 118.271 100.175, 117.592 97.624, 114.431 109.964 C 112.732 116.595, 112.788 132.333, 114.525 136.414 C 115.088 137.737, 114.992 138.113, 114.214 137.632 C 113.595 137.250, 112.560 134.251, 111.914 130.968 C 111.268 127.686, 110.298 125, 109.757 125 C 107.964 125, 109.469 138.204, 111.801 142.924 C 114.339 148.062, 114.044 149.575, 111.382 145.069 C 110.385 143.381, 109.185 142, 108.717 142 C 107.627 142, 108.886 146.029, 110.471 147.614 C 111.136 148.278, 111.564 149.874, 111.423 151.161 C 111.282 152.447, 111.129 153.864, 111.083 154.309 C 111.037 154.754, 110.550 154.840, 110 154.500 C 109.403 154.131, 109 155.359, 109 157.548 C 109 160.421, 108.670 161.087, 107.477 160.629 C 106.281 160.171, 106.157 160.425, 106.901 161.815 C 107.631 163.179, 107.455 163.615, 106.134 163.715 C 104.670 163.825, 104.441 162.940, 104.571 157.672 C 104.655 154.277, 105.254 150.185, 105.902 148.578 C 106.551 146.970, 106.790 144.945, 106.433 144.078 C 105.859 142.680, 105.712 142.696, 105.142 144.213 C 104.677 145.453, 104.085 145.665, 103 144.979 C 100.551 143.431, 97.183 143.845, 96.733 145.750 C 96.425 147.058, 96.126 146.805, 95.552 144.750 C 94.678 141.623, 93.365 141.164, 92.689 143.750 C 92.336 145.101, 92.206 145.001, 92.116 143.309 C 91.960 140.356, 90.546 139.672, 87.791 141.216 C 85.036 142.760, 83.957 144.122, 84.629 145.209 C 84.903 145.652, 84.423 146.284, 83.563 146.614 C 81.456 147.423, 81.577 148.992, 83.750 149.032 C 85.333 149.061, 85.315 149.203, 83.559 150.532 C 80.709 152.688, 78.828 152.362, 79.039 149.750 C 79.537 143.603, 78.626 142.362, 73 141.531 C 68.675 140.892, 68.448 140.986, 67.154 143.961 C 66.413 145.663, 66.056 147.704, 66.360 148.496 C 66.664 149.288, 66.482 150.202, 65.956 150.527 C 65.430 150.852, 65 150.116, 65 148.892 C 65 145.277, 63.759 147.594, 63.489 151.715 C 63.319 154.302, 63.809 156.042, 65.037 157.211 C 66.156 158.278, 66.624 159.723, 66.278 161.046 C 65.972 162.214, 65.447 162.794, 65.111 162.335 C 64.191 161.078, 61 160.765, 61 161.931 C 61 163.225, 54.958 162.170, 53.239 160.576 C 52.482 159.874, 51.882 156.328, 51.739 151.703 C 51.481 143.378, 50.610 142.356, 47.039 146.189 C 45.108 148.262, 45 148.275, 45 146.439 C 45 145.037, 44.307 144.500, 42.500 144.500 C 41.125 144.500, 40 144.775, 40 145.111 C 40 145.448, 38.816 145.496, 37.369 145.220 C 35.628 144.887, 34.445 145.241, 33.871 146.265 C 33.314 147.262, 32.221 147.609, 30.806 147.239 C 28.708 146.690, 28.696 146.629, 30.554 145.902 C 32.626 145.091, 32.287 144.994, 26.250 144.673 C 24.462 144.578, 23 144.838, 23 145.250 C 23 145.662, 24.238 146.036, 25.750 146.079 L 28.500 146.158 25.750 147.162 C 22.806 148.237, 22.263 149.863, 24.200 151.800 C 25.133 152.733, 25.049 153, 23.822 153 C 22.083 153, 19.698 150.635, 20.564 149.769 C 20.865 149.469, 19.961 147.982, 18.555 146.465 C 17.150 144.949, 15.971 142.761, 15.937 141.604 C 15.879 139.693, 15.777 139.729, 14.823 142 C 14.202 143.477, 13.580 143.988, 13.303 143.250 C 12.777 141.850, 11 141.535, 11 142.843 C 11 143.306, 12.575 144.533, 14.500 145.570 C 16.425 146.607, 18.055 147.915, 18.122 148.477 C 18.290 149.886, 18.542 155.304, 18.791 162.833 C 18.942 167.396, 19.350 169.046, 20.250 168.736 C 21.479 168.312, 21.584 166.197, 20.649 160.750 C 20.389 159.238, 20.586 158, 21.088 158 C 21.590 158, 22 158.702, 22 159.559 C 22 160.416, 22.427 160.854, 22.950 160.531 C 24.280 159.709, 26.017 163.313, 25.525 165.873 C 25.266 167.216, 25.647 168.046, 26.557 168.125 C 27.351 168.194, 28.450 168.363, 29 168.500 C 29.550 168.637, 30.450 168.806, 31 168.875 C 31.550 168.944, 31.947 169.338, 31.882 169.750 C 31.503 172.150, 32.318 173, 35 173 C 36.650 173, 38 173.477, 38 174.059 C 38 174.641, 37.546 174.838, 36.992 174.495 C 35.609 173.640, 33.984 178.193, 35.152 179.647 C 35.659 180.277, 36.964 180.561, 38.052 180.276 C 39.564 179.881, 39.883 180.140, 39.408 181.379 C 38.665 183.317, 41.550 183.679, 42.354 181.750 C 43.123 179.903, 46 183.829, 46 186.726 C 46 188.016, 46.736 190.194, 47.635 191.566 C 48.535 192.939, 49.081 194.253, 48.848 194.485 C 48.615 194.718, 46.417 195.148, 43.962 195.440 L 39.500 195.972 44 194.527 C 48.387 193.118, 48.250 193.096, 38.500 193.661 C 33 193.979, 28.050 194.523, 27.500 194.870 C 26.243 195.662, 22.482 196.064, 13.204 196.400 C 7.994 196.588, 5.431 197.141, 4.240 198.332 C 2.682 199.889, 2.718 200, 4.786 200 C 6.004 200, 7 199.611, 7 199.137 C 7 198.653, 9.101 198.655, 11.780 199.142 C 14.409 199.620, 57.934 199.896, 108.502 199.755 L 200.445 199.500 200.333 197.250 C 200.272 196.012, 200.172 194.145, 200.111 193.101 C 199.991 191.055, 197.874 190.588, 183.250 189.380 C 176.948 188.860, 176 188.996, 176 190.425 C 176 191.814, 176.813 191.980, 181.250 191.493 C 186.402 190.929, 186.444 190.945, 183.500 192.378 C 181.495 193.353, 181.080 193.864, 182.250 193.919 C 185.888 194.088, 183.821 196, 180 196 C 175.969 196, 174.504 194.514, 177.750 193.717 C 178.724 193.478, 177.615 192.945, 175.250 192.516 C 172.912 192.091, 171 191.388, 171 190.952 C 171 189.583, 165.542 188.879, 154.583 188.834 C 144.427 188.792, 144 188.703, 144 186.636 C 144 185.451, 144.900 183.919, 146 183.232 C 147.100 182.545, 148 181.387, 148 180.658 C 148 179.421, 149.078 179.056, 153.152 178.917 C 154.060 178.886, 155.031 177.990, 155.309 176.926 C 155.621 175.732, 156.374 175.206, 157.276 175.552 C 158.195 175.905, 158.937 175.349, 159.275 174.057 C 159.571 172.925, 160.335 172, 160.974 172 C 161.680 172, 161.886 172.784, 161.500 174 C 160.746 176.377, 161.573 176.570, 163.643 174.500 C 164.468 173.675, 164.661 173, 164.071 173 C 163.482 173, 163 172.523, 163 171.941 C 163 171.359, 163.470 171.172, 164.044 171.527 C 164.618 171.882, 166.239 171.418, 167.646 170.496 C 169.053 169.574, 171.092 169.052, 172.176 169.336 C 173.349 169.643, 174.929 169.071, 176.074 167.926 C 178.185 165.815, 181.486 165.474, 185.401 166.962 C 187.621 167.806, 188.146 167.561, 189.681 164.962 C 191.490 161.901, 191.648 161.817, 196.268 161.492 C 197.790 161.385, 199.263 161.070, 199.541 160.792 C 199.819 160.514, 200.181 155.722, 200.344 150.143 L 200.641 140 196.321 140 C 193.547 140, 191.989 140.448, 191.970 141.250 C 191.953 141.938, 191.450 141.659, 190.853 140.630 C 190.046 139.241, 189.568 139.081, 188.995 140.008 C 188.526 140.767, 187.694 140.929, 186.872 140.421 C 184.861 139.178, 179.172 138.912, 178.482 140.028 C 178.152 140.563, 176.559 141, 174.941 141 C 171.945 141, 167.496 144.376, 168.453 145.923 C 169.171 147.085, 167.090 148.583, 163.595 149.420 C 160.083 150.261, 159.037 148.980, 159.015 143.809 C 158.997 139.404, 157.354 137.948, 156.055 141.186 C 155.400 142.820, 155.108 143.003, 155.063 141.809 C 154.983 139.659, 152.999 138.384, 152.071 139.886 C 151.682 140.514, 148.920 141.073, 145.932 141.129 C 142.945 141.185, 139.012 141.842, 137.194 142.588 L 133.888 143.945 134.194 139.722 C 134.372 137.264, 135.022 135.448, 135.750 135.375 C 136.438 135.306, 142.738 135.142, 149.750 135.009 C 156.762 134.876, 161.757 134.571, 160.850 134.330 C 158.973 133.832, 158.086 128.122, 159.109 123.122 C 159.572 120.857, 159.370 119.966, 158.374 119.875 C 157.618 119.806, 156.438 119.694, 155.750 119.625 C 155.063 119.556, 154.350 118.438, 154.166 117.139 C 153.953 115.636, 154.226 115.021, 154.916 115.448 C 155.570 115.852, 156.028 115.202, 156.070 113.809 C 156.127 111.956, 156.275 111.838, 156.821 113.213 C 157.312 114.451, 157.917 114.664, 159 113.979 C 160.333 113.136, 160.333 113.029, 159 113.012 C 158.175 113.001, 158.973 112.094, 160.774 110.996 C 162.575 109.898, 165.094 109, 166.371 109 C 167.649 109, 169.732 108.100, 171 107 C 172.268 105.900, 174.025 105.032, 174.903 105.070 C 176.095 105.123, 175.992 105.359, 174.500 106 C 172.720 106.765, 172.800 106.867, 175.218 106.930 C 177.623 106.992, 177.841 106.742, 177.110 104.750 C 176.518 103.137, 175.325 102.406, 172.896 102.168 C 171.033 101.986, 168.950 101.373, 168.267 100.807 C 167.584 100.240, 165.987 100.037, 164.718 100.356 C 163.098 100.762, 161.616 100.199, 159.749 98.468 C 158.285 97.110, 156.666 96, 156.151 96 C 155.635 96, 154.955 95.325, 154.638 94.500 C 154.277 93.559, 152.748 93, 150.531 93 C 147.667 93, 147 92.622, 147 91 C 147 89.889, 146.333 89, 145.500 89 C 144.675 89, 143.949 88.662, 143.886 88.250 C 143.823 87.838, 143.621 86.205, 143.436 84.622 C 143.251 83.040, 142.178 79.782, 141.050 77.383 C 139.923 74.984, 138.968 71.554, 138.930 69.761 C 138.877 67.301, 138.679 66.959, 138.124 68.371 C 137.548 69.837, 136.267 70.269, 132.194 70.371 L 126.999 70.500 126.999 66.844 C 127 63.679, 126.731 63.258, 125 63.710 C 123.294 64.156, 122.998 63.738, 122.985 60.867 C 122.976 59.015, 122.533 56.825, 122 56 C 121.196 54.755, 121.028 54.743, 121.015 55.924 C 121.004 56.945, 120.344 56.733, 118.686 55.174 C 117.413 53.978, 115.875 53, 115.269 53 C 114.663 53, 113.981 52.442, 113.753 51.760 C 113.503 51.010, 111.978 50.638, 109.888 50.818 C 106.559 51.105, 106.370 50.932, 104.576 45.942 C 102.787 40.965, 102.405 39.144, 102.128 34.250 C 102.057 33.013, 101.529 32, 100.954 32 C 100.344 32, 100.007 33.906, 100.145 36.573 M 99.500 53 C 98.713 54.273, 101.030 54.273, 103 53 C 104.219 52.212, 104.090 52.028, 102.309 52.015 C 101.104 52.007, 99.840 52.450, 99.500 53 M 87.500 62.351 C 86.950 62.983, 86.372 64.400, 86.216 65.500 C 85.529 70.330, 85.123 73.590, 85.064 74.750 C 84.950 76.982, 83.002 76.068, 82.932 73.750 L 82.865 71.500 81.728 73.864 C 80.780 75.839, 80.901 76.454, 82.464 77.597 C 83.848 78.610, 84.683 78.678, 85.668 77.861 C 86.721 76.987, 87.038 77.358, 87.181 79.628 C 87.280 81.207, 87.623 77.775, 87.942 72 C 88.261 66.225, 88.517 61.433, 88.511 61.351 C 88.505 61.269, 88.050 61.719, 87.500 62.351 M 107.272 70 C 107.272 72.475, 107.467 73.487, 107.706 72.250 C 107.944 71.013, 107.944 68.987, 107.706 67.750 C 107.467 66.513, 107.272 67.525, 107.272 70 M 69.707 70.989 C 69.993 72.083, 70.626 72.731, 71.114 72.430 C 71.601 72.128, 72 72.828, 72 73.985 C 72 75.433, 72.545 75.996, 73.750 75.794 C 74.794 75.619, 75.385 76.046, 75.215 76.854 C 74.829 78.693, 76.036 82.298, 76.787 81.546 C 77.119 81.214, 77.501 80.194, 77.635 79.280 C 77.769 78.366, 78.127 76.630, 78.430 75.423 C 78.904 73.533, 76.513 69.908, 75.346 70.750 C 74.312 71.496, 70.977 70.846, 71.500 70 C 71.840 69.450, 71.459 69, 70.653 69 C 69.682 69, 69.363 69.672, 69.707 70.989 M 95.079 71.750 C 95.122 73.263, 95.385 73.938, 95.662 73.250 C 95.940 72.563, 96.781 72, 97.532 72 C 98.670 72, 98.657 72.578, 97.449 75.468 C 95.375 80.431, 95.587 81, 99.500 81 C 102.333 81, 103 80.619, 103 79 C 103 77.667, 102.333 77, 101 77 C 98.925 77, 98.300 75.550, 99.939 74.538 C 100.455 74.219, 100.694 73.007, 100.470 71.844 C 100.008 69.445, 99 68.067, 99 69.833 C 99 70.475, 98.298 71, 97.441 71 C 96.584 71, 96.160 70.550, 96.500 70 C 96.840 69.450, 96.641 69, 96.059 69 C 95.477 69, 95.036 70.237, 95.079 71.750 M 67.826 79.750 C 67.531 87.808, 67.412 93.924, 67.556 93.707 C 67.631 93.593, 68.385 92.071, 69.232 90.325 C 70.624 87.456, 70.622 87.208, 69.212 87.749 C 68.067 88.188, 67.822 87.906, 68.290 86.686 C 69.687 83.046, 70.264 75, 69.129 75 C 68.473 75, 67.927 76.991, 67.826 79.750 M 108.922 76.702 C 107.993 78.027, 107.600 80.441, 107.834 83.382 L 108.200 87.986 110.964 85.743 C 112.484 84.509, 114.239 82.118, 114.864 80.429 C 116.345 76.425, 116.299 75.948, 114.500 76.638 C 113.634 76.971, 112.968 76.641, 112.924 75.857 C 112.882 75.111, 112.288 76.050, 111.603 77.945 C 110.733 80.355, 110.116 80.997, 109.551 80.083 C 109.076 79.314, 109.258 78.459, 109.994 78.004 C 110.681 77.579, 111.048 76.645, 110.810 75.929 C 110.506 75.019, 109.937 75.251, 108.922 76.702 M 56.664 77.750 C 56.414 78.162, 56.838 79.080, 57.605 79.789 C 58.764 80.861, 59 80.734, 59 79.039 C 59 77.047, 57.568 76.257, 56.664 77.750 M 90.446 78.087 C 90.077 78.685, 90.275 79.675, 90.887 80.287 C 91.704 81.104, 92 80.815, 92 79.200 C 92 76.785, 91.481 76.413, 90.446 78.087 M 58.492 82.529 C 56.846 84.388, 54.518 85.929, 53.317 85.954 C 51.214 85.998, 49.117 89.450, 50.409 90.742 C 50.734 91.067, 51 90.782, 51 90.108 C 51 89.434, 51.457 89.165, 52.016 89.510 C 52.575 89.856, 52.743 90.670, 52.390 91.319 C 52.036 91.969, 52.929 91.282, 54.373 89.794 C 55.818 88.305, 57 86.587, 57 85.976 C 57 85.343, 57.810 85.122, 58.882 85.463 C 60.410 85.947, 60.858 85.442, 61.264 82.780 C 61.538 80.976, 61.700 79.421, 61.623 79.325 C 61.547 79.229, 60.137 80.671, 58.492 82.529 M 47.116 83.168 C 47.052 84.086, 46.741 85.661, 46.424 86.668 C 45.879 88.404, 45.909 88.407, 46.992 86.719 C 47.620 85.739, 47.931 84.164, 47.683 83.219 C 47.277 81.670, 47.221 81.665, 47.116 83.168 M 71.079 83.583 C 71.127 84.748, 71.364 84.985, 71.683 84.188 C 71.972 83.466, 71.936 82.603, 71.604 82.271 C 71.272 81.939, 71.036 82.529, 71.079 83.583 M 77.638 84.500 C 77.322 85.325, 77.499 86, 78.031 86 C 78.564 86, 79 85.325, 79 84.500 C 79 83.675, 78.823 83, 78.607 83 C 78.391 83, 77.955 83.675, 77.638 84.500 M 82.500 84 C 82.160 84.550, 82.584 85, 83.441 85 C 84.298 85, 85 84.550, 85 84 C 85 83.450, 84.577 83, 84.059 83 C 83.541 83, 82.840 83.450, 82.500 84 M 90.633 84.956 C 89.434 85.379, 89.628 85.753, 91.508 86.638 C 93.316 87.489, 93.872 87.489, 93.713 86.638 C 93.596 86.012, 94.063 85.612, 94.750 85.750 C 95.438 85.888, 96 85.578, 96 85.062 C 96 84.081, 93.268 84.027, 90.633 84.956 M 95.500 88 C 95.840 88.550, 96.541 89, 97.059 89 C 97.577 89, 98 88.550, 98 88 C 98 87.450, 97.298 87, 96.441 87 C 95.584 87, 95.160 87.450, 95.500 88 M 113.990 91 C 115.658 94.256, 115.700 94.294, 116.376 93.200 C 116.693 92.687, 115.998 91.420, 114.831 90.384 C 112.715 88.505, 112.712 88.507, 113.990 91 M 138.500 96.383 L 135.500 97.676 138.803 98.172 C 141.317 98.550, 142.341 98.231, 143.089 96.835 C 144.276 94.616, 142.912 94.482, 138.500 96.383 M 161.500 96 C 161.840 96.550, 162.316 97, 162.559 97 C 162.802 97, 163 96.550, 163 96 C 163 95.450, 162.523 95, 161.941 95 C 161.359 95, 161.160 95.450, 161.500 96 M 133 97 C 133 97.550, 133.450 98, 134 98 C 134.550 98, 135 97.550, 135 97 C 135 96.450, 134.550 96, 134 96 C 133.450 96, 133 96.450, 133 97 M 92.038 98.454 C 90.942 99.775, 91.101 99.998, 93.128 99.985 C 95.485 99.969, 99.594 98.045, 97.332 98.015 C 96.689 98.007, 95.524 97.755, 94.742 97.454 C 93.960 97.154, 92.743 97.604, 92.038 98.454 M 85 99.500 C 85 100.530, 85.655 101.020, 86.750 100.810 C 88.858 100.404, 88.725 98.629, 86.553 98.177 C 85.647 97.988, 85 98.539, 85 99.500 M 150.750 99.662 C 151.438 99.940, 152.563 99.940, 153.250 99.662 C 153.938 99.385, 153.375 99.158, 152 99.158 C 150.625 99.158, 150.063 99.385, 150.750 99.662 M 135.015 103.281 C 135.028 105.081, 135.214 105.216, 136 104 C 136.841 102.698, 136.971 102.717, 136.985 104.143 C 137.004 106.264, 139.669 107.306, 140.374 105.469 C 140.670 104.696, 140.521 103.822, 140.042 103.526 C 139.563 103.230, 138.943 103.553, 138.664 104.244 C 138.342 105.044, 138.129 104.904, 138.079 103.857 C 137.951 101.204, 134.997 100.649, 135.015 103.281 M 19.086 107.750 C 19.164 112.069, 19.251 112.236, 20.044 109.585 C 20.523 107.982, 21.497 106.295, 22.208 105.835 C 23.239 105.169, 23.197 104.801, 22 104.015 C 19.419 102.321, 18.997 102.861, 19.086 107.750 M 30.566 103.893 C 30.306 104.314, 30.963 104.595, 32.026 104.517 C 34.684 104.321, 35.349 103.452, 32.977 103.273 C 31.911 103.193, 30.826 103.472, 30.566 103.893 M 142.079 104.583 C 142.127 105.748, 142.364 105.985, 142.683 105.188 C 142.972 104.466, 142.936 103.603, 142.604 103.271 C 142.272 102.939, 142.036 103.529, 142.079 104.583 M 67.710 106 C 68.338 108.401, 69.559 108.592, 70.393 106.418 C 71.270 104.133, 71.198 104, 69.094 104 C 67.680 104, 67.322 104.517, 67.710 106 M 158.813 104.683 C 159.534 104.972, 160.397 104.936, 160.729 104.604 C 161.061 104.272, 160.471 104.036, 159.417 104.079 C 158.252 104.127, 158.015 104.364, 158.813 104.683 M 184 105.835 C 184 106.935, 184.310 106.988, 185.411 106.074 C 187.166 104.617, 188.270 106.116, 187.316 108.660 C 186.708 110.281, 186.827 110.336, 188.313 109.128 C 189.844 107.882, 189.987 108.112, 189.864 111.628 C 189.777 114.102, 189.567 114.659, 189.284 113.169 C 188.862 110.955, 188.769 110.930, 187.452 112.669 C 186.119 114.427, 186.058 114.421, 185.913 112.500 C 185.719 109.917, 185.727 109.859, 186.549 107.500 C 187.158 105.753, 187.034 105.784, 185.565 107.752 C 184.641 108.990, 184.162 110.453, 184.501 111.002 C 185.521 112.653, 181.796 112.125, 179.823 110.339 C 178.813 109.426, 177.657 109.010, 177.252 109.414 C 176.848 109.819, 177.300 110.589, 178.258 111.125 C 180.146 112.181, 180.674 116, 178.933 116 C 178.294 116, 178.134 115.097, 178.536 113.750 C 179.177 111.600, 179.142 111.585, 177.755 113.403 C 176.957 114.449, 175.821 115.008, 175.232 114.644 C 174.643 114.280, 173.558 114.584, 172.822 115.321 C 172.085 116.058, 170.981 116.494, 170.368 116.289 C 169.756 116.085, 169.014 116.837, 168.721 117.959 C 168.303 119.557, 167.371 120, 164.427 120 C 158.673 120, 160.799 120.843, 167.526 121.228 C 171.923 121.480, 173.512 121.957, 173.545 123.035 C 173.570 123.841, 174.133 124.388, 174.795 124.250 C 175.458 124.113, 176 124.450, 176 125 C 176 125.550, 174.988 126.045, 173.750 126.100 C 171.591 126.195, 171.602 126.232, 174 127 C 175.375 127.440, 175.825 127.861, 175 127.936 C 174.033 128.023, 174.389 128.579, 176 129.500 L 178.500 130.929 176.191 130.965 C 174.921 130.984, 174.126 131.395, 174.425 131.878 C 174.723 132.361, 173.512 133.088, 171.734 133.493 C 168.532 134.221, 168.525 134.236, 171 135.015 C 172.375 135.447, 179.463 135.845, 186.750 135.900 L 200 136 200 126.200 C 200 119.911, 199.570 115.970, 198.800 115.200 C 197.867 114.267, 197.867 114, 198.800 114 C 200.081 114, 200.514 110.060, 199.250 109.912 C 198.838 109.864, 196.925 109.751, 195 109.662 C 192.388 109.541, 191.069 108.817, 189.800 106.808 C 188.009 103.971, 184 103.299, 184 105.835 M 179 106 C 179 106.550, 179.450 107, 180 107 C 180.550 107, 181 106.550, 181 106 C 181 105.450, 180.550 105, 180 105 C 179.450 105, 179 105.450, 179 106 M 84.813 107.683 C 85.534 107.972, 86.397 107.936, 86.729 107.604 C 87.061 107.272, 86.471 107.036, 85.417 107.079 C 84.252 107.127, 84.015 107.364, 84.813 107.683 M 98.269 107.693 C 99.242 107.947, 100.592 107.930, 101.269 107.656 C 101.946 107.382, 101.150 107.175, 99.500 107.195 C 97.850 107.215, 97.296 107.439, 98.269 107.693 M 141 108 C 141 108.550, 141.702 109, 142.559 109 C 143.416 109, 143.840 108.550, 143.500 108 C 143.160 107.450, 142.459 107, 141.941 107 C 141.423 107, 141 107.450, 141 108 M 138 109.559 C 138 110.416, 138.457 110.835, 139.016 110.490 C 139.575 110.144, 139.774 109.443, 139.457 108.931 C 138.600 107.544, 138 107.802, 138 109.559 M 172.143 109.890 C 171.112 110.544, 171.075 110.929, 171.989 111.493 C 172.652 111.903, 173.919 111.510, 174.810 110.618 C 176.160 109.269, 176.185 109.003, 174.964 109.015 C 174.159 109.024, 172.889 109.417, 172.143 109.890 M 100 111 C 100 111.550, 101.013 111.993, 102.250 111.985 C 104.069 111.972, 104.213 111.784, 103 111 C 101.061 109.747, 100 109.747, 100 111 M 164 112 C 164 113.443, 164.667 114, 166.393 114 C 169.151 114, 170.615 111.450, 168.355 110.583 C 165.525 109.497, 164 109.993, 164 112 M 69.638 112.500 C 69.955 113.325, 70.391 114, 70.607 114 C 70.823 114, 71 113.325, 71 112.500 C 71 111.675, 70.564 111, 70.031 111 C 69.499 111, 69.322 111.675, 69.638 112.500 M 91.813 111.683 C 92.534 111.972, 93.397 111.936, 93.729 111.604 C 94.061 111.272, 93.471 111.036, 92.417 111.079 C 91.252 111.127, 91.015 111.364, 91.813 111.683 M 196.813 111.683 C 197.534 111.972, 198.397 111.936, 198.729 111.604 C 199.061 111.272, 198.471 111.036, 197.417 111.079 C 196.252 111.127, 196.015 111.364, 196.813 111.683 M 34.656 114.206 C 34.339 115.420, 34.304 116.638, 34.579 116.913 C 34.854 117.188, 35.338 116.425, 35.653 115.218 C 35.969 114.010, 36.626 113.269, 37.114 113.570 C 37.601 113.872, 38 113.641, 38 113.059 C 38 111.054, 35.232 112.003, 34.656 114.206 M 18 114.500 C 18 115.325, 18.177 116, 18.393 116 C 18.609 116, 19.045 115.325, 19.362 114.500 C 19.678 113.675, 19.501 113, 18.969 113 C 18.436 113, 18 113.675, 18 114.500 M 23 115 C 23 115.550, 23.477 116, 24.059 116 C 24.641 116, 24.840 115.550, 24.500 115 C 24.160 114.450, 23.684 114, 23.441 114 C 23.198 114, 23 114.450, 23 115 M 145.079 115.583 C 145.127 116.748, 145.364 116.985, 145.683 116.188 C 145.972 115.466, 145.936 114.603, 145.604 114.271 C 145.272 113.939, 145.036 114.529, 145.079 115.583 M 150 115 C 150 115.550, 150.477 116, 151.059 116 C 151.641 116, 151.840 115.550, 151.500 115 C 151.160 114.450, 150.684 114, 150.441 114 C 150.198 114, 150 114.450, 150 115 M 14.079 116.583 C 14.127 117.748, 14.364 117.985, 14.683 117.188 C 14.972 116.466, 14.936 115.603, 14.604 115.271 C 14.272 114.939, 14.036 115.529, 14.079 116.583 M 72.667 115.667 C 72.300 116.033, 72 116.798, 72 117.367 C 72 117.993, 72.466 117.934, 73.183 117.217 C 73.834 116.566, 74.134 115.801, 73.850 115.517 C 73.566 115.233, 73.033 115.300, 72.667 115.667 M 146.286 118.603 C 144.096 121.062, 143.324 121.122, 136.750 119.340 C 135.626 119.035, 135 119.426, 135 120.433 C 135 121.757, 136.638 122, 145.559 122 C 152.344 122, 155.897 121.643, 155.500 121 C 155.160 120.450, 153.053 120, 150.819 120 C 147.291 120, 146.922 119.799, 148.020 118.476 C 150.173 115.882, 148.608 115.997, 146.286 118.603 M 186.079 117.583 C 186.127 118.748, 186.364 118.985, 186.683 118.188 C 186.972 117.466, 186.936 116.603, 186.604 116.271 C 186.272 115.939, 186.036 116.529, 186.079 117.583 M 189 117.500 C 189 118.325, 189.436 119, 189.969 119 C 190.501 119, 190.678 118.325, 190.362 117.500 C 190.045 116.675, 189.609 116, 189.393 116 C 189.177 116, 189 116.675, 189 117.500 M 137 118 C 137 118.550, 137.450 119, 138 119 C 138.550 119, 139 118.550, 139 118 C 139 117.450, 138.550 117, 138 117 C 137.450 117, 137 117.450, 137 118 M 173 118.059 C 173 118.641, 173.450 118.840, 174 118.500 C 174.550 118.160, 175 117.684, 175 117.441 C 175 117.198, 174.550 117, 174 117 C 173.450 117, 173 117.477, 173 118.059 M 197 118 C 197 118.550, 197.450 119, 198 119 C 198.550 119, 199 118.550, 199 118 C 199 117.450, 198.550 117, 198 117 C 197.450 117, 197 117.450, 197 118 M 79 120.827 C 79 122.310, 79.597 122.566, 82.171 122.188 C 85.120 121.755, 85.211 121.628, 83.480 120.361 C 80.889 118.467, 79 118.663, 79 120.827 M 3.583 120.866 C 3.152 121.563, 3.070 122.403, 3.400 122.733 C 4.295 123.628, 5.271 122.312, 4.787 120.862 C 4.449 119.846, 4.213 119.846, 3.583 120.866 M 105 121 C 105 121.550, 105.450 122, 106 122 C 106.550 122, 107 121.550, 107 121 C 107 120.450, 106.550 120, 106 120 C 105.450 120, 105 120.450, 105 121 M 96.250 121.716 C 97.763 121.945, 100.237 121.945, 101.750 121.716 C 103.263 121.487, 102.025 121.300, 99 121.300 C 95.975 121.300, 94.737 121.487, 96.250 121.716 M 24 124 C 24 124.550, 24.477 125, 25.059 125 C 25.641 125, 25.840 124.550, 25.500 124 C 25.160 123.450, 24.684 123, 24.441 123 C 24.198 123, 24 123.450, 24 124 M 53.766 125.445 C 53.487 126.905, 53.690 127.692, 54.256 127.342 C 54.788 127.013, 55.616 127.364, 56.096 128.122 C 56.818 129.261, 56.967 129.240, 56.953 128 C 56.944 127.175, 56.330 125.701, 55.590 124.725 C 54.337 123.074, 54.209 123.124, 53.766 125.445 M 186.500 124 C 186.160 124.550, 186.359 125, 186.941 125 C 187.523 125, 188 124.550, 188 124 C 188 123.450, 187.802 123, 187.559 123 C 187.316 123, 186.840 123.450, 186.500 124 M 79.149 128.962 C 79.036 133.997, 79.053 134.025, 81.768 133.361 C 85.290 132.499, 86.141 131.111, 84.716 128.554 C 84.086 127.424, 83.555 126.050, 83.535 125.500 C 83.516 124.950, 82.547 124.364, 81.382 124.198 C 79.475 123.926, 79.252 124.402, 79.149 128.962 M 134.805 126.872 C 133.965 132.596, 136.116 133.784, 146 133.058 C 149.273 132.817, 149.338 132.749, 147 132 C 144.594 131.229, 144.617 131.196, 147.633 131.100 C 149.702 131.034, 150.938 130.405, 151.270 129.250 C 151.547 128.287, 152.092 126.600, 152.481 125.500 C 153.041 123.917, 152.969 123.811, 152.136 124.992 C 151.298 126.180, 150.830 126.230, 149.842 125.242 C 149.100 124.500, 145.905 124, 141.913 124 C 135.315 124, 135.221 124.038, 134.805 126.872 M 154.577 126.550 C 154.153 128.239, 154.351 129.713, 155.092 130.395 C 155.998 131.227, 156.154 131.098, 155.725 129.872 C 155.412 128.976, 155.552 127.848, 156.037 127.363 C 156.521 126.879, 156.545 125.882, 156.091 125.147 C 155.494 124.181, 155.074 124.571, 154.577 126.550 M 191.079 125.583 C 191.127 126.748, 191.364 126.985, 191.683 126.188 C 191.972 125.466, 191.936 124.603, 191.604 124.271 C 191.272 123.939, 191.036 124.529, 191.079 125.583 M 10 125.969 C 10 126.501, 10.675 126.678, 11.500 126.362 C 12.325 126.045, 13 125.609, 13 125.393 C 13 125.177, 12.325 125, 11.500 125 C 10.675 125, 10 125.436, 10 125.969 M 96 125.893 C 96 126.384, 96.563 126.993, 97.250 127.246 C 99.008 127.892, 101.125 127.011, 100.447 125.915 C 99.719 124.737, 96 124.719, 96 125.893 M 105 127.441 C 105 128.298, 105.450 129, 106 129 C 106.550 129, 107 128.577, 107 128.059 C 107 127.541, 106.550 126.840, 106 126.500 C 105.450 126.160, 105 126.584, 105 127.441 M 9.500 129 C 9.840 129.550, 10.316 130, 10.559 130 C 10.802 130, 11 129.550, 11 129 C 11 128.450, 10.523 128, 9.941 128 C 9.359 128, 9.160 128.450, 9.500 129 M 21.334 130.427 C 21.964 131.762, 22.637 132.696, 22.831 132.503 C 23.451 131.882, 21.896 128, 21.027 128 C 20.566 128, 20.704 129.092, 21.334 130.427 M 145 129 C 145 129.550, 145.675 130, 146.500 130 C 147.325 130, 148 129.550, 148 129 C 148 128.450, 147.325 128, 146.500 128 C 145.675 128, 145 128.450, 145 129 M 40 132 C 40 132.550, 40.477 133, 41.059 133 C 41.641 133, 41.840 132.550, 41.500 132 C 41.160 131.450, 40.684 131, 40.441 131 C 40.198 131, 40 131.450, 40 132 M 140.750 131.662 C 141.438 131.940, 142.563 131.940, 143.250 131.662 C 143.938 131.385, 143.375 131.158, 142 131.158 C 140.625 131.158, 140.063 131.385, 140.750 131.662 M 1 148.555 L 1 153.227 5.417 152.565 C 9.159 152.004, 9.906 152.177, 10.301 153.701 C 10.624 154.945, 10.787 154.729, 10.829 153 C 10.868 151.379, 9.854 149.682, 7.945 148.174 L 5 145.848 5 148.924 C 5 150.616, 4.550 152, 4 152 C 3.450 152, 3 150.452, 3 148.559 C 3 146.666, 2.550 144.840, 2 144.500 C 1.388 144.122, 1 145.694, 1 148.555 M 13.393 149.582 C 13.727 150.452, 14.029 152.139, 14.063 153.332 C 14.124 155.391, 14.176 155.377, 15.099 153.065 C 16.189 150.339, 15.646 148, 13.924 148 C 13.297 148, 13.059 148.710, 13.393 149.582 M 61 151.500 C 61 152.325, 61.450 153, 62 153 C 62.550 153, 63 152.325, 63 151.500 C 63 150.675, 62.550 150, 62 150 C 61.450 150, 61 150.675, 61 151.500 M 157.707 153.013 C 157.373 154.289, 157.788 155.321, 158.840 155.830 C 160.351 156.562, 161.254 156.612, 164.611 156.152 C 165.239 156.066, 165.515 154.913, 165.245 153.500 C 164.851 151.441, 164.191 151, 161.500 151 C 159.067 151, 158.099 151.514, 157.707 153.013 M 1.750 154.662 C 2.438 154.940, 3.563 154.940, 4.250 154.662 C 4.938 154.385, 4.375 154.158, 3 154.158 C 1.625 154.158, 1.063 154.385, 1.750 154.662 M 19 155 C 19 155.550, 20.462 155.968, 22.250 155.930 C 24.974 155.871, 25.176 155.720, 23.500 155 C 20.737 153.813, 19 153.813, 19 155 M 68.500 157 C 68.840 157.550, 69.568 158, 70.118 158 C 70.668 158, 70.840 157.550, 70.500 157 C 70.160 156.450, 69.432 156, 68.882 156 C 68.332 156, 68.160 156.450, 68.500 157 M 111.898 160.935 C 109.546 165.380, 109.471 165.840, 111.122 165.716 C 112.126 165.640, 113.199 164.924, 113.505 164.125 C 114.214 162.278, 115.225 155.997, 114.812 156.008 C 114.640 156.013, 113.329 158.230, 111.898 160.935 M 181.572 160.750 C 182.069 161.162, 182.813 161.950, 183.223 162.500 C 183.649 163.071, 183.976 162.749, 183.985 161.750 C 183.993 160.777, 183.260 160, 182.333 160 C 181.417 160, 181.074 160.338, 181.572 160.750 M 37.813 191.683 C 38.534 191.972, 39.397 191.936, 39.729 191.604 C 40.061 191.272, 39.471 191.036, 38.417 191.079 C 37.252 191.127, 37.015 191.364, 37.813 191.683 M 42.250 191.689 C 43.212 191.941, 44.788 191.941, 45.750 191.689 C 46.712 191.438, 45.925 191.232, 44 191.232 C 42.075 191.232, 41.288 191.438, 42.250 191.689 M 197 194.059 C 197 194.641, 197.450 194.840, 198 194.500 C 198.550 194.160, 199 193.684, 199 193.441 C 199 193.198, 198.550 193, 198 193 C 197.450 193, 197 193.477, 197 194.059 M 51.813 196.683 C 52.534 196.972, 53.397 196.936, 53.729 196.604 C 54.061 196.272, 53.471 196.036, 52.417 196.079 C 51.252 196.127, 51.015 196.364, 51.813 196.683" stroke="none" fill="#c7d4d8" fill-rule="evenodd"/>
</svg>