<svg xmlns="http://www.w3.org/2000/svg" width="200" height="200" viewBox="0 0 200 200" version="1.1">
	<rect x="0" y="0" width="100%" height="100%" fill="#fff" />
	<path d="M 0 92.441 C 0 158.934, 0.311 185.074, 1.107 185.566 C 1.881 186.045, 1.815 186.496, 0.886 187.071 C -1.068 188.278, 0.495 189.295, 3.057 188.482 C 4.472 188.033, 4.851 187.526, 4.113 187.070 C 3.365 186.607, 3.843 185.887, 5.481 185.010 C 6.866 184.269, 8 183.288, 8 182.831 C 8 182.374, 9.098 182, 10.441 182 C 11.784 182, 13.160 181.550, 13.500 181 C 13.840 180.450, 14.922 180, 15.904 180 C 18.614 180, 21.279 176.679, 19.775 175.175 C 17.607 173.007, 22.133 169.739, 27.676 169.472 C 33.585 169.188, 38 168.084, 38 166.892 C 38 166.401, 40.250 166, 43 166 C 45.958 166, 48 166.448, 48 167.096 C 48 167.698, 48.869 169.412, 49.931 170.903 C 56.104 179.572, 56.262 187.750, 50.405 195.421 L 46.908 200 99.254 200 C 135.777 200, 151.930 199.670, 152.693 198.907 C 153.429 198.171, 154.391 198.134, 155.643 198.793 C 156.664 199.332, 166.923 199.833, 178.440 199.909 L 199.380 200.045 195.726 197.273 C 193.717 195.748, 192.056 193.922, 192.036 193.215 C 192.010 192.288, 191.497 192.199, 190.197 192.895 C 188.794 193.645, 188.101 193.375, 187.079 191.680 C 186.144 190.128, 186.122 189.838, 187.004 190.672 C 188.610 192.190, 191 191.259, 191 189.115 C 191 188.196, 190.212 186.701, 189.250 185.793 C 184.562 181.368, 184.184 179.764, 188.494 182.588 C 190.843 184.127, 190.937 184.089, 191.542 181.338 C 191.886 179.777, 192.367 177.868, 192.611 177.096 C 192.856 176.323, 190.906 173.661, 188.278 171.179 C 185.650 168.697, 184.063 166.993, 184.750 167.392 C 186.698 168.523, 186.268 164.952, 184.011 161.250 C 182.128 158.161, 182.120 158, 183.854 158 C 185.800 158, 188.427 153.501, 187.427 151.881 C 187.097 151.348, 187.352 150.281, 187.993 149.509 C 188.824 148.507, 188.857 147.588, 188.109 146.302 C 187.130 144.619, 187.059 144.615, 187.030 146.250 C 187.014 147.213, 186.550 148, 186 148 C 185.450 148, 185 147.298, 185 146.441 C 185 145.584, 184.584 145.139, 184.075 145.454 C 183.069 146.076, 178 144.072, 178 143.052 C 178 142.708, 178.900 142.358, 180 142.275 C 181.100 142.192, 182 142.546, 182 143.062 C 182 143.578, 182.361 144, 182.803 144 C 184.224 144, 183.662 113.504, 182.208 111.752 C 181.153 110.479, 181.153 110.099, 182.208 109.673 C 183.247 109.254, 183.234 108.966, 182.143 108.201 C 181.238 107.567, 181.141 107.031, 181.850 106.593 C 183.314 105.688, 182.141 103.009, 180.549 103.620 C 179.674 103.955, 179.350 103.313, 179.537 101.614 C 179.688 100.239, 180.049 98.730, 180.340 98.259 C 180.630 97.789, 180.448 96.751, 179.934 95.952 C 179.121 94.688, 178.862 94.694, 177.934 96 C 177.120 97.147, 177.043 96.912, 177.608 95 C 178.977 90.365, 177.877 85.340, 175.776 86.638 C 175.145 87.028, 174.977 86.846, 175.375 86.202 C 176.031 85.141, 162.792 75, 160.751 75 C 160.236 75, 158.671 74.100, 157.273 73 C 155.308 71.455, 155.115 71, 156.424 71 C 157.356 71, 157.843 70.555, 157.507 70.011 C 157.150 69.434, 157.576 69.284, 158.532 69.651 C 159.841 70.153, 159.901 70.447, 158.834 71.124 C 157.788 71.787, 157.849 71.973, 159.115 71.985 C 160.003 71.993, 161.803 72.823, 163.115 73.830 C 165.986 76.033, 170.101 77.724, 168.388 75.998 C 167.115 74.714, 167.577 67.933, 169.240 63.500 C 170.549 60.010, 174 55.200, 174 56.865 C 174 57.489, 174.450 58, 175 58 C 175.644 58, 176 47.667, 176 29 L 176 0 88 0 L 0 0 0 92.441 M 179.015 43.250 C 179.024 67.038, 179.366 87.028, 179.776 87.673 C 180.187 88.318, 180.519 84.268, 180.515 78.673 C 180.497 53.251, 181.361 26.660, 182 33 L 182.655 39.500 182.827 34.250 C 182.995 29.155, 184.383 27.199, 185.311 30.750 C 185.671 32.130, 185.792 32.047, 185.884 30.357 C 185.948 29.178, 186.652 27.964, 187.450 27.658 C 188.576 27.226, 188.980 28.261, 189.265 32.301 C 189.741 39.073, 190.504 15.113, 190.150 4.500 L 190 0 184.500 0 L 179 0 179.015 43.250 M 194 69 C 194 143.774, 194.294 139.833, 188.934 136.965 C 187.309 136.095, 187 136.263, 187 138.014 C 187 141.815, 189.765 145.528, 194.271 147.778 C 196.717 149, 199.007 150, 199.360 150 C 199.712 150, 200 148.216, 200 146.035 C 200 143.174, 199.475 141.789, 198.114 141.061 C 196.323 140.102, 196.219 138.197, 196.061 103.370 C 195.883 64.080, 196.757 37.010, 198.133 39.181 C 198.722 40.110, 198.974 39.817, 198.985 38.191 C 198.993 36.903, 198.558 36.155, 198 36.500 C 197.450 36.840, 197 36.465, 197 35.666 C 197 34.867, 197.675 33.955, 198.500 33.638 C 199.750 33.159, 200 30.303, 200 16.531 L 200 0 197 0 L 194 0 194 69 M 16.908 15.380 C 17.974 16.671, 18.034 17.366, 17.158 18.242 C 16.281 19.119, 15.971 18.927, 15.882 17.450 C 15.810 16.262, 15.490 16.672, 15.063 18.500 C 14.318 21.692, 15.545 24.399, 17.257 23.341 C 17.824 22.991, 19.573 22.740, 21.144 22.785 C 22.715 22.830, 24 22.420, 24 21.874 C 24 21.328, 23.550 21.160, 23 21.500 C 22.431 21.852, 22 20.991, 22 19.500 C 22 17.756, 22.390 17.123, 23.170 17.605 C 23.968 18.098, 24.127 17.773, 23.670 16.582 C 23.301 15.622, 23 14.648, 23 14.418 C 23 14.188, 22.325 14, 21.500 14 C 20.500 14, 20 15, 20 17 C 20 18.650, 19.645 20, 19.211 20 C 18.776 20, 18.439 18.806, 18.461 17.348 C 18.483 15.856, 17.844 14.472, 17 14.185 C 15.700 13.743, 15.688 13.902, 16.908 15.380 M 63 15.171 C 63 15.815, 62.212 17.270, 61.250 18.404 C 59.583 20.367, 59.583 20.401, 61.250 19.110 C 62.837 17.882, 63 18.062, 63 21.044 C 63 22.853, 63.333 24, 63.741 23.593 C 64.862 22.471, 65.054 14, 63.957 14 C 63.431 14, 63 14.527, 63 15.171 M 66.500 15 C 66.840 15.550, 67.316 16, 67.559 16 C 67.802 16, 68 15.550, 68 15 C 68 14.450, 67.523 14, 66.941 14 C 66.359 14, 66.160 14.450, 66.500 15 M 66 18.500 C 66.685 19.325, 67.695 20, 68.245 20 C 68.803 20, 68.694 19.337, 68 18.500 C 67.315 17.675, 66.305 17, 65.755 17 C 65.197 17, 65.306 17.663, 66 18.500 M 142.502 21.638 C 140.941 24.019, 140.884 24.786, 142.031 27.925 C 143.652 32.361, 143.382 38.360, 141.388 42.217 C 140.432 44.065, 140.104 46.319, 140.497 48.323 C 140.980 50.779, 140.871 51.160, 140.019 50 C 139.187 48.867, 139.074 49.638, 139.557 53.146 C 140.040 56.657, 139.842 58, 138.745 58.646 C 137.946 59.115, 137.038 60.175, 136.726 61 C 136.413 61.825, 136.122 61.074, 136.079 59.332 C 135.989 55.707, 135.123 53, 134.053 53 C 133.650 53, 132.736 54.913, 132.021 57.250 C 130.033 63.756, 128.594 67, 127.697 67 C 127.249 67, 127.152 67.437, 127.482 67.971 C 127.812 68.504, 127.472 70.192, 126.727 71.721 C 125.490 74.257, 125.574 74.694, 127.686 76.714 C 128.965 77.938, 130.007 78.386, 130.015 77.714 C 130.026 76.861, 130.284 76.900, 130.883 77.845 C 131.507 78.830, 131.943 78.428, 132.511 76.345 L 133.287 73.500 134.044 76 C 134.460 77.375, 134.845 79.875, 134.900 81.554 C 134.995 84.467, 134.803 84.618, 130.750 84.810 C 123.115 85.171, 119.018 86.146, 118.031 87.838 C 117.497 88.752, 117.047 89.126, 117.030 88.668 C 117.014 88.211, 115.425 88.810, 113.500 90 C 111.575 91.190, 110 91.715, 110 91.168 C 110 89.642, 118.153 83.950, 121.250 83.315 C 122.763 83.004, 124 82.387, 124 81.942 C 124 81.498, 124.900 80.849, 126 80.500 C 127.100 80.151, 128 79.410, 128 78.853 C 128 77.185, 122.013 78.865, 114.777 82.564 C 111.080 84.454, 107.729 86, 107.331 86 C 106.189 86, 113.101 79.046, 117.376 75.893 C 120.293 73.742, 120.874 72.889, 119.723 72.447 C 117.774 71.699, 111.108 75.090, 108.500 78.156 C 102.799 84.857, 100.002 88.975, 100.015 90.644 C 100.028 92.208, 100.183 92.264, 101 91 C 101.746 89.846, 101.976 90.193, 102 92.500 C 102.017 94.150, 102.516 96.175, 103.110 97 C 104.020 98.266, 104.101 98.227, 103.626 96.750 C 103.316 95.787, 103.499 95, 104.031 95 C 104.564 95, 105 95.527, 105 96.171 C 105 96.815, 105.754 98.176, 106.676 99.195 C 107.962 100.615, 108.078 101.322, 107.176 102.224 C 105.565 103.835, 105.701 105, 107.500 105 C 109.331 105, 109.467 106.607, 107.729 107.700 C 107.030 108.140, 105.894 109.783, 105.204 111.352 C 104.262 113.493, 103.634 113.941, 102.679 113.149 C 101.738 112.368, 100.284 113.062, 97.074 115.827 C 93.732 118.705, 92.676 120.355, 92.462 123.030 C 92.309 124.939, 92.657 127.073, 93.235 127.774 C 93.812 128.475, 93.991 129.342, 93.632 129.701 C 93.273 130.060, 92.346 129.488, 91.571 128.429 C 90.797 127.370, 89.899 126.768, 89.575 127.091 C 88.362 128.305, 92.728 132.042, 94.544 131.345 C 95.680 130.909, 96.091 131.044, 95.675 131.717 C 95.303 132.318, 95.772 132.715, 96.761 132.637 C 98.839 132.473, 99.958 129.299, 98.940 126.458 C 98.165 124.297, 100.115 119.448, 101.287 120.620 C 101.662 120.996, 103.163 120.110, 104.621 118.652 C 106.080 117.193, 107.661 116, 108.136 116 C 108.611 116, 109 115.325, 109 114.500 C 109 113.675, 109.405 113, 109.901 113 C 110.396 113, 111.288 111.313, 111.883 109.250 C 112.876 105.811, 112.927 105.770, 112.508 108.750 C 111.849 113.427, 112.588 112.757, 114.526 106.920 C 116.361 101.397, 119.579 98.677, 125.618 97.544 C 127.478 97.195, 129 96.449, 129 95.887 C 129 95.320, 129.890 95.148, 131 95.500 C 132.441 95.957, 133 95.680, 133 94.506 C 133 93.143, 132.224 92.978, 128.250 93.493 C 119.461 94.633, 118.688 94.919, 120.034 96.541 C 121.011 97.718, 120.931 98, 119.622 98 C 118.730 98, 118 97.550, 118 97 C 118 96.450, 116.763 95.990, 115.250 95.977 C 112.770 95.957, 113.039 95.616, 118 92.500 C 121.025 90.600, 124.197 89.035, 125.050 89.023 C 125.902 89.010, 127.140 88.460, 127.800 87.800 C 128.460 87.140, 129.007 87.028, 129.015 87.550 C 129.024 88.073, 129.361 87.994, 129.765 87.376 C 131.214 85.159, 134.990 87.689, 135.125 90.968 C 135.194 92.635, 135.363 94.900, 135.500 96 C 135.637 97.100, 135.806 98.771, 135.875 99.714 C 136.088 102.640, 138.390 99.336, 142.381 90.374 C 147.385 79.138, 147.232 71.353, 141.949 68.427 C 139.575 67.112, 139.630 67.070, 143.750 67.035 C 146.088 67.016, 148 67.378, 148 67.839 C 148 68.608, 152.301 71, 153.682 71 C 154.005 71, 153.080 70.064, 151.625 68.920 C 150.171 67.776, 149.212 66.465, 149.495 66.007 C 150.235 64.811, 148.203 26.068, 147.217 22.565 C 146.114 18.645, 144.651 18.358, 142.502 21.638 M 143.012 22.977 C 142.149 24.591, 142.234 24.847, 143.477 24.371 C 144.315 24.049, 145 23.159, 145 22.393 C 145 20.440, 144.253 20.659, 143.012 22.977 M 39.016 28.990 C 38.292 29.438, 37.952 30.707, 38.250 31.850 C 38.546 32.980, 38.273 34.151, 37.644 34.452 C 36.818 34.848, 36.850 35.163, 37.756 35.585 C 38.447 35.907, 38.758 36.582, 38.447 37.085 C 38.136 37.588, 38.359 38, 38.941 38 C 39.964 38, 40.379 35.660, 40.093 31.500 C 39.974 29.775, 40.152 29.842, 41.390 31.987 C 42.179 33.356, 42.612 34.818, 42.353 35.237 C 42.094 35.657, 42.310 36, 42.834 36 C 43.358 36, 44.054 35.302, 44.382 34.448 C 44.723 33.558, 44.555 33.157, 43.989 33.507 C 43.440 33.846, 43 33.027, 43 31.666 C 43 28.998, 41.084 27.712, 39.016 28.990 M 44 29.941 C 44 30.459, 44.445 31.157, 44.989 31.493 C 45.555 31.843, 45.723 31.442, 45.382 30.552 C 44.717 28.820, 44 28.503, 44 29.941 M 107.433 34.194 C 104.488 35.145, 100.905 39, 102.967 39 C 103.599 39, 103.616 39.880, 103.013 41.465 C 102.370 43.157, 102.435 44.151, 103.222 44.637 C 103.980 45.105, 103.713 45.601, 102.434 46.102 C 100.958 46.680, 101.330 46.880, 104 46.945 C 105.925 46.992, 108.135 47.432, 108.911 47.924 C 109.741 48.449, 110.975 48.443, 111.911 47.909 C 112.785 47.409, 114.835 46.525, 116.466 45.943 C 118.384 45.259, 119.009 44.624, 118.235 44.145 C 117.576 43.738, 117.228 42.414, 117.461 41.202 C 117.736 39.773, 117.390 39, 116.474 39 C 115.689 39, 115.296 38.391, 115.589 37.629 C 116.183 36.081, 113.476 32.946, 111.679 33.102 C 111.030 33.158, 109.120 33.650, 107.433 34.194 M 16.008 35 C 15.126 37.953, 15.073 45, 15.934 45 C 16.520 45, 17.056 44.100, 17.125 43 C 17.194 41.900, 17.306 40.438, 17.375 39.750 C 17.444 39.063, 18.477 38.361, 19.672 38.191 C 21.437 37.939, 21.742 38.271, 21.299 39.964 C 20.825 41.777, 20.609 41.847, 19.627 40.505 C 18.699 39.236, 18.500 39.497, 18.500 41.982 C 18.500 44.608, 18.857 45, 21.250 45 C 22.762 45, 24 44.550, 24 44 C 24 43.450, 23.581 43, 23.070 43 C 22.529 43, 22.472 41.841, 22.933 40.234 C 23.506 38.235, 23.298 37.068, 22.182 36.026 C 21.042 34.960, 20.534 34.899, 20.236 35.792 C 19.708 37.375, 17.307 37.347, 16.662 35.750 C 16.385 35.063, 16.091 34.725, 16.008 35 M 62.500 35.732 C 58.067 36.839, 57.991 39.804, 62.319 42.750 C 66.200 45.392, 68.476 45.683, 67.611 43.428 C 67.279 42.563, 67.477 40.977, 68.051 39.904 C 68.836 38.438, 68.729 37.586, 67.619 36.476 C 66.086 34.943, 65.814 34.904, 62.500 35.732 M 113.507 40.989 C 113.157 41.555, 113.558 41.723, 114.448 41.382 C 116.180 40.717, 116.497 40, 115.059 40 C 114.541 40, 113.843 40.445, 113.507 40.989 M 111 59 C 111 64.556, 111.310 66, 112.500 66 C 113.325 66, 114 65.564, 114 65.031 C 114 64.499, 114.787 64.350, 115.750 64.701 C 117.417 65.309, 117.417 65.244, 115.750 63.341 C 114.787 62.242, 113.994 60.253, 113.986 58.921 C 113.967 55.460, 112.916 52, 111.883 52 C 111.398 52, 111 55.150, 111 59 M 42.872 54.750 C 41.629 56.336, 41.664 56.371, 43.250 55.128 C 44.212 54.373, 45 53.585, 45 53.378 C 45 52.555, 44.179 53.084, 42.872 54.750 M 35.250 61.481 C 32.362 64.366, 30 67.017, 30 67.373 C 30 68.337, 38.990 59.777, 40.107 57.750 C 41.425 55.357, 41.227 55.509, 35.250 61.481 M 118.582 59 C 119.437 64.158, 121.091 67, 123.240 67 C 125.413 67, 127.413 65.200, 127.686 63 C 127.788 62.175, 128.172 60.511, 128.539 59.303 C 129.171 57.219, 128.959 57.126, 124.379 57.500 C 121.333 57.748, 119.266 57.452, 118.777 56.696 C 118.351 56.038, 118.264 57.075, 118.582 59 M 15.418 57.917 C 15.188 58.146, 15 60.058, 15 62.167 C 15 65.589, 15.268 66, 17.500 66 C 19.189 66, 20.022 65.432, 20.068 64.250 C 20.122 62.857, 20.357 62.959, 21.220 64.750 C 22.960 68.356, 24 67.371, 24 62.118 L 24 57.236 19.918 57.368 C 17.673 57.441, 15.648 57.688, 15.418 57.917 M 80.667 58.667 C 79.620 59.714, 79.888 61.187, 81 60.500 C 82.299 59.697, 82.261 60.333, 80.822 63.492 C 80.174 64.914, 79.082 65.862, 78.395 65.598 C 75.858 64.624, 74.906 67.530, 76.506 71.361 C 77.976 74.877, 80.224 76.065, 81.500 74 C 81.840 73.450, 82.879 72.986, 83.809 72.968 C 84.739 72.951, 86.337 72.302, 87.360 71.527 C 89.164 70.161, 89.155 70.027, 87.074 67.103 C 85.893 65.445, 84.449 62.719, 83.866 61.044 C 82.813 58.025, 81.950 57.383, 80.667 58.667 M 101 59.794 C 98.525 60.700, 96.317 61.562, 96.092 61.711 C 95.445 62.141, 101.872 68, 102.991 68 C 103.546 68, 104 67.362, 104 66.583 C 104 65.804, 104.379 65.017, 104.841 64.833 C 105.895 64.416, 107.214 57.973, 106.225 58.074 C 105.826 58.114, 103.475 58.888, 101 59.794 M 16.697 62.393 C 16.288 63.434, 16.189 64.522, 16.476 64.810 C 17.389 65.722, 18.191 64.227, 17.809 62.328 C 17.459 60.588, 17.405 60.591, 16.697 62.393 M 135.459 64.067 C 135.096 64.653, 135.014 65.348, 135.276 65.610 C 135.538 65.872, 136.019 65.392, 136.345 64.543 C 137.021 62.781, 136.445 62.471, 135.459 64.067 M 55.614 64.816 C 55.200 65.485, 54.536 65.831, 54.138 65.585 C 53.740 65.340, 53.314 66.457, 53.192 68.069 C 52.986 70.769, 53.231 71, 56.302 71 C 59.349 71, 59.636 70.738, 59.636 67.963 C 59.636 65.939, 59.218 65.086, 58.383 65.407 C 57.693 65.671, 56.958 65.373, 56.748 64.743 C 56.470 63.911, 56.160 63.931, 55.614 64.816 M 61.384 66.607 C 60.429 70.409, 61.441 71.736, 64.907 71.227 C 67.157 70.897, 68 70.239, 68 68.815 C 68 64.493, 62.385 62.619, 61.384 66.607 M 41.265 68.250 C 41.134 70.900, 41.266 71.130, 41.982 69.500 C 43.112 66.923, 43.211 65, 42.213 65 C 41.780 65, 41.353 66.463, 41.265 68.250 M 43.571 67.571 C 43.204 69.037, 43.096 70.429, 43.331 70.665 C 43.567 70.900, 44.061 69.894, 44.429 68.429 C 44.796 66.963, 44.904 65.571, 44.669 65.335 C 44.433 65.100, 43.939 66.106, 43.571 67.571 M 45.578 67.546 C 44.807 70.617, 45.843 72.856, 47.110 70.857 C 48.243 69.068, 48.242 65, 47.108 65 C 46.618 65, 45.929 66.146, 45.578 67.546 M 121 70.500 C 121 71.333, 121.889 72, 123 72 C 124.111 72, 125 71.333, 125 70.500 C 125 69.667, 124.111 69, 123 69 C 121.889 69, 121 69.667, 121 70.500 M 25.441 71.468 C 24.374 72.276, 24.007 72.951, 24.628 72.968 C 25.248 72.986, 26.315 72.325, 27 71.500 C 28.581 69.595, 27.935 69.582, 25.441 71.468 M 148.733 71.124 C 149.412 71.808, 150.219 72.115, 150.526 71.807 C 150.834 71.499, 150.279 70.940, 149.293 70.564 C 147.868 70.022, 147.753 70.136, 148.733 71.124 M 87.109 74.588 C 83.592 79.060, 84.335 82.707, 90.250 90.014 L 95.500 96.500 95.796 89.135 C 96.045 82.939, 95.711 81.043, 93.690 77.183 C 92.368 74.660, 90.822 72.441, 90.253 72.251 C 89.684 72.061, 88.270 73.113, 87.109 74.588 M 41.453 77.500 C 41.034 78.600, 40.556 79.763, 40.390 80.083 C 40.224 80.404, 41.418 80.667, 43.044 80.667 C 44.772 80.667, 46 80.137, 46 79.392 C 46 77.679, 44.019 76.529, 43.930 78.191 C 43.891 78.911, 43.489 78.600, 43.037 77.500 L 42.215 75.500 41.453 77.500 M 53.380 77.452 C 52.368 80.089, 53.890 80.757, 60.984 80.790 C 67.271 80.819, 68 80.621, 68 78.883 C 68 77.161, 67.496 77.012, 63.500 77.554 C 60.563 77.952, 59 77.789, 59 77.082 C 59 75.454, 54.021 75.781, 53.380 77.452 M 47.429 80 C 47.429 81.100, 47.541 82, 47.679 82 C 47.817 82, 48.411 81.100, 49 80 C 49.819 78.469, 49.760 78, 48.749 78 C 48.023 78, 47.429 78.900, 47.429 80 M 55 78.969 C 55 79.501, 55.675 79.678, 56.500 79.362 C 57.325 79.045, 58 78.609, 58 78.393 C 58 78.177, 57.325 78, 56.500 78 C 55.675 78, 55 78.436, 55 78.969 M 163 92.059 C 163 92.641, 163.450 92.840, 164 92.500 C 164.550 92.160, 165 91.684, 165 91.441 C 165 91.198, 164.550 91, 164 91 C 163.450 91, 163 91.477, 163 92.059 M 27.015 94.219 C 27.005 95.430, 26.483 95.749, 25.250 95.299 C 23.727 94.744, 23.760 94.961, 25.500 96.968 L 27.500 99.275 20.093 98.760 C 9.986 98.057, 13.314 99.699, 25.749 101.551 C 37.649 103.324, 38 103.448, 38 105.910 C 38 106.994, 38.450 108.160, 39 108.500 C 39.564 108.848, 40 108.038, 40 106.642 C 40 105.281, 39.644 104.017, 39.209 103.833 C 38.773 103.650, 37.158 101.830, 35.620 99.789 C 34.081 97.748, 31.850 95.775, 30.661 95.404 C 29.473 95.034, 28.169 94.229, 27.765 93.615 C 27.304 92.915, 27.025 93.139, 27.015 94.219 M 151.459 95.067 C 151.096 95.653, 151.040 96.373, 151.333 96.667 C 152.050 97.383, 154 96.121, 154 94.941 C 154 93.663, 152.274 93.748, 151.459 95.067 M 85.442 97.094 C 85.134 97.592, 86.034 98, 87.441 98 C 90.505 98, 90.753 97.430, 88.001 96.711 C 86.902 96.423, 85.750 96.596, 85.442 97.094 M 89.262 100.826 C 89.351 102.015, 89.933 102.579, 90.747 102.267 C 92.262 101.686, 91.951 99.817, 90.245 99.248 C 89.623 99.041, 89.181 99.751, 89.262 100.826 M 132.158 101 C 132.158 102.375, 132.385 102.938, 132.662 102.250 C 132.940 101.563, 132.940 100.438, 132.662 99.750 C 132.385 99.063, 132.158 99.625, 132.158 101 M 12.750 103.662 C 13.438 103.940, 14.563 103.940, 15.250 103.662 C 15.938 103.385, 15.375 103.158, 14 103.158 C 12.625 103.158, 12.063 103.385, 12.750 103.662 M 173 107.059 C 173 107.641, 173.450 107.840, 174 107.500 C 174.550 107.160, 175 106.684, 175 106.441 C 175 106.198, 174.550 106, 174 106 C 173.450 106, 173 106.477, 173 107.059 M 33.079 108.583 C 33.127 109.748, 33.364 109.985, 33.683 109.188 C 33.972 108.466, 33.936 107.603, 33.604 107.271 C 33.272 106.939, 33.036 107.529, 33.079 108.583 M 39.382 116.250 C 39.275 130.837, 38.914 136, 38 136 C 37.450 136, 36.947 134.313, 36.882 132.250 C 36.767 128.607, 36.745 128.586, 36.111 131.500 C 35.602 133.839, 34.987 134.434, 33.318 134.202 C 32.140 134.038, 30.880 134.386, 30.516 134.974 C 30.104 135.640, 29.179 135.207, 28.058 133.823 L 26.261 131.604 25.575 133.764 C 25.198 134.952, 25.400 136.879, 26.024 138.045 C 27.113 140.079, 27.214 140.091, 28.508 138.333 C 29.758 136.635, 29.906 136.625, 30.517 138.202 C 31.382 140.433, 30.274 142.123, 28.175 141.777 C 27.230 141.621, 26.500 142.154, 26.500 143 C 26.500 143.943, 27.308 144.416, 28.676 144.275 C 31.444 143.989, 32.467 147.968, 31.477 155.168 C 30.945 159.034, 31.068 160.076, 31.988 159.507 C 32.923 158.930, 32.940 159.243, 32.065 160.879 C 31.047 162.781, 31.191 163, 33.465 163 C 35.137 163, 36 162.448, 36 161.378 C 36 160.048, 36.271 159.980, 37.502 161.002 C 38.421 161.765, 40.225 162.005, 42.146 161.621 C 44.014 161.247, 45.867 161.475, 46.719 162.182 C 48.605 163.747, 50.419 161.209, 48.805 159.265 C 48.014 158.312, 48.129 157.498, 49.234 156.231 C 50.195 155.129, 50.936 151.523, 51.274 146.301 L 51.804 138.101 47.652 136.630 L 43.500 135.158 46.715 135.079 C 50.776 134.979, 51.746 133.092, 51.379 126 C 51.222 122.975, 51.073 118.362, 51.047 115.750 L 51 111 45.211 111 L 39.421 111 39.382 116.250 M 175.500 113 C 174.718 114.266, 176.042 114.266, 178 113 C 179.293 112.165, 179.266 112.029, 177.809 112.015 C 176.879 112.007, 175.840 112.450, 175.500 113 M 105 115 C 105 115.550, 105.477 116, 106.059 116 C 106.641 116, 106.840 115.550, 106.500 115 C 106.160 114.450, 105.684 114, 105.441 114 C 105.198 114, 105 114.450, 105 115 M 168.558 125.907 C 168.249 126.405, 168.898 126.578, 169.999 126.290 C 172.334 125.679, 172.629 125, 170.559 125 C 169.766 125, 168.866 125.408, 168.558 125.907 M 98.020 136.524 C 98.716 137.362, 99.491 137.842, 99.743 137.591 C 100.436 136.897, 99.027 135, 97.819 135 C 97.155 135, 97.231 135.574, 98.020 136.524 M 172.813 135.683 C 173.534 135.972, 174.397 135.936, 174.729 135.604 C 175.061 135.272, 174.471 135.036, 173.417 135.079 C 172.252 135.127, 172.015 135.364, 172.813 135.683 M 32.079 137.583 C 32.127 138.748, 32.364 138.985, 32.683 138.188 C 32.972 137.466, 32.936 136.603, 32.604 136.271 C 32.272 135.939, 32.036 136.529, 32.079 137.583 M 74 142.500 C 74 143.325, 74.177 144, 74.393 144 C 74.609 144, 75.045 143.325, 75.362 142.500 C 75.678 141.675, 75.501 141, 74.969 141 C 74.436 141, 74 141.675, 74 142.500 M 23.020 144.524 C 23.716 145.362, 24.491 145.842, 24.743 145.591 C 25.436 144.897, 24.027 143, 22.819 143 C 22.155 143, 22.231 143.574, 23.020 144.524 M 169.603 143.833 C 169.320 144.292, 170.398 144.667, 172 144.667 C 173.602 144.667, 174.680 144.292, 174.397 143.833 C 174.114 143.375, 173.035 143, 172 143 C 170.965 143, 169.886 143.375, 169.603 143.833 M 91 144.632 C 91 144.756, 91.707 145.564, 92.571 146.429 C 94.698 148.555, 96.618 148.459, 94.872 146.313 C 93.655 144.816, 93.722 144.709, 95.470 145.366 C 96.553 145.773, 97.078 145.744, 96.637 145.303 C 95.941 144.607, 91 144.019, 91 144.632 M 45 152.274 C 45 153.709, 45.508 155.196, 46.128 155.579 C 46.900 156.056, 46.742 156.565, 45.628 157.188 C 43.586 158.331, 43.510 160, 45.500 160 C 46.325 160, 47 159.473, 47 158.829 C 47 158.185, 47.715 156.867, 48.590 155.901 C 49.837 154.523, 49.935 153.751, 49.042 152.322 C 48.045 150.725, 47.985 150.792, 48.557 152.868 C 49.037 154.608, 48.850 155.116, 47.855 154.782 C 47.110 154.532, 46.494 153.611, 46.487 152.734 C 46.480 151.858, 46.143 150.809, 45.737 150.404 C 45.332 149.998, 45 150.840, 45 152.274 M 91 154 C 91 154.550, 91.423 155, 91.941 155 C 92.459 155, 93.160 154.550, 93.500 154 C 93.840 153.450, 93.416 153, 92.559 153 C 91.702 153, 91 153.450, 91 154 M 154.086 162 C 154.116 162.825, 154.527 164.400, 155 165.500 L 155.859 167.500 155.914 165.500 C 155.945 164.400, 155.533 162.825, 155 162 C 154.138 160.667, 154.037 160.667, 154.086 162 M 175 166 C 175 166.550, 175.450 167, 176 167 C 176.550 167, 177 166.550, 177 166 C 177 165.450, 176.550 165, 176 165 C 175.450 165, 175 165.450, 175 166 M 172 166.819 C 172 168.027, 173.897 169.436, 174.591 168.743 C 174.842 168.491, 174.362 167.716, 173.524 167.020 C 172.574 166.231, 172 166.155, 172 166.819 M 177.118 167.927 C 176.127 168.540, 176.211 168.867, 177.485 169.356 C 178.671 169.811, 178.942 170.627, 178.445 172.245 C 178.063 173.485, 178.093 174.177, 178.510 173.783 C 179.539 172.809, 179.995 168.115, 179.114 167.570 C 178.724 167.329, 177.826 167.490, 177.118 167.927 M 14.530 172.951 C 13.923 173.933, 14.558 174.377, 16.214 174.130 C 16.607 174.072, 16.671 174.694, 16.357 175.512 C 16.043 176.330, 16.284 177, 16.893 177 C 18.463 177, 18.266 174.466, 16.589 173.074 C 15.624 172.273, 14.973 172.235, 14.530 172.951 M 183.603 179.167 C 183.886 179.625, 184.541 180, 185.059 180 C 185.577 180, 186 179.625, 186 179.167 C 186 178.708, 185.345 178.333, 184.544 178.333 C 183.743 178.333, 183.320 178.708, 183.603 179.167 M 167 180 C 167 180.550, 167.477 181, 168.059 181 C 168.641 181, 168.840 180.550, 168.500 180 C 168.160 179.450, 167.684 179, 167.441 179 C 167.198 179, 167 179.450, 167 180 M 171.584 184.641 C 171.057 186.014, 171.204 186.076, 172.477 185.019 C 174.212 183.579, 174.393 183, 173.107 183 C 172.616 183, 171.931 183.739, 171.584 184.641 M 184.500 184 C 184.840 184.550, 185.316 185, 185.559 185 C 185.802 185, 186 184.550, 186 184 C 186 183.450, 185.523 183, 184.941 183 C 184.359 183, 184.160 183.450, 184.500 184 M 175.564 188.707 C 175.022 190.132, 175.136 190.247, 176.124 189.267 C 176.808 188.588, 177.115 187.781, 176.807 187.474 C 176.499 187.166, 175.940 187.721, 175.564 188.707 M 162.451 191.266 C 161.992 192.463, 161.191 192.628, 158.958 191.988 C 157.331 191.521, 154.841 191.561, 153.280 192.080 C 150.529 192.993, 150.532 192.998, 153.663 192.544 C 156.120 192.187, 157.566 192.731, 160.142 194.980 C 163.529 197.937, 165.300 198.272, 163.020 195.524 C 162 194.295, 162 193.705, 163.020 192.476 C 163.716 191.638, 164.006 190.673, 163.666 190.333 C 163.326 189.992, 162.779 190.412, 162.451 191.266 M 0 196.833 C 0 198.575, 0.459 200, 1.019 200 C 1.624 200, 1.770 198.883, 1.378 197.250 C 0.437 193.324, 0 193.192, 0 196.833 M 156.262 196.690 C 157.192 197.620, 158.288 198.046, 158.697 197.636 C 159.107 197.226, 158.780 196.473, 157.971 195.961 C 155.536 194.421, 154.455 194.883, 156.262 196.690 M 179.279 196.548 C 179.707 197.012, 180.607 197.485, 181.279 197.599 C 181.951 197.713, 183.287 198.123, 184.250 198.510 C 185.286 198.927, 186 198.763, 186 198.107 C 186 197.498, 185.438 196.994, 184.750 196.986 C 184.063 196.979, 182.375 196.687, 181 196.339 C 179.625 195.990, 178.851 196.084, 179.279 196.548 M 14.500 198 C 12.870 198.701, 12.812 198.872, 14.191 198.930 C 15.121 198.968, 16.160 198.550, 16.500 198 C 17.211 196.850, 17.176 196.850, 14.500 198" stroke="none" fill="#c7d4d8" fill-rule="evenodd"/>
</svg>