<svg xmlns="http://www.w3.org/2000/svg" width="200" height="222" viewBox="0 0 200 222" version="1.1">
	<rect x="0" y="0" width="100%" height="100%" fill="#fff" />
	<path d="M 0.033 28.366 C 0.019 52.652, 0.234 56.876, 1.508 57.365 C 3.400 58.091, 3.501 63, 1.624 63 C 0.564 63, 0.220 65.123, 0.127 72.250 L 0.007 81.500 2.633 78.543 C 4.182 76.800, 4.796 75.432, 4.130 75.210 C 3.508 75.003, 3 74.366, 3 73.794 C 3 73.182, 3.637 73.284, 4.551 74.042 C 6.353 75.538, 6.107 80.621, 4.250 80.250 C 3.562 80.112, 3 80.450, 3 81 C 3 81.550, 2.315 82, 1.478 82 C 0.136 82, -0.035 87.715, 0.029 130.500 C 0.084 167.494, 0.386 179.004, 1.301 179.015 C 2.160 179.026, 2.183 179.239, 1.382 179.765 C 0.624 180.263, 0.221 187.177, 0.133 201.188 L 0.002 221.877 57.379 221.921 L 114.757 221.966 115.378 218.858 C 116.310 214.200, 116.286 214.151, 112.250 212.250 C 110.188 211.279, 108.500 209.813, 108.500 208.992 C 108.500 208.171, 107.712 206.912, 106.750 206.193 C 105.787 205.475, 105 204.237, 105 203.443 C 105 202.649, 104.592 202, 104.094 202 C 103.595 202, 103.426 203.012, 103.719 204.250 C 104.243 206.470, 104.229 206.473, 102.657 204.500 C 101.443 202.976, 101.049 202.857, 101.001 204 C 100.953 205.168, 100.709 205.105, 99.899 203.712 C 99.327 202.729, 99.054 201.379, 99.294 200.712 C 99.534 200.046, 99.303 198.672, 98.781 197.659 C 98.153 196.441, 98.237 194.843, 99.027 192.934 C 100.033 190.507, 100.526 190.211, 102.132 191.071 C 103.182 191.633, 104.476 191.824, 105.007 191.496 C 106.076 190.835, 105.821 187.488, 104.609 186.276 C 104.182 185.849, 103.983 186.175, 104.167 187 C 104.628 189.075, 100.926 188.712, 93.615 185.966 L 87.731 183.756 88.395 174.121 L 89.058 164.486 85.614 162.631 C 83.720 161.611, 81.569 161.085, 80.835 161.463 C 80.101 161.840, 80.370 161.442, 81.434 160.580 C 83.157 159.181, 83.615 159.173, 85.649 160.505 C 88.590 162.433, 89.587 162.412, 87.965 160.458 C 86.995 159.289, 86.966 158.634, 87.842 157.758 C 88.479 157.121, 89 155.774, 89 154.765 C 89 153.315, 88.626 153.130, 87.219 153.883 C 86.240 154.407, 82.139 155.161, 78.107 155.558 C 70.927 156.266, 70.790 156.236, 71.455 154.140 C 72.005 152.409, 71.726 152, 69.998 152 C 68.354 152, 67.935 151.481, 68.180 149.750 C 68.457 147.801, 69.180 147.461, 73.590 147.205 C 79.923 146.837, 82.366 148.833, 79.483 152.019 C 77.734 153.951, 77.763 154, 80.654 154 C 82.284 154, 84.491 153.347, 85.559 152.550 C 87.406 151.170, 87.378 151.129, 85 151.707 C 82.535 152.305, 82.526 152.285, 84.344 150.224 C 85.358 149.075, 86.821 148.378, 87.594 148.674 C 88.437 148.998, 89 148.580, 89 147.632 C 89 146.357, 88.514 146.234, 86.500 147 C 83.199 148.255, 83.282 146.722, 86.612 144.940 C 88.048 144.171, 89.704 142.408, 90.292 141.021 C 91.627 137.869, 92.023 129.133, 90.864 128.416 C 90.389 128.122, 90 126.390, 90 124.566 C 90 118.592, 88.820 115.112, 86.216 113.406 C 83.861 111.863, 83.576 111.860, 82.473 113.368 C 81.817 114.265, 80.429 115.034, 79.390 115.076 C 78.229 115.123, 78.850 115.672, 81 116.500 L 84.500 117.848 79.473 117.924 C 76.612 117.967, 73.467 118.685, 72.176 119.589 C 70.928 120.463, 69.196 120.905, 68.327 120.572 C 67.458 120.238, 66.069 120.528, 65.241 121.215 C 63.937 122.297, 64.055 122.552, 66.117 123.107 C 67.489 123.476, 65.743 123.753, 62 123.760 C 57.686 123.769, 56.173 123.498, 57.500 122.957 C 59.400 122.181, 59.388 122.137, 57.250 122.070 C 56.013 122.032, 55 122.450, 55 123 C 55 123.550, 54.550 124, 54 124 C 52.386 124, 52.854 121.270, 54.582 120.607 C 55.452 120.273, 57.702 120, 59.582 120 C 61.462 120, 63.004 119.662, 63.008 119.250 C 63.012 118.838, 64.025 117.996, 65.258 117.381 C 66.491 116.765, 69.020 115.466, 70.878 114.494 C 72.737 113.521, 76.224 112.504, 78.628 112.233 C 81.033 111.962, 83.042 111.461, 83.094 111.120 C 83.145 110.779, 83.236 107.492, 83.295 103.815 C 83.354 100.139, 83.729 97.333, 84.129 97.580 C 84.906 98.060, 85.630 96.194, 86.396 91.741 C 87.324 86.349, 88.185 84.969, 92.450 82.034 C 98.052 78.180, 98.952 74.920, 95.535 70.859 C 94.141 69.202, 93 67.261, 93 66.546 C 93 65.830, 92.375 64.726, 91.611 64.092 C 89.643 62.459, 88.823 57.718, 90.628 58.411 C 91.677 58.813, 92 57.769, 92 53.969 C 92 51.236, 92.450 49, 93 49 C 93.550 49, 94 49.450, 94 50 C 94 50.550, 94.675 51, 95.500 51 C 97.922 51, 97.218 52.989, 94.750 53.116 C 93.057 53.203, 92.933 53.345, 94.250 53.689 C 95.213 53.941, 96 54.564, 96 55.073 C 96 55.583, 96.900 56, 98 56 C 100.109 56, 100.691 54.545, 99 53.500 C 98.450 53.160, 98.010 52.346, 98.022 51.691 C 98.053 50.056, 101.950 55.161, 101.978 56.872 C 101.996 57.979, 102.291 58.004, 103.500 57 C 104.698 56.006, 105.307 56.010, 106.524 57.020 C 107.362 57.716, 108.334 58, 108.682 57.651 C 109.031 57.303, 109.901 57.503, 110.615 58.096 C 111.650 58.954, 111.395 59.656, 109.367 61.536 C 107.860 62.932, 107.123 64.389, 107.562 65.101 C 108.115 65.996, 107.241 66.162, 104.153 65.747 C 101.869 65.441, 99.749 65.598, 99.441 66.095 C 98.970 66.857, 102.722 67.518, 105.250 67.118 C 105.662 67.053, 106 67.439, 106 67.975 C 106 68.511, 104.762 68.794, 103.250 68.604 C 101.737 68.414, 101.175 68.469, 102 68.726 C 105.218 69.730, 105.279 70.979, 102.174 72.285 L 98.998 73.620 101.038 75.810 C 102.160 77.015, 103.419 78, 103.836 78 C 104.253 78, 106.260 76.294, 108.297 74.208 C 111.036 71.403, 112.027 69.516, 112.102 66.958 L 112.205 63.500 113.002 66.879 C 113.441 68.738, 114.228 70.538, 114.750 70.879 C 115.273 71.221, 116.234 72.513, 116.885 73.750 C 117.752 75.396, 118.965 76, 121.400 76 C 123.232 76, 125.874 76.900, 127.273 78 C 128.842 79.234, 131.330 80, 133.769 80 C 137.499 80, 137.694 80.149, 137.220 82.631 C 136.848 84.576, 137.079 85.139, 138.108 84.792 C 138.874 84.534, 139.446 83.350, 139.380 82.161 C 139.314 80.973, 139.652 80, 140.130 80 C 140.609 80, 141 81.181, 141 82.625 C 141 85.008, 141.276 85.195, 144 84.650 C 145.692 84.312, 147 84.475, 147 85.025 C 147 85.561, 145.602 86, 143.893 86 C 141.542 86, 140.926 86.365, 141.362 87.500 C 141.678 88.325, 141.501 89, 140.969 89 C 140.436 89, 140 88.325, 140 87.500 C 140 86.675, 139.325 86, 138.500 86 C 137.580 86, 137 86.935, 137 88.417 C 137 89.746, 136.437 91.060, 135.750 91.338 C 135.063 91.615, 135.625 91.895, 137 91.960 C 139.343 92.071, 139.291 92.169, 136.186 93.518 C 134.363 94.310, 132.563 94.914, 132.186 94.860 C 128.500 94.339, 125.878 97.732, 122.421 107.500 C 121.820 109.197, 121.544 108.938, 120.598 105.792 C 119.076 100.729, 117 98.667, 117 102.218 C 117 105.997, 116.023 107.992, 114.143 108.052 C 112.858 108.093, 112.990 108.447, 114.750 109.674 C 116.539 110.922, 117 112.202, 117 115.922 C 117 121.299, 115.750 123, 111.800 123 C 109.667 123, 109 123.476, 109 125 C 109 126.100, 108.550 127, 108 127 C 106.095 127, 102.873 131.142, 99.410 138.044 C 97.496 141.857, 95.384 144.870, 94.715 144.738 C 94.047 144.607, 93.500 145.370, 93.500 146.434 C 93.500 147.989, 94.283 148.408, 97.500 148.572 C 102.841 148.846, 103.184 149.142, 99.011 149.882 C 94.581 150.667, 94.128 152.855, 97.664 156.391 C 100.159 158.887, 100.468 158.970, 101.085 157.317 C 102.045 154.746, 104.312 152.975, 114.146 147.109 C 120.368 143.398, 123.665 142.019, 125.908 142.190 C 129.382 142.455, 129.558 144.321, 126.157 144.821 C 123.810 145.167, 124.157 147, 126.570 147 C 127.368 147, 130.012 146.065, 132.444 144.921 L 136.867 142.842 133.461 138.381 C 131.588 135.927, 129.554 132.057, 128.941 129.781 C 127.793 125.517, 128.496 116.934, 130.073 115.957 C 130.555 115.658, 131.104 114.399, 131.294 113.159 C 131.483 111.919, 132.394 110.021, 133.319 108.941 C 134.243 107.861, 135 106.307, 135 105.489 C 135 104.670, 135.482 104, 136.072 104 C 136.661 104, 136.998 105.237, 136.822 106.750 C 136.568 108.921, 136.949 109.564, 138.635 109.804 C 140.892 110.126, 145.429 105.503, 144.434 103.894 C 144.138 103.415, 144.594 103.291, 145.448 103.618 C 146.302 103.946, 147 105.114, 147 106.213 C 147 107.313, 148.125 109.097, 149.500 110.179 C 150.875 111.260, 152 112.922, 152 113.873 C 152 114.823, 152.540 116.140, 153.200 116.800 C 154.133 117.733, 153.810 118, 151.747 118 C 148.990 118, 143.989 119.883, 144.015 120.911 C 144.104 124.306, 150.124 125.786, 153.880 123.336 L 156.259 121.784 155.543 126.559 C 154.323 134.700, 147.330 142.975, 141.624 143.030 C 138.837 143.058, 138.707 143.181, 140.424 144.178 C 141.483 144.792, 143.542 145.261, 145.001 145.219 C 146.918 145.165, 148.133 145.956, 149.383 148.072 C 151.159 151.077, 155.441 152.177, 156.224 149.829 C 156.454 149.139, 158.375 148.726, 160.895 148.825 C 164.797 148.978, 165.277 148.727, 166.308 145.996 C 167.557 142.685, 168.695 142.325, 171.481 144.362 C 173.163 145.592, 173.855 145.180, 178.616 140.112 C 182.871 135.582, 183.775 134.982, 183.300 137 C 182.976 138.375, 182.287 140.043, 181.769 140.706 C 181.252 141.370, 181.161 142.452, 181.568 143.111 C 182.039 143.871, 181.885 144.047, 181.147 143.591 C 180.489 143.184, 179.712 143.587, 179.354 144.520 C 178.928 145.630, 178.493 145.798, 178.023 145.037 C 177.541 144.257, 176.884 144.446, 175.912 145.645 C 174.791 147.025, 174.780 147.215, 175.857 146.567 C 176.906 145.935, 177.052 146.260, 176.500 148 C 176.013 149.533, 176.139 150.032, 176.893 149.566 C 177.502 149.190, 178 149.402, 178 150.038 C 178 150.673, 179.763 153.196, 181.918 155.644 C 185.194 159.366, 186.029 161.243, 187.019 167.114 C 188.304 174.732, 188.031 178.332, 185.699 184.499 C 184.333 188.112, 183.888 188.467, 181.102 188.175 L 178.017 187.851 181.542 193.176 C 188.430 203.581, 192.590 214.910, 189.286 214.262 C 188.618 214.131, 188.307 214.636, 188.593 215.383 C 188.880 216.130, 188.344 217.038, 187.402 217.399 C 185.483 218.136, 180.690 214.310, 181.629 212.792 C 181.941 212.287, 181.460 211.061, 180.560 210.067 C 179.203 208.567, 179.128 207.813, 180.119 205.638 C 180.996 203.712, 181.024 202.418, 180.224 200.759 C 179.360 198.965, 179.121 198.860, 179.068 200.250 C 179.030 201.213, 178.520 202, 177.933 202 C 177.346 202, 177.128 202.829, 177.450 203.843 C 177.794 204.925, 177.202 206.745, 176.018 208.251 C 174.908 209.661, 174 211.307, 174 211.908 C 174 212.508, 173.339 213, 172.531 213 C 171.550 213, 171.280 212.420, 171.719 211.250 C 172.287 209.734, 172.154 209.679, 170.731 210.836 C 169.827 211.571, 168.618 211.882, 168.044 211.527 C 167.470 211.172, 167 211.359, 167 211.941 C 167 213.427, 164.262 213.267, 163.720 211.750 C 163.475 211.063, 162.888 210.862, 162.416 211.304 C 161.944 211.747, 162.220 212.534, 163.029 213.054 C 164.256 213.843, 164.274 214.146, 163.137 214.879 C 161.986 215.621, 161.986 215.842, 163.137 216.300 C 163.974 216.633, 164.045 216.873, 163.321 216.921 C 162.673 216.964, 161.460 216.317, 160.625 215.482 C 159.790 214.647, 158.746 214.046, 158.304 214.146 C 156.961 214.450, 151.589 212.795, 150.106 211.620 C 148.959 210.712, 148.850 210.958, 149.491 213.008 C 149.919 214.379, 150.614 215.725, 151.035 216 C 151.456 216.275, 151.958 217.400, 152.150 218.500 C 152.343 219.600, 152.950 220.831, 153.500 221.235 C 154.050 221.639, 159.811 221.976, 166.302 221.985 L 178.104 222 179.150 219 C 180.261 215.813, 182.681 215.004, 183.638 217.500 C 183.955 218.325, 184.786 219, 185.485 219 C 186.183 219, 187.332 219.695, 188.037 220.545 C 188.977 221.677, 190.814 222.011, 194.910 221.795 L 200.500 221.500 200.772 151.062 C 200.921 112.320, 200.734 80.933, 200.355 81.312 C 199.976 81.690, 199.773 84.925, 199.902 88.500 C 200.051 92.593, 199.742 95, 199.069 95 C 198.481 95, 198 94.325, 198 93.500 C 198 91.152, 196.188 91.744, 195.706 94.250 C 195.356 96.064, 195.234 95.919, 195.073 93.500 C 194.879 90.584, 194.847 90.566, 193.930 92.855 C 193.372 94.249, 192.428 94.994, 191.615 94.683 C 190.861 94.393, 189.739 94.661, 189.122 95.278 C 188.293 96.107, 188 95.811, 188 94.141 C 188 92.890, 187.554 92.158, 187 92.500 C 186.450 92.840, 186 93.952, 186 94.971 C 186 97.044, 183.316 97.129, 182.059 95.096 C 181.462 94.129, 181.135 94.205, 180.671 95.416 C 179.868 97.508, 178 97.450, 178 95.333 C 178 94.417, 177.662 94.004, 177.250 94.417 C 176.838 94.829, 176.500 95.692, 176.500 96.333 C 176.500 97.028, 174.881 97.500, 172.500 97.500 L 168.500 97.500 168.210 89.250 C 168.050 84.713, 167.482 81, 166.948 81 C 166.359 81, 166.161 84.347, 166.444 89.500 C 166.827 96.487, 166.651 98, 165.455 98 C 164.315 98, 163.967 96.266, 163.850 90 C 163.767 85.600, 163.655 81.438, 163.600 80.750 C 163.545 80.063, 164.287 79.562, 165.250 79.639 C 166.213 79.715, 167 79.351, 167 78.830 C 167 78.309, 167.400 78.129, 167.889 78.431 C 168.378 78.733, 172.633 79.053, 177.344 79.141 C 184.262 79.270, 185.994 79.608, 186.340 80.900 C 186.682 82.180, 186.791 82.133, 186.884 80.668 C 186.987 79.043, 187.794 78.873, 194.038 79.168 L 201.075 79.500 200.913 70.732 C 200.824 65.910, 200.385 61.738, 199.937 61.461 C 199.489 61.184, 199.417 59.955, 199.777 58.729 C 200.137 57.503, 200.479 43.675, 200.537 28 C 200.596 12.325, 200.474 1.635, 200.267 4.245 C 199.934 8.442, 199.580 9.062, 197.195 9.621 C 195.713 9.969, 187.975 11.993, 180 14.120 C 172.025 16.246, 164.082 17.989, 162.349 17.993 C 160.616 17.997, 156.791 19.120, 153.849 20.489 C 150.907 21.859, 145.902 23.494, 142.726 24.124 C 139.550 24.754, 136.711 25.659, 136.417 26.135 C 136.123 26.611, 135.009 27, 133.941 27 C 132.873 27, 132 27.502, 132 28.117 C 132 28.741, 131.118 29.003, 130.001 28.711 C 128.902 28.423, 127.731 28.626, 127.400 29.162 C 127.069 29.698, 126.168 29.895, 125.399 29.600 C 124.629 29.304, 124 29.499, 124 30.031 C 124 31.789, 121.091 31.039, 120 29 C 119.411 27.900, 119.186 27, 119.500 27 C 119.814 27, 119.589 26.100, 119 25 C 118.411 23.900, 117.244 23, 116.406 23 C 115.568 23, 115.142 22.579, 115.460 22.064 C 115.812 21.495, 114.909 21.453, 113.153 21.956 C 111.440 22.447, 109.705 22.383, 108.884 21.797 C 107.832 21.048, 107.947 20.957, 109.361 21.417 C 110.666 21.842, 111.068 21.618, 110.704 20.671 C 109.893 18.557, 111.532 16.750, 114.260 16.750 C 116.200 16.750, 116.639 16.337, 116.257 14.875 C 115.838 13.272, 113.542 12.441, 110.750 12.882 C 110.337 12.947, 110 12.400, 110 11.667 C 110 10.933, 109.325 10.333, 108.500 10.333 C 107.675 10.333, 107 10.708, 107 11.167 C 107 11.625, 106.152 12, 105.117 12 C 104.050 12, 102.997 12.902, 102.690 14.079 C 102.274 15.669, 102.515 16.016, 103.714 15.556 C 105.004 15.061, 105.063 15.219, 104.047 16.443 C 103.367 17.263, 103.043 18.510, 103.327 19.216 C 103.651 20.023, 103.871 19.850, 103.921 18.750 C 103.964 17.788, 104.450 17, 105 17 C 105.550 17, 106 16.239, 106 15.309 C 106 13.826, 106.195 13.857, 107.582 15.559 C 108.932 17.216, 109.083 17.244, 108.613 15.750 C 108.214 14.482, 108.615 14, 110.067 14 C 111.785 14, 111.912 14.295, 110.958 16.078 C 110.347 17.220, 109.239 17.922, 108.496 17.637 C 106.607 16.912, 104.482 19.562, 106.135 20.583 C 107.017 21.128, 106.817 21.542, 105.434 22.036 C 104.353 22.422, 103.176 22.236, 102.765 21.614 C 102.250 20.832, 102.026 20.873, 102.015 21.750 C 102.007 22.438, 101.529 23, 100.952 23 C 100.376 23, 98.862 24.125, 97.588 25.500 C 94.929 28.369, 94 28.628, 94 26.500 C 94 25.675, 93.520 25, 92.933 25 C 92.332 25, 92.134 25.847, 92.479 26.934 C 92.998 28.570, 92.620 28.855, 90.032 28.782 C 88.349 28.734, 86.641 29.055, 86.236 29.495 C 85.831 29.935, 86.513 30.046, 87.751 29.741 C 88.990 29.436, 89.758 29.583, 89.458 30.068 C 89.158 30.553, 86.832 30.665, 84.289 30.316 C 80.142 29.748, 79.734 29.865, 80.343 31.452 C 80.855 32.785, 80.637 33.075, 79.459 32.623 C 78.600 32.293, 78.154 32.440, 78.469 32.950 C 78.784 33.460, 78.306 34.289, 77.407 34.792 C 76.508 35.295, 75.598 37.236, 75.386 39.104 C 75.174 40.972, 74.765 43.126, 74.477 43.891 C 74.030 45.080, 74.213 45.080, 75.727 43.891 C 76.702 43.126, 77.838 42.050, 78.250 41.500 C 78.726 40.865, 79.321 40.998, 79.879 41.863 C 80.582 42.953, 80.844 42.967, 81.189 41.933 C 81.449 41.154, 82.317 40.908, 83.374 41.313 C 84.652 41.804, 85.043 42.869, 84.814 45.243 C 84.531 48.182, 84.220 48.467, 81.638 48.164 C 79.946 47.965, 79.023 48.229, 79.382 48.809 C 79.716 49.349, 79.331 50.043, 78.526 50.352 C 77.722 50.660, 76.822 50.521, 76.526 50.042 C 76.230 49.563, 76.553 48.973, 77.244 48.730 C 77.935 48.488, 77.275 48.281, 75.778 48.270 C 73.963 48.257, 72.853 48.888, 72.447 50.166 C 71.789 52.239, 71.583 52.237, 51.592 49.929 C 43.767 49.026, 41 49.636, 41 52.262 C 41 52.822, 40.216 53.853, 39.257 54.554 C 38.299 55.255, 37.511 56.537, 37.507 57.403 C 37.503 58.269, 37.050 58.953, 36.500 58.923 C 35.950 58.893, 35.627 58.247, 35.782 57.487 C 36.203 55.421, 32.631 53.812, 30.920 55.297 C 30.157 55.959, 29.842 56.109, 30.219 55.631 C 30.596 55.153, 30.210 54.067, 29.362 53.219 C 28.161 52.018, 27.647 51.954, 27.043 52.930 C 26.426 53.929, 25.834 53.913, 24.134 52.852 C 22.960 52.119, 22 51.231, 22 50.878 C 22 49.946, 28.676 45, 29.933 45 C 30.520 45, 31 44.325, 31 43.500 C 31 42.675, 30.550 42, 30 42 C 29.450 42, 28.964 40.987, 28.921 39.750 C 28.868 38.247, 28.653 37.998, 28.271 39 C 27.957 39.825, 27.205 40.831, 26.600 41.235 C 25.143 42.208, 20 42.209, 20 41.236 C 20 40.433, 27.299 37, 29.007 37 C 29.917 37, 30.106 36.422, 30.400 32.750 C 30.509 31.386, 28.484 30.992, 19.790 30.683 C 12.049 30.408, 11.160 29.290, 14.489 24.018 C 16.634 20.619, 17.568 19.918, 19.324 20.389 C 20.521 20.710, 22.063 20.979, 22.750 20.986 C 23.438 20.994, 24 21.664, 24 22.475 C 24 23.618, 24.539 23.745, 26.393 23.041 C 27.709 22.540, 29.780 22.391, 30.995 22.709 C 32.210 23.027, 33.496 22.829, 33.852 22.270 C 34.209 21.711, 36.250 20.072, 38.390 18.627 C 40.529 17.182, 41.871 16, 41.372 16 C 40.873 16, 38.732 17.177, 36.615 18.616 C 33.580 20.678, 31.996 21.113, 29.132 20.670 C 24.415 19.941, 19.916 19.047, 17.865 18.430 C 16.857 18.127, 15.211 19.149, 13.574 21.095 C 12.113 22.831, 10.635 23.968, 10.288 23.622 C 8.925 22.258, 18.864 14.154, 21.154 14.762 C 21.514 14.858, 22.337 14.299, 22.984 13.520 C 23.956 12.349, 23.720 12.183, 21.623 12.563 C 19.488 12.951, 20.057 12.075, 25.220 7.022 C 28.594 3.721, 31.044 0.711, 30.666 0.333 C 30.288 -0.045, 29.080 0.610, 27.982 1.789 C 25.997 3.920, 23.297 3.841, 21.808 1.609 C 21.428 1.038, 19.107 0.440, 16.651 0.280 C 12.608 0.016, 12.234 0.179, 12.709 1.994 C 13.249 4.061, 12.352 4.456, 9.556 3.383 C 8.496 2.976, 8.267 2.381, 8.883 1.633 C 9.552 0.821, 8.432 0.421, 4.934 0.220 L 0.050 -0.060 0.033 28.366 M 0.378 12 C 0.378 18.325, 0.541 20.912, 0.739 17.750 C 0.937 14.587, 0.937 9.412, 0.739 6.250 C 0.541 3.087, 0.378 5.675, 0.378 12 M 194 1.972 C 194 3.328, 195.777 4.170, 196.425 3.121 C 196.735 2.620, 196.316 1.952, 195.494 1.636 C 194.672 1.321, 194 1.472, 194 1.972 M 190 3 C 190 3.550, 190.423 4, 190.941 4 C 191.459 4, 192.160 3.550, 192.500 3 C 192.840 2.450, 192.416 2, 191.559 2 C 190.702 2, 190 2.450, 190 3 M 19.829 5.229 C 20.467 5.867, 21.416 5.867, 22.556 5.229 C 24.033 4.402, 23.880 4.250, 21.577 4.250 C 19.799 4.250, 19.190 4.590, 19.829 5.229 M 9.628 6.474 C 9.918 7.228, 10.772 8.082, 11.526 8.372 C 12.392 8.704, 12.704 8.392, 12.372 7.526 C 12.082 6.772, 11.228 5.918, 10.474 5.628 C 9.608 5.296, 9.296 5.608, 9.628 6.474 M 17 8.300 C 17 9.235, 16.235 10, 15.300 10 C 13.972 10, 13.864 10.264, 14.807 11.207 C 15.750 12.150, 16.386 12.042, 17.714 10.714 C 19.042 9.386, 19.150 8.750, 18.207 7.807 C 17.264 6.864, 17 6.972, 17 8.300 M 4.500 11.334 C 6.773 13.155, 9 13.485, 9 12 C 9 11.450, 8.362 11, 7.582 11 C 6.802 11, 5.339 10.714, 4.332 10.365 C 2.722 9.808, 2.742 9.925, 4.500 11.334 M 26 11 C 25.099 11.582, 24.975 11.975, 25.691 11.985 C 26.346 11.993, 27.160 11.550, 27.500 11 C 28.267 9.758, 27.921 9.758, 26 11 M 48.750 16.662 C 49.438 16.940, 50.563 16.940, 51.250 16.662 C 51.938 16.385, 51.375 16.158, 50 16.158 C 48.625 16.158, 48.063 16.385, 48.750 16.662 M 127.643 22.250 L 125.854 25.500 127.927 23.139 C 129.718 21.100, 130.625 19, 129.716 19 C 129.559 19, 128.626 20.462, 127.643 22.250 M 0.382 40.500 C 0.384 49.850, 0.545 54.688, 0.740 51.250 C 1.043 45.926, 1.374 45, 2.975 45 C 5.002 45, 9 40.597, 9 38.365 C 9 37.472, 7.791 37, 5.500 37 C 2.593 37, 1.968 37.381, 1.811 39.250 C 1.707 40.487, 1.342 37.450, 1 32.500 C 0.510 25.405, 0.379 27.099, 0.382 40.500 M 7.052 26.150 C 7.435 28.941, 6.948 30.002, 5.250 30.079 C 4.287 30.122, 4.037 30.376, 4.694 30.644 C 5.350 30.911, 5.662 31.717, 5.386 32.436 C 4.842 33.854, 7.613 35.357, 9.090 34.444 C 10.309 33.691, 10.259 29, 9.031 29 C 8.499 29, 8.304 28.371, 8.600 27.601 C 8.895 26.832, 8.626 25.887, 8.001 25.501 C 7.350 25.098, 6.945 25.375, 7.052 26.150 M 109 26 C 109 26.550, 109.450 27, 110 27 C 110.550 27, 111 26.550, 111 26 C 111 25.450, 110.550 25, 110 25 C 109.450 25, 109 25.450, 109 26 M 116 26 C 117.958 27.266, 119.282 27.266, 118.500 26 C 118.160 25.450, 117.121 25.007, 116.191 25.015 C 114.734 25.029, 114.707 25.165, 116 26 M 21 26.883 C 21 27.369, 21.926 28.009, 23.057 28.305 C 24.745 28.746, 24.903 28.588, 23.935 27.421 C 22.614 25.830, 21 25.535, 21 26.883 M 98.294 27.203 C 95.982 30.118, 95.076 32.663, 96.304 32.793 C 96.962 32.863, 98.819 33.231, 100.431 33.611 C 103.039 34.226, 103.204 34.132, 101.931 32.756 C 101.144 31.906, 100.118 31.442, 99.650 31.726 C 99.183 32.009, 99.264 31.375, 99.830 30.317 C 101.133 27.883, 99.837 25.257, 98.294 27.203 M 90.750 31.662 C 91.438 31.940, 92.563 31.940, 93.250 31.662 C 93.938 31.385, 93.375 31.158, 92 31.158 C 90.625 31.158, 90.063 31.385, 90.750 31.662 M 13.293 35.096 C 13.179 36.657, 13.586 38.244, 14.197 38.622 C 14.831 39.014, 15.030 38.858, 14.660 38.259 C 14.303 37.682, 14.676 36.954, 15.489 36.643 C 17.097 36.025, 16.559 33.428, 14.673 32.706 C 13.970 32.437, 13.417 33.396, 13.293 35.096 M 33.638 33.500 C 33.322 34.325, 33.499 35, 34.031 35 C 34.564 35, 35 34.325, 35 33.500 C 35 32.675, 34.823 32, 34.607 32 C 34.391 32, 33.955 32.675, 33.638 33.500 M 109 33.500 C 107.940 34.777, 108.183 34.983, 110.628 34.884 C 112.340 34.815, 112.788 34.582, 111.738 34.308 C 110.769 34.055, 110.233 33.433, 110.547 32.924 C 111.459 31.449, 110.364 31.856, 109 33.500 M 104.813 33.683 C 105.534 33.972, 106.397 33.936, 106.729 33.604 C 107.061 33.272, 106.471 33.036, 105.417 33.079 C 104.252 33.127, 104.015 33.364, 104.813 33.683 M 27.500 35 C 27.840 35.550, 28.316 36, 28.559 36 C 28.802 36, 29 35.550, 29 35 C 29 34.450, 28.523 34, 27.941 34 C 27.359 34, 27.160 34.450, 27.500 35 M 34.750 35.689 C 31.435 36.556, 33.008 38, 37.250 37.985 C 40.026 37.975, 41.027 37.670, 40.137 37.106 C 38.986 36.377, 38.986 36.158, 40.137 35.700 C 41.775 35.049, 37.236 35.040, 34.750 35.689 M 77.573 36.521 C 76.513 37.323, 75.878 38.212, 76.162 38.496 C 76.447 38.780, 77.496 38.110, 78.494 37.006 C 80.621 34.657, 80.277 34.476, 77.573 36.521 M 37.500 41 C 36.718 42.266, 38.042 42.266, 40 41 C 41.293 40.165, 41.266 40.029, 39.809 40.015 C 38.879 40.007, 37.840 40.450, 37.500 41 M 11.813 42.683 C 12.534 42.972, 13.397 42.936, 13.729 42.604 C 14.061 42.272, 13.471 42.036, 12.417 42.079 C 11.252 42.127, 11.015 42.364, 11.813 42.683 M 9.143 44.890 C 8.250 45.456, 8.034 46.533, 8.512 48.038 C 9.204 50.218, 9.286 50.235, 10.243 48.413 C 10.796 47.361, 11.954 45.938, 12.815 45.250 C 14.205 44.141, 14.163 44.002, 12.441 44.015 C 11.374 44.024, 9.889 44.418, 9.143 44.890 M 24 46 C 24 46.550, 24.450 47, 25 47 C 25.550 47, 26 46.550, 26 46 C 26 45.450, 25.550 45, 25 45 C 24.450 45, 24 45.450, 24 46 M 100.564 51.293 C 100.940 52.279, 101.499 52.834, 101.807 52.526 C 102.115 52.219, 101.808 51.412, 101.124 50.733 C 100.136 49.753, 100.022 49.868, 100.564 51.293 M 13 52.059 C 13 52.641, 13.450 52.840, 14 52.500 C 14.550 52.160, 15 51.684, 15 51.441 C 15 51.198, 14.550 51, 14 51 C 13.450 51, 13 51.477, 13 52.059 M 138 52.603 C 138 52.900, 138.675 53.818, 139.500 54.643 C 140.801 55.944, 141 55.949, 141 54.678 C 141 53.873, 140.325 52.955, 139.500 52.638 C 138.675 52.322, 138 52.306, 138 52.603 M 194.250 54.496 C 192.791 56.153, 192.593 57.370, 193.915 56.553 C 194.418 56.242, 195.057 56.553, 195.336 57.244 C 195.614 57.935, 195.878 57.263, 195.921 55.750 C 196.011 52.611, 195.950 52.565, 194.250 54.496 M 32 56.969 C 32 58.322, 32.477 58.754, 33.526 58.352 C 34.702 57.900, 34.788 57.450, 33.903 56.383 C 32.362 54.526, 32 54.637, 32 56.969 M 124.531 56.293 C 124.103 57.279, 124.034 58.367, 124.376 58.710 C 125.392 59.725, 126.211 58.299, 125.743 56.328 C 125.329 54.581, 125.275 54.580, 124.531 56.293 M 140.079 58.583 C 140.127 59.748, 140.364 59.985, 140.683 59.188 C 140.972 58.466, 140.936 57.603, 140.604 57.271 C 140.272 56.939, 140.036 57.529, 140.079 58.583 M 165.264 57.718 C 166.784 57.947, 169.034 57.941, 170.264 57.704 C 171.494 57.467, 170.250 57.279, 167.500 57.286 C 164.750 57.294, 163.744 57.488, 165.264 57.718 M 5.543 58.931 C 4.860 60.036, 6.437 61.230, 7.361 60.306 C 8.311 59.355, 8.134 58, 7.059 58 C 6.541 58, 5.859 58.419, 5.543 58.931 M 23.605 59.170 C 24.091 59.957, 23.783 60.131, 22.664 59.701 C 21.749 59.350, 21 59.499, 21 60.031 C 21 60.564, 20.100 61, 19 61 C 17.900 61, 17 61.450, 17 62 C 17 62.550, 17.450 63, 18 63 C 18.550 63, 18.887 63.537, 18.750 64.194 C 18.612 64.851, 19.625 65.667, 21 66.007 C 25.939 67.229, 30.037 69.231, 29.901 70.355 C 29.576 73.052, 30.121 74, 32 74 C 33.200 74, 34.040 74.700, 34.100 75.750 C 34.165 76.894, 34.434 76.659, 34.878 75.071 C 35.955 71.215, 35.044 66.046, 33.399 66.677 C 32.629 66.972, 32 66.745, 32 66.172 C 32 65.598, 33.551 64.569, 35.447 63.883 C 38.820 62.663, 39.359 61, 36.382 61 C 35.459 61, 35.163 61.481, 35.613 62.250 C 36.015 62.938, 35.444 62.712, 34.343 61.750 C 32.200 59.875, 29.476 59.344, 30.500 61 C 31.638 62.841, 29.002 62.025, 27.268 60 C 25.445 57.871, 22.372 57.175, 23.605 59.170 M 10.248 59.689 C 11.779 60.089, 11.815 60.327, 10.541 61.602 C 9.740 62.403, 9.339 63.720, 9.649 64.528 C 10.087 65.670, 10.670 65.417, 12.257 63.401 C 13.949 61.250, 14.059 60.651, 12.900 59.917 C 12.130 59.429, 10.825 59.076, 10 59.131 C 8.936 59.203, 9.008 59.365, 10.248 59.689 M 102.505 60.008 C 102.848 60.563, 102.113 61.393, 100.872 61.852 C 98.663 62.669, 98.674 62.701, 101.426 63.392 C 104.178 64.083, 106.659 63.141, 104.306 62.298 C 103.650 62.063, 103.360 61.225, 103.663 60.435 C 103.966 59.646, 103.689 59, 103.048 59 C 102.407 59, 102.162 59.454, 102.505 60.008 M 188.500 60.057 C 190.700 60.512, 193.400 60.879, 194.500 60.872 L 196.500 60.859 194.500 60 C 193.400 59.527, 190.700 59.161, 188.500 59.185 L 184.500 59.230 188.500 60.057 M 115 62.059 C 115 62.641, 115.450 62.840, 116 62.500 C 116.550 62.160, 117 61.684, 117 61.441 C 117 61.198, 116.550 61, 116 61 C 115.450 61, 115 61.477, 115 62.059 M 163 65 C 162.099 65.582, 161.975 65.975, 162.691 65.985 C 163.346 65.993, 164.160 65.550, 164.500 65 C 165.267 63.758, 164.921 63.758, 163 65 M 166 65.552 C 166 66.601, 167.170 66.978, 170.250 66.921 C 172.588 66.878, 173.825 66.617, 173 66.343 C 166.473 64.169, 166 64.116, 166 65.552 M 181 66 C 181 67.783, 181.625 67.986, 186.750 67.874 L 192.500 67.747 188.750 66.697 C 186.688 66.120, 185 65.277, 185 64.824 C 185 64.371, 184.100 64, 183 64 C 181.667 64, 181 64.667, 181 66 M 0.343 73.500 C 0.346 77.900, 0.522 79.576, 0.733 77.224 C 0.945 74.872, 0.942 71.272, 0.727 69.224 C 0.512 67.176, 0.339 69.100, 0.343 73.500 M 194.500 66.724 C 195.600 66.994, 197.073 67.681, 197.774 68.250 C 199.260 69.457, 200.504 68.624, 199.541 67.067 C 199.179 66.480, 197.446 66.052, 195.691 66.116 C 193.561 66.193, 193.165 66.395, 194.500 66.724 M 188 71.977 C 188 72.605, 188.412 72.864, 188.915 72.553 C 189.418 72.242, 190.036 72.553, 190.290 73.244 C 190.653 74.236, 191.023 74.243, 192.051 73.274 C 193.004 72.376, 193.707 72.342, 194.676 73.146 C 195.641 73.947, 196 73.940, 196 73.122 C 196 72.505, 195.887 71.983, 195.750 71.962 C 189.160 70.967, 188 70.969, 188 71.977 M 198 73 C 198 73.550, 198.450 74, 199 74 C 199.550 74, 200 73.550, 200 73 C 200 72.450, 199.550 72, 199 72 C 198.450 72, 198 72.450, 198 73 M 110 75.500 C 108.708 76.875, 108.128 78, 108.711 78 C 109.293 78, 110.507 76.875, 111.408 75.500 C 112.309 74.125, 112.889 73, 112.697 73 C 112.506 73, 111.292 74.125, 110 75.500 M 142.001 79.750 C 142.001 80.162, 143.195 80.569, 144.654 80.654 C 146.552 80.764, 146.907 80.555, 145.903 79.919 C 144.181 78.829, 142 78.734, 142.001 79.750 M 190.079 81.583 C 190.127 82.748, 190.364 82.985, 190.683 82.188 C 190.972 81.466, 190.936 80.603, 190.604 80.271 C 190.272 79.939, 190.036 80.529, 190.079 81.583 M 196.366 84.458 C 196.708 89.964, 197.598 91.191, 198.213 87.002 C 198.462 85.303, 198.284 83.676, 197.817 83.387 C 197.350 83.098, 197.207 82.474, 197.500 82 C 197.793 81.526, 197.595 80.867, 197.059 80.537 C 196.469 80.172, 196.196 81.713, 196.366 84.458 M 132 81.544 C 132 81.660, 132.675 82.315, 133.500 83 C 134.717 84.010, 135 83.970, 135 82.789 C 135 81.988, 134.325 81.333, 133.500 81.333 C 132.675 81.333, 132 81.428, 132 81.544 M 0.217 126.417 C 0.098 151.121, 0.261 171.073, 0.579 170.754 C 0.898 170.435, 1.112 156.185, 1.056 139.087 L 0.954 108 3.418 108 C 4.773 108, 6.148 107.570, 6.473 107.044 C 6.798 106.518, 7.837 106.335, 8.782 106.638 C 10.186 107.088, 10.236 107.002, 9.054 106.164 C 8.137 105.514, 6.972 105.480, 5.870 106.070 C 1.398 108.463, 1.077 107.722, 0.747 94.250 C 0.575 87.237, 0.337 101.713, 0.217 126.417 M 97.104 84.914 C 96.304 85.421, 95.983 86.513, 96.351 87.472 C 96.704 88.392, 96.521 90.125, 95.944 91.322 C 95.221 92.822, 95.687 92.566, 97.442 90.500 C 101.081 86.215, 100.859 82.537, 97.104 84.914 M 131 85 C 131 85.550, 132.012 85.993, 133.250 85.985 C 135.069 85.972, 135.213 85.784, 134 85 C 132.061 83.747, 131 83.747, 131 85 M 19.686 87.017 C 16.779 87.889, 14 89.773, 13.999 90.872 C 13.999 91.750, 24.388 90.950, 25 90.025 C 25.275 89.610, 26.625 88.965, 28 88.593 L 30.500 87.917 28 89.466 L 25.500 91.016 28.500 90.427 C 30.657 90.004, 31.100 90.118, 30.076 90.836 C 29.030 91.568, 29.561 91.765, 32.076 91.577 C 33.959 91.435, 38.763 91.590, 42.750 91.920 C 46.737 92.250, 49.986 92.291, 49.968 92.010 C 49.880 90.603, 47.030 87.962, 44.603 87.039 C 40.850 85.612, 33.688 85.733, 32.053 87.250 C 30.976 88.250, 30.848 88.250, 31.412 87.250 C 32.241 85.782, 24.323 85.625, 19.686 87.017 M 128.333 87.500 C 128.333 88.325, 128.988 89, 129.789 89 C 130.970 89, 131.010 88.717, 130 87.500 C 129.315 86.675, 128.660 86, 128.544 86 C 128.428 86, 128.333 86.675, 128.333 87.500 M 144.559 88.570 C 142.809 89.859, 142.790 90, 144.368 90 C 145.330 90, 145.866 90.408, 145.558 90.906 C 145.250 91.404, 143.986 91.590, 142.749 91.319 C 141.470 91.039, 140.931 91.187, 141.500 91.663 C 142.050 92.123, 142.620 94.285, 142.766 96.466 C 142.912 98.647, 143.479 100.879, 144.025 101.425 C 144.684 102.084, 144.801 100.830, 144.374 97.710 C 143.737 93.064, 143.767 92.998, 146.614 92.817 C 148.201 92.717, 150.850 92.717, 152.500 92.817 L 155.500 93.001 153 91.023 C 151.625 89.935, 149.750 89.034, 148.833 89.022 C 147.917 89.010, 147.017 88.581, 146.833 88.070 C 146.650 87.558, 145.626 87.783, 144.559 88.570 M 108.405 90.250 L 106.500 92.500 108.750 90.595 C 109.987 89.547, 111 88.535, 111 88.345 C 111 87.545, 110.195 88.136, 108.405 90.250 M 133.500 89 C 133.840 89.550, 134.316 90, 134.559 90 C 134.802 90, 135 89.550, 135 89 C 135 88.450, 134.523 88, 133.941 88 C 133.359 88, 133.160 88.450, 133.500 89 M 181.195 90.500 C 181.215 92.150, 181.439 92.704, 181.693 91.731 C 181.947 90.758, 181.930 89.408, 181.656 88.731 C 181.382 88.054, 181.175 88.850, 181.195 90.500 M 131 92 C 131 92.550, 131.477 93, 132.059 93 C 132.641 93, 132.840 92.550, 132.500 92 C 132.160 91.450, 131.684 91, 131.441 91 C 131.198 91, 131 91.450, 131 92 M 31 94 C 31 94.550, 31.450 95, 32 95 C 32.550 95, 33 94.550, 33 94 C 33 93.450, 32.550 93, 32 93 C 31.450 93, 31 93.450, 31 94 M 17 95.059 C 17 95.641, 17.450 95.840, 18 95.500 C 18.550 95.160, 19 94.684, 19 94.441 C 19 94.198, 18.550 94, 18 94 C 17.450 94, 17 94.477, 17 95.059 M 145.500 95 C 145.840 95.550, 147.104 95.993, 148.309 95.985 C 150.090 95.972, 150.219 95.788, 149 95 C 147.030 93.727, 144.713 93.727, 145.500 95 M 134.813 96.683 C 135.534 96.972, 136.397 96.936, 136.729 96.604 C 137.061 96.272, 136.471 96.036, 135.417 96.079 C 134.252 96.127, 134.015 96.364, 134.813 96.683 M 87 99.500 C 87 100.417, 87.484 101.005, 88.075 100.808 C 88.666 100.611, 89.150 100.023, 89.150 99.500 C 89.150 98.977, 88.666 98.389, 88.075 98.192 C 87.484 97.995, 87 98.583, 87 99.500 M 80.507 99.989 C 80.157 100.555, 80.558 100.723, 81.448 100.382 C 83.180 99.717, 83.497 99, 82.059 99 C 81.541 99, 80.843 99.445, 80.507 99.989 M 93.500 101.469 C 91.850 102.821, 90.984 103.944, 91.576 103.964 C 92.167 103.984, 93.708 102.875, 95 101.500 C 97.985 98.323, 97.354 98.310, 93.500 101.469 M 134 100.393 C 134 100.609, 134.675 101.045, 135.500 101.362 C 136.325 101.678, 137 101.501, 137 100.969 C 137 100.436, 136.325 100, 135.500 100 C 134.675 100, 134 100.177, 134 100.393 M 11 106 C 11 106.550, 12.350 107, 14 107 C 15.650 107, 17 106.550, 17 106 C 17 105.450, 15.650 105, 14 105 C 12.350 105, 11 105.450, 11 106 M 20 106 C 20 106.550, 20.450 107, 21 107 C 21.550 107, 22 106.550, 22 106 C 22 105.450, 21.550 105, 21 105 C 20.450 105, 20 105.450, 20 106 M 23 106.059 C 23 106.641, 23.450 106.840, 24 106.500 C 24.550 106.160, 25 105.684, 25 105.441 C 25 105.198, 24.550 105, 24 105 C 23.450 105, 23 105.477, 23 106.059 M 30.543 105.930 C 30.257 106.393, 30.917 107.007, 32.011 107.293 C 33.105 107.579, 34 107.453, 34 107.013 C 34 105.838, 31.152 104.946, 30.543 105.930 M 39.010 107.375 C 39.016 107.994, 40.784 109.240, 42.939 110.145 C 46.575 111.672, 46.815 111.672, 46.273 110.145 C 45.244 107.244, 44.021 106.250, 41.481 106.250 C 40.117 106.250, 39.005 106.756, 39.010 107.375 M 47.500 108 C 47.840 108.550, 48.541 109, 49.059 109 C 49.577 109, 50 108.550, 50 108 C 50 107.450, 49.298 107, 48.441 107 C 47.584 107, 47.160 107.450, 47.500 108 M 109.813 107.683 C 110.534 107.972, 111.397 107.936, 111.729 107.604 C 112.061 107.272, 111.471 107.036, 110.417 107.079 C 109.252 107.127, 109.015 107.364, 109.813 107.683 M 127.250 110.607 C 127.250 112.274, 127.532 112.757, 128.032 111.947 C 128.463 111.251, 128.583 110.078, 128.300 109.341 C 127.537 107.351, 127.250 107.697, 127.250 110.607 M 196.021 109.970 C 195.197 111.114, 194.175 111.586, 193.557 111.109 C 192.253 110.104, 186 111.692, 186 113.029 C 186 113.563, 186.648 114, 187.441 114 C 189.454 114, 190.447 115.953, 189.113 117.287 C 187.592 118.808, 187.716 119.677, 189.552 120.382 C 190.406 120.709, 190.861 120.584, 190.564 120.103 C 190.112 119.372, 191.656 113.288, 192.582 112.150 C 192.739 111.957, 193.376 112.114, 193.999 112.499 C 194.802 112.996, 194.687 113.688, 193.600 114.889 C 192.214 116.421, 192.255 116.594, 194.035 116.728 C 195.116 116.809, 196 116.377, 196 115.767 C 196 115.157, 196.715 113.867, 197.590 112.901 C 198.647 111.733, 198.886 110.619, 198.305 109.580 C 197.537 108.208, 197.257 108.255, 196.021 109.970 M 59.813 109.683 C 60.534 109.972, 61.397 109.936, 61.729 109.604 C 62.061 109.272, 61.471 109.036, 60.417 109.079 C 59.252 109.127, 59.015 109.364, 59.813 109.683 M 67 110.063 C 67 110.578, 68.800 111, 71 111 C 73.200 111, 75 110.603, 75 110.118 C 75 109.633, 73.200 109.211, 71 109.181 C 68.800 109.150, 67 109.547, 67 110.063 M 76.813 110.683 C 77.534 110.972, 78.397 110.936, 78.729 110.604 C 79.061 110.272, 78.471 110.036, 77.417 110.079 C 76.252 110.127, 76.015 110.364, 76.813 110.683 M 49.472 112.046 C 49.054 112.721, 50.272 113.006, 52.913 112.850 C 55.161 112.718, 57 112.247, 57 111.804 C 57 110.611, 50.224 110.828, 49.472 112.046 M 113.119 115.443 C 111.703 121.064, 111.679 120.871, 113.750 120.562 C 115.128 120.356, 115.500 119.313, 115.500 115.651 C 115.500 109.789, 114.563 109.707, 113.119 115.443 M 181 114 C 181 115.100, 181.647 116, 182.438 116 C 183.259 116, 183.811 115.143, 183.725 114 C 183.642 112.900, 182.995 112, 182.287 112 C 181.579 112, 181 112.900, 181 114 M 153 113.882 C 153 114.432, 153.450 115.160, 154 115.500 C 154.550 115.840, 155 115.668, 155 115.118 C 155 114.568, 154.550 113.840, 154 113.500 C 153.450 113.160, 153 113.332, 153 113.882 M 114.158 118 C 114.158 119.375, 114.385 119.938, 114.662 119.250 C 114.940 118.563, 114.940 117.438, 114.662 116.750 C 114.385 116.063, 114.158 116.625, 114.158 118 M 132.734 119.412 C 131.124 120.627, 131.250 120.800, 134.172 121.384 C 136.956 121.941, 140.173 120.763, 138.933 119.641 C 137.549 118.387, 134.255 118.266, 132.734 119.412 M 193.079 120.583 C 193.127 121.748, 193.364 121.985, 193.683 121.188 C 193.972 120.466, 193.936 119.603, 193.604 119.271 C 193.272 118.939, 193.036 119.529, 193.079 120.583 M 77.595 120.750 C 77.189 121.162, 75.426 122.028, 73.678 122.674 L 70.500 123.848 74 123.913 C 75.925 123.949, 79.193 123.698, 81.262 123.356 C 84.299 122.854, 84.806 122.471, 83.890 121.367 C 83.266 120.615, 82.248 120.007, 81.628 120.015 C 81.007 120.024, 81.175 120.467, 82 121 C 82.901 121.582, 83.025 121.975, 82.309 121.985 C 81.654 121.993, 80.840 121.550, 80.500 121 C 79.766 119.812, 78.616 119.713, 77.595 120.750 M 41.087 122.882 C 38.027 123.436, 37.847 123.642, 39.337 124.872 C 40.252 125.627, 41 125.809, 41 125.277 C 41 124.744, 42.982 124.351, 45.404 124.404 C 47.827 124.457, 49.600 124.838, 49.345 125.250 C 49.090 125.662, 49.306 126, 49.824 126 C 50.343 126, 51.002 125.100, 51.290 124 C 51.746 122.254, 51.348 122.017, 48.156 122.132 C 46.145 122.204, 42.964 122.542, 41.087 122.882 M 34 124 C 34 124.550, 34.450 125, 35 125 C 35.550 125, 36 124.550, 36 124 C 36 123.450, 35.550 123, 35 123 C 34.450 123, 34 123.450, 34 124 M 185.056 124.432 C 184.381 125.246, 184.118 126.382, 184.473 126.956 C 185.087 127.950, 183.655 128.470, 181.500 128.035 C 180.950 127.924, 180.855 128.188, 181.288 128.621 C 182.626 129.959, 186.812 130.114, 187.590 128.854 C 188.077 128.067, 187.818 127.856, 186.831 128.235 C 185.088 128.904, 184.686 125.901, 186.372 124.804 C 186.961 124.422, 187.182 123.848, 186.864 123.530 C 186.545 123.212, 185.732 123.618, 185.056 124.432 M 79 128.059 C 79 128.641, 79.450 128.840, 80 128.500 C 80.550 128.160, 81 127.684, 81 127.441 C 81 127.198, 80.550 127, 80 127 C 79.450 127, 79 127.477, 79 128.059 M 77.079 129.309 C 77.036 130.304, 76.555 130.843, 76.011 130.507 C 75.431 130.148, 75.286 130.581, 75.660 131.558 C 76.251 133.098, 76.365 133.099, 77.220 131.572 C 77.727 130.666, 77.920 129.379, 77.650 128.712 C 77.379 128.046, 77.122 128.314, 77.079 129.309 M 54 130 C 54 130.550, 53.073 131, 51.941 131 C 50.809 131, 50.146 131.427, 50.469 131.950 C 50.792 132.472, 50.093 133.415, 48.915 134.045 C 47.094 135.020, 46.868 135.773, 47.399 139.095 C 47.984 142.750, 46.797 144.563, 45.662 141.750 C 45.385 141.063, 45.129 140.950, 45.094 141.500 C 45.059 142.050, 45.417 143.109, 45.888 143.854 C 46.573 144.934, 47.295 144.732, 49.465 142.854 C 50.961 141.559, 52.664 139.610, 53.250 138.521 C 54.465 136.265, 55.490 129, 54.593 129 C 54.267 129, 54 129.450, 54 130 M 83.710 131 C 83.314 132.515, 83.680 133, 85.216 133 C 86.844 133, 87.015 132.723, 86.081 131.597 C 85.187 130.520, 85.216 130.074, 86.208 129.676 C 87.078 129.327, 86.967 129.132, 85.867 129.079 C 84.968 129.036, 83.998 129.900, 83.710 131 M 143.118 131.927 C 142.114 132.548, 142.172 132.852, 143.384 133.317 C 144.238 133.645, 145.183 133.513, 145.484 133.025 C 146.273 131.750, 144.635 130.989, 143.118 131.927 M 176.667 131.667 C 176.300 132.033, 176 132.798, 176 133.367 C 176 133.993, 176.466 133.934, 177.183 133.217 C 177.834 132.566, 178.134 131.801, 177.850 131.517 C 177.566 131.232, 177.033 131.300, 176.667 131.667 M 180.872 133.750 C 179.603 135.369, 179.650 135.390, 181.500 134.033 C 182.600 133.226, 183.688 132.439, 183.917 132.283 C 184.146 132.127, 183.863 132, 183.289 132 C 182.715 132, 181.627 132.787, 180.872 133.750 M 84.500 135 C 84.840 135.550, 85.316 136, 85.559 136 C 85.802 136, 86 135.550, 86 135 C 86 134.450, 85.523 134, 84.941 134 C 84.359 134, 84.160 134.450, 84.500 135 M 188.459 135.067 C 188.096 135.653, 188.014 136.348, 188.276 136.610 C 188.538 136.872, 189.019 136.392, 189.345 135.543 C 190.021 133.781, 189.445 133.471, 188.459 135.067 M 143.500 136.063 C 141.300 136.422, 140.118 136.780, 140.872 136.858 C 141.926 136.967, 141.978 137.322, 141.097 138.383 C 139.241 140.619, 142.500 141.210, 144.500 139 C 145.428 137.974, 146.821 137.378, 147.594 137.674 C 148.367 137.971, 149 137.742, 149 137.166 C 149 135.574, 147.876 135.349, 143.500 136.063 M 177.733 136.124 C 178.412 136.808, 179.219 137.115, 179.526 136.807 C 179.834 136.499, 179.279 135.940, 178.293 135.564 C 176.868 135.022, 176.753 135.136, 177.733 136.124 M 85 139 C 84.175 139.533, 83.950 139.969, 84.500 139.969 C 85.050 139.969, 86.175 139.533, 87 139 C 87.825 138.467, 88.050 138.031, 87.500 138.031 C 86.950 138.031, 85.825 138.467, 85 139 M 7 141.393 C 7 141.609, 7.698 142.054, 8.552 142.382 C 9.442 142.723, 9.843 142.555, 9.493 141.989 C 8.906 141.038, 7 140.583, 7 141.393 M 171 141.882 C 171 142.432, 171.450 143.160, 172 143.500 C 172.550 143.840, 173 143.668, 173 143.118 C 173 142.568, 172.550 141.840, 172 141.500 C 171.450 141.160, 171 141.332, 171 141.882 M 177.553 141.915 C 177.231 142.436, 177.394 143.125, 177.915 143.447 C 178.436 143.769, 179.125 143.606, 179.447 143.085 C 179.769 142.564, 179.606 141.875, 179.085 141.553 C 178.564 141.231, 177.875 141.394, 177.553 141.915 M 3.315 143.378 C 3.606 144.136, 3.339 145.261, 2.722 145.878 C 1.894 146.706, 1.894 147, 2.721 147 C 3.337 147, 4.165 148.463, 4.562 150.250 C 5.255 153.377, 5.320 153.415, 6.294 151.250 C 7.707 148.108, 8.735 148.444, 8.231 151.882 C 7.734 155.264, 9.177 156.511, 11.899 155.054 C 13.295 154.307, 13.948 154.344, 14.228 155.185 C 15.056 157.667, 17 154.689, 17 150.941 C 17 147.629, 17.329 147, 19.059 147 C 20.199 147, 20.838 147.454, 20.490 148.016 C 20.144 148.575, 19.448 148.777, 18.942 148.464 C 18.437 148.152, 18.291 148.594, 18.618 149.448 C 18.946 150.302, 20.074 151, 21.126 151 C 22.666 151, 22.916 151.486, 22.411 153.500 C 21.638 156.578, 23.162 156.806, 24.513 153.815 C 25.056 152.613, 26.175 151.462, 27 151.257 C 28.024 151.002, 27.945 151.235, 26.750 151.992 C 24.653 153.319, 24.463 155.580, 26.387 156.318 C 27.360 156.692, 27.623 156.276, 27.270 154.925 C 26.993 153.866, 27.194 153, 27.717 153 C 28.239 153, 28.671 153.563, 28.676 154.250 C 28.681 154.938, 29.012 156.512, 29.410 157.750 C 29.871 159.180, 29.725 160, 29.008 160 C 28.389 160, 28.141 159.581, 28.458 159.068 C 28.775 158.556, 27.659 158.822, 25.980 159.660 C 23.563 160.866, 22.621 160.930, 21.463 159.969 C 20.275 158.983, 20 159.081, 20 160.489 C 20 161.920, 20.595 162.111, 23.407 161.583 C 25.281 161.232, 26.969 161.335, 27.157 161.814 C 27.346 162.292, 28.991 162.974, 30.813 163.329 C 33.678 163.888, 34.051 163.735, 33.564 162.200 C 33.160 160.929, 33.567 160.383, 35 160.275 C 36.100 160.192, 37 160.621, 37 161.229 C 37 163.068, 38.361 161.104, 38.721 158.746 C 38.987 157.004, 38.800 156.800, 37.829 157.771 C 36.266 159.334, 34.649 159.377, 35.605 157.830 C 36.091 157.043, 35.783 156.869, 34.664 157.299 C 32.389 158.172, 30.015 157.124, 30.631 155.518 C 30.909 154.795, 30.698 153.931, 30.162 153.600 C 29.626 153.269, 29.401 152.181, 29.663 151.182 C 29.977 149.981, 29.353 148.989, 27.819 148.251 L 25.500 147.135 27.750 147.068 C 30.936 146.972, 30.694 144, 27.500 144 C 26.125 144, 25 143.550, 25 143 C 25 142.450, 24.550 142, 24 142 C 23.450 142, 23 142.623, 23 143.383 C 23 145.092, 17.940 146.187, 16.303 144.833 C 15.644 144.288, 13.169 143.920, 10.803 144.014 C 4.649 144.259, 3.806 144.123, 4.500 143 C 4.840 142.450, 4.593 142, 3.952 142 C 3.311 142, 3.024 142.620, 3.315 143.378 M 33.750 144.613 C 32.237 145.411, 31 146.526, 31 147.091 C 31 147.656, 31.351 147.901, 31.779 147.636 C 32.208 147.371, 33.041 148.695, 33.630 150.577 C 34.502 153.362, 34.439 154, 33.292 154 C 32.516 154, 32.160 154.450, 32.500 155 C 32.840 155.550, 34.629 156, 36.476 156 C 38.322 156, 39.991 156.474, 40.185 157.054 C 40.424 157.772, 41.326 157.792, 43.018 157.117 C 44.383 156.572, 44.847 156.098, 44.050 156.063 C 42.922 156.014, 42.867 155.733, 43.800 154.800 C 44.681 153.919, 45.296 153.896, 46.113 154.713 C 47.581 156.181, 46.379 158, 43.941 158 C 42.873 158, 42 158.450, 42 159 C 42 159.550, 42.900 160, 44 160 C 45.556 160, 46 160.667, 46 163 C 46 164.650, 45.502 166, 44.893 166 C 44.284 166, 44.028 165.369, 44.324 164.599 C 44.644 163.765, 44.079 162.992, 42.931 162.692 C 41.699 162.370, 41 162.696, 41 163.594 C 41 164.367, 40.663 164.947, 40.250 164.882 C 38.143 164.549, 37.135 165.173, 37.234 166.750 C 37.294 167.713, 37.010 169.512, 36.604 170.750 C 36.186 172.024, 36.278 173, 36.816 173 C 37.339 173, 38.003 172.096, 38.292 170.990 C 38.721 169.352, 39.250 169.140, 41.159 169.847 C 42.447 170.323, 44.074 170.586, 44.775 170.431 C 45.476 170.277, 45.586 170.380, 45.019 170.660 C 44.452 170.941, 44.220 171.546, 44.503 172.005 C 44.787 172.464, 43.829 173.776, 42.375 174.920 C 40.365 176.501, 40.137 177, 41.424 177 C 42.356 177, 42.859 177.419, 42.543 177.931 C 42.226 178.443, 42.394 179.125, 42.915 179.447 C 43.436 179.769, 44.145 179.574, 44.492 179.014 C 44.919 178.322, 45.738 178.324, 47.038 179.020 C 48.567 179.838, 48.841 179.749, 48.393 178.582 C 48.084 177.776, 47.001 176.978, 45.987 176.808 C 44.271 176.521, 44.299 176.320, 46.392 173.904 C 48.876 171.035, 54.508 168.975, 53.765 171.206 C 53.529 171.918, 52.059 172.725, 50.500 173 C 46.165 173.765, 46.451 175.538, 50.910 175.538 C 53.068 175.538, 54.575 175.121, 54.260 174.612 C 53.943 174.099, 54.616 173.928, 55.769 174.229 C 57.266 174.621, 57.701 174.384, 57.318 173.387 C 56.992 172.537, 57.449 172, 58.500 172 C 59.522 172, 60.006 172.541, 59.700 173.341 C 59.417 174.078, 59.636 175.316, 60.187 176.091 C 60.980 177.207, 61.071 177.136, 60.626 175.750 C 60.316 174.787, 60.351 174, 60.703 174 C 61.055 174, 62.278 174.787, 63.421 175.750 C 65.469 177.474, 65.474 177.469, 63.748 175.419 C 62.784 174.274, 62.334 172.999, 62.748 172.586 C 63.162 172.172, 63.544 170.859, 63.597 169.667 C 63.651 168.475, 63.809 165.925, 63.949 164 C 64.088 162.075, 64.142 159.600, 64.068 158.500 C 63.939 156.582, 63.855 156.594, 62.039 158.771 L 60.145 161.043 59.768 158.771 C 59.428 156.721, 59.234 156.840, 57.777 160 C 56.513 162.742, 56.145 163.039, 56.082 161.372 C 55.974 158.568, 53.584 156.680, 51.129 157.459 C 48.580 158.268, 47.391 154.948, 49.195 152.059 C 50.706 149.640, 49.383 146.716, 46.524 146.154 C 45.446 145.942, 45.026 146.232, 45.441 146.904 C 45.834 147.540, 45.380 148, 44.359 148 C 42.991 148, 42.867 147.733, 43.800 146.800 C 45.664 144.936, 45.230 144, 42.500 144 C 41.125 144, 40.053 144.338, 40.118 144.750 C 40.440 146.788, 39.861 148, 38.566 148 C 37.778 148, 36.990 146.911, 36.816 145.581 C 36.514 143.270, 36.377 143.227, 33.750 144.613 M 12.638 147.500 C 12.322 148.325, 12.499 149, 13.031 149 C 13.564 149, 14 148.325, 14 147.500 C 14 146.675, 13.823 146, 13.607 146 C 13.391 146, 12.955 146.675, 12.638 147.500 M 53 147.585 C 50.814 148.797, 50.926 149.485, 53.250 149.118 C 53.663 149.053, 54 149.666, 54 150.481 C 54 153.375, 66.211 153.872, 66.763 151 C 66.993 149.803, 65.985 149.534, 61.776 149.671 C 58.874 149.764, 57.513 149.621, 58.750 149.351 C 61.215 148.814, 61.856 147, 59.582 147 C 58.802 147, 57.564 146.820, 56.832 146.600 C 56.099 146.380, 54.375 146.823, 53 147.585 M 18.639 153.694 C 17.513 154.820, 17.954 156, 19.500 156 C 20.325 156, 21 155.577, 21 155.059 C 21 153.798, 19.438 152.895, 18.639 153.694 M 4.250 156.662 C 2.808 157.244, 2.541 160, 3.927 160 C 4.436 160, 5.059 159.213, 5.311 158.250 C 5.746 156.583, 5.774 156.583, 5.884 158.250 C 5.948 159.213, 6.408 160, 6.906 160 C 7.405 160, 7.577 159.100, 7.290 158 C 6.753 155.946, 6.405 155.793, 4.250 156.662 M 11.324 158.250 C 10.888 158.938, 10.524 159.937, 10.515 160.470 C 10.507 161.004, 9.463 161.958, 8.196 162.590 L 5.892 163.738 8.196 164.356 C 11.937 165.358, 12.249 165.149, 11.780 161.957 C 11.459 159.766, 11.693 159.052, 12.616 159.406 C 13.417 159.714, 13.690 159.355, 13.342 158.449 C 12.662 156.677, 12.343 156.645, 11.324 158.250 M 50.029 159.961 C 49.220 160.473, 48.771 161.104, 49.031 161.364 C 49.290 161.624, 50.376 161.198, 51.443 160.418 C 53.576 158.858, 52.383 158.472, 50.029 159.961 M 13 162 C 13 162.550, 13.675 163, 14.500 163 C 15.325 163, 16 162.550, 16 162 C 16 161.450, 15.325 161, 14.500 161 C 13.675 161, 13 161.450, 13 162 M 173.667 161.667 C 173.300 162.033, 173 162.798, 173 163.367 C 173 163.993, 173.466 163.934, 174.183 163.217 C 174.834 162.566, 175.134 161.801, 174.850 161.517 C 174.566 161.232, 174.033 161.300, 173.667 161.667 M 60.137 163.321 C 59.387 164.233, 58.262 164.686, 57.637 164.329 C 57.012 163.972, 56.822 164.036, 57.215 164.471 C 57.608 164.907, 57.447 166.165, 56.857 167.267 C 55.980 168.905, 55.605 169.018, 54.798 167.885 C 54.043 166.825, 53.951 166.930, 54.406 168.332 C 54.733 169.339, 55 170.577, 55 171.082 C 55 172.635, 56.763 172.108, 59.532 169.726 C 61.493 168.039, 62.089 166.704, 61.838 164.558 C 61.534 161.959, 61.362 161.833, 60.137 163.321 M 23.500 165.666 C 21.742 167.075, 21.722 167.192, 23.332 166.635 C 24.339 166.286, 25.577 166, 26.082 166 C 26.587 166, 27 165.550, 27 165 C 27 163.584, 25.818 163.809, 23.500 165.666 M 29.813 165.683 C 30.534 165.972, 31.397 165.936, 31.729 165.604 C 32.061 165.272, 31.471 165.036, 30.417 165.079 C 29.252 165.127, 29.015 165.364, 29.813 165.683 M 32.605 166.586 C 32.271 167.458, 32.393 168.880, 32.878 169.746 C 33.633 171.095, 33.933 170.994, 34.979 169.039 C 35.772 167.558, 35.814 166.997, 35.100 167.438 C 34.495 167.812, 34 167.679, 34 167.142 C 34 166.606, 34.563 165.940, 35.250 165.662 C 36.039 165.344, 35.895 165.129, 34.857 165.079 C 33.953 165.036, 32.940 165.714, 32.605 166.586 M 174 165.717 C 174 166.294, 173.150 166.989, 172.110 167.261 C 169.386 167.973, 168.679 176.758, 171.236 178.126 C 172.803 178.965, 173 178.556, 173 174.469 C 173 171.939, 173.486 168.960, 174.081 167.849 C 174.676 166.738, 174.901 165.567, 174.581 165.248 C 174.261 164.928, 174 165.139, 174 165.717 M 44 168 C 44 168.550, 44.477 169, 45.059 169 C 45.641 169, 45.840 168.550, 45.500 168 C 45.160 167.450, 44.684 167, 44.441 167 C 44.198 167, 44 167.450, 44 168 M 49.733 168.124 C 50.412 168.808, 51.219 169.115, 51.526 168.807 C 51.834 168.499, 51.279 167.940, 50.293 167.564 C 48.868 167.022, 48.753 167.136, 49.733 168.124 M 167.195 170.500 C 167.215 172.150, 167.439 172.704, 167.693 171.731 C 167.947 170.758, 167.930 169.408, 167.656 168.731 C 167.382 168.054, 167.175 168.850, 167.195 170.500 M 4.500 172.986 C 2.407 174.183, 1.278 174.369, 0.765 173.601 C 0.361 172.995, 0.076 174.075, 0.131 176 C 0.187 177.925, 0.441 178.694, 0.697 177.709 C 0.956 176.711, 2.448 175.660, 4.065 175.337 C 5.661 175.018, 6.747 174.400, 6.478 173.964 C 6.208 173.528, 6.553 172.969, 7.244 172.722 C 7.935 172.476, 8.275 172.048, 8 171.772 C 7.725 171.496, 6.150 172.042, 4.500 172.986 M 16 171.896 C 13.992 172.455, 13.826 172.717, 15.153 173.227 C 16.062 173.577, 17.637 173.233, 18.653 172.463 C 20.646 170.953, 19.933 170.800, 16 171.896 M 29.749 172.824 C 30.627 173.381, 29.817 174.492, 27.025 176.559 C 22.646 179.800, 22.413 181.141, 26.074 182.042 C 28.777 182.708, 32 181.195, 32 179.259 C 32 178.567, 32.477 178, 33.059 178 C 33.641 178, 33.828 177.530, 33.473 176.956 C 33.118 176.382, 33.326 175.312, 33.935 174.578 C 34.792 173.546, 34.529 173.107, 32.771 172.636 C 29.625 171.793, 28.260 171.878, 29.749 172.824 M 40.459 173.067 C 40.096 173.653, 40.014 174.348, 40.276 174.610 C 40.538 174.872, 41.019 174.392, 41.345 173.543 C 42.021 171.781, 41.445 171.471, 40.459 173.067 M 12.154 177.287 C 12.803 178.501, 12.823 179.008, 12.205 178.626 C 11.657 178.288, 10.927 178.748, 10.581 179.649 C 9.855 181.542, 10.773 182.910, 11.804 181.471 C 12.596 180.366, 16.004 180.176, 17.500 181.154 C 18.065 181.523, 18.565 180.719, 18.650 179.307 C 18.778 177.177, 18.443 176.873, 16.400 177.264 C 14.950 177.541, 14 177.250, 14 176.528 C 14 175.871, 13.349 175.333, 12.554 175.333 C 11.429 175.333, 11.340 175.767, 12.154 177.287 M 8.116 176.680 C 8.052 177.330, 7.023 178.005, 5.828 178.180 C 2.671 178.645, 2.479 180.667, 5.537 181.252 C 8.366 181.793, 9.497 180.383, 8.701 177.308 C 8.443 176.314, 8.180 176.031, 8.116 176.680 M 28.575 178.129 C 26.983 179.676, 26.921 180, 28.218 180 C 29.080 180, 30.070 179.261, 30.417 178.357 C 31.308 176.035, 30.795 175.971, 28.575 178.129 M 0.232 183 C 0.232 184.925, 0.438 185.713, 0.689 184.750 C 0.941 183.787, 0.941 182.213, 0.689 181.250 C 0.438 180.287, 0.232 181.075, 0.232 183 M 21.211 183.538 C 20.501 184.342, 20.334 185, 20.838 185 C 21.342 185, 22.315 184.325, 23 183.500 C 24.604 181.568, 22.917 181.603, 21.211 183.538 M 71.352 182.760 C 71.715 183.348, 71.447 184.057, 70.756 184.336 C 69.857 184.698, 69.839 184.865, 70.691 184.921 C 72.412 185.035, 73.239 183.265, 71.862 182.415 C 71.164 181.983, 70.958 182.123, 71.352 182.760 M 32.481 184.814 C 32.858 185.191, 33.654 185.500, 34.250 185.500 C 36.141 185.500, 36.187 187.812, 34.305 188.300 C 32.816 188.686, 32.788 188.788, 34.143 188.884 C 35.047 188.948, 36.486 190.688, 37.342 192.750 C 38.543 195.647, 38.909 195.988, 38.948 194.250 C 38.981 192.819, 39.619 192, 40.700 192 C 42.054 192, 42.147 191.747, 41.158 190.758 C 40.170 189.770, 39.725 189.820, 38.974 191.008 C 37.927 192.664, 37.857 192.570, 37.482 189 C 37.338 187.625, 37.579 186.050, 38.018 185.500 C 38.515 184.877, 37.493 184.430, 35.305 184.314 C 33.374 184.212, 32.103 184.437, 32.481 184.814 M 11.813 185.683 C 12.534 185.972, 13.397 185.936, 13.729 185.604 C 14.061 185.272, 13.471 185.036, 12.417 185.079 C 11.252 185.127, 11.015 185.364, 11.813 185.683 M 12.500 187.536 L 9.500 188.910 13.719 188.955 C 17.068 188.991, 17.819 188.691, 17.362 187.500 C 16.684 185.735, 16.430 185.736, 12.500 187.536 M 51.410 187.373 C 51.082 188.229, 50.118 188.646, 49.167 188.343 C 47.949 187.954, 47.846 188.060, 48.784 188.736 C 49.548 189.286, 49.781 190.406, 49.360 191.504 C 48.695 193.237, 48.773 193.233, 50.668 191.424 C 51.776 190.366, 52.526 189.201, 52.335 188.835 C 52.144 188.470, 52.531 187.990, 53.195 187.768 C 54.137 187.454, 54.137 187.202, 53.194 186.620 C 52.495 186.188, 51.743 186.505, 51.410 187.373 M 117 187.417 C 117 188.196, 117.563 189.060, 118.250 189.338 C 118.938 189.615, 118.487 189.878, 117.250 189.921 C 116.013 189.964, 115 189.592, 115 189.094 C 115 188.595, 114.040 188.438, 112.866 188.745 C 110.806 189.284, 110.823 189.351, 113.366 190.684 C 115.146 191.616, 116 192.878, 116 194.576 C 116 195.957, 117.058 198.228, 118.351 199.623 L 120.702 202.159 120.550 196.329 C 120.467 193.123, 119.843 189.488, 119.164 188.250 C 117.747 185.668, 117 185.380, 117 187.417 M 43.302 188.321 C 42.960 188.874, 43.200 188.995, 43.845 188.595 C 44.480 188.203, 45 188.310, 45 188.834 C 45 189.358, 45.739 190.069, 46.641 190.416 C 47.939 190.914, 48.045 190.760, 47.150 189.681 C 46.527 188.930, 46.238 188.095, 46.509 187.825 C 46.779 187.554, 46.305 187.333, 45.456 187.333 C 44.607 187.333, 43.637 187.778, 43.302 188.321 M 0.158 190 C 0.158 191.375, 0.385 191.938, 0.662 191.250 C 0.940 190.563, 0.940 189.438, 0.662 188.750 C 0.385 188.063, 0.158 188.625, 0.158 190 M 19 189.941 C 19 191.073, 19.450 192, 20 192 C 20.550 192, 21 191.352, 21 190.559 C 21 189.766, 20.550 188.840, 20 188.500 C 19.450 188.160, 19 188.809, 19 189.941 M 10.178 191.286 C 9.373 192.255, 9.571 192.571, 10.982 192.571 C 12.011 192.571, 12.595 192.105, 12.280 191.536 C 11.897 190.844, 12.050 190.832, 12.741 191.500 C 13.310 192.050, 14.080 193.625, 14.453 195 C 14.900 196.648, 14.818 197.049, 14.211 196.176 C 13.464 195.101, 12.981 195.161, 11.645 196.498 C 9.024 199.119, 9.729 200.017, 13.250 198.541 C 15.038 197.791, 16.647 196.457, 16.826 195.577 C 17.005 194.696, 17.680 194.259, 18.326 194.605 C 18.972 194.952, 18.193 194.057, 16.594 192.617 C 13.363 189.706, 11.764 189.374, 10.178 191.286 M 32.573 191.521 C 31.513 192.323, 30.838 193.096, 31.073 193.240 C 31.308 193.383, 32.539 194.083, 33.810 194.796 C 35.979 196.013, 36.052 195.966, 35.013 194.025 C 34.405 192.889, 34.180 191.518, 34.513 190.979 C 35.329 189.658, 34.863 189.789, 32.573 191.521 M 22 191.882 C 22 192.432, 22.450 193.160, 23 193.500 C 23.550 193.840, 24 193.668, 24 193.118 C 24 192.568, 23.550 191.840, 23 191.500 C 22.450 191.160, 22 191.332, 22 191.882 M 26.013 191.971 C 24.834 192.716, 24.976 192.878, 26.693 192.748 C 27.886 192.658, 28.641 192.228, 28.372 191.792 C 27.773 190.823, 27.835 190.819, 26.013 191.971 M 0.328 199.500 C 0.333 203.350, 0.513 204.802, 0.730 202.728 C 0.946 200.653, 0.943 197.503, 0.722 195.728 C 0.501 193.952, 0.324 195.650, 0.328 199.500 M 7 195.059 C 7 195.641, 7.450 195.840, 8 195.500 C 8.550 195.160, 9 194.684, 9 194.441 C 9 194.198, 8.550 194, 8 194 C 7.450 194, 7 194.477, 7 195.059 M 54.813 194.683 C 55.534 194.972, 56.397 194.936, 56.729 194.604 C 57.061 194.272, 56.471 194.036, 55.417 194.079 C 54.252 194.127, 54.015 194.364, 54.813 194.683 M 2 196 C 2 196.550, 2.477 197, 3.059 197 C 3.641 197, 3.840 196.550, 3.500 196 C 3.160 195.450, 2.684 195, 2.441 195 C 2.198 195, 2 195.450, 2 196 M 30.813 195.683 C 31.534 195.972, 32.397 195.936, 32.729 195.604 C 33.061 195.272, 32.471 195.036, 31.417 195.079 C 30.252 195.127, 30.015 195.364, 30.813 195.683 M 22.395 196.614 C 21.788 196.865, 21.511 198.220, 21.779 199.627 C 22.142 201.522, 22.497 201.836, 23.150 200.842 C 23.819 199.824, 24.986 200.586, 27.986 204 C 30.161 206.475, 31.954 207.975, 31.970 207.333 C 31.987 206.692, 31.438 205.940, 30.750 205.662 C 29.750 205.259, 29.750 205.142, 30.750 205.079 C 31.438 205.036, 32 204.564, 32 204.031 C 32 203.499, 31.438 203.264, 30.750 203.510 C 30.063 203.756, 28.397 202.167, 27.049 199.978 C 24.565 195.947, 24.364 195.801, 22.395 196.614 M 29.461 198.403 C 32.535 201.008, 33.235 201.006, 33.618 198.394 C 33.766 197.389, 33.321 197.047, 32.350 197.419 C 31.528 197.735, 29.875 197.521, 28.678 196.944 C 27.156 196.210, 27.392 196.650, 29.461 198.403 M 54 196.350 C 54 196.581, 55.180 197.543, 56.623 198.489 C 58.066 199.434, 58.941 199.713, 58.567 199.109 C 57.854 197.955, 54 195.626, 54 196.350 M 67 196.967 C 67 198.241, 71.097 202.008, 72.439 201.968 C 73.022 201.951, 72.602 201.258, 71.505 200.429 C 69.793 199.135, 69.722 198.787, 71.005 197.976 C 71.827 197.456, 72.275 196.990, 72 196.941 C 71.725 196.892, 70.487 196.663, 69.250 196.432 C 68.013 196.201, 67 196.442, 67 196.967 M 155.250 198.500 C 155.250 201.199, 155.713 201.468, 157.936 200.061 C 159.126 199.308, 159.147 198.883, 158.063 197.576 C 156.189 195.318, 155.250 195.627, 155.250 198.500 M 168.580 196.870 C 168.273 197.367, 168.692 198.329, 169.511 199.009 C 170.722 200.014, 171 199.953, 171 198.681 C 171 196.815, 169.369 195.594, 168.580 196.870 M 42 201 C 41.099 201.582, 40.975 201.975, 41.691 201.985 C 42.346 201.993, 43.160 201.550, 43.500 201 C 44.267 199.758, 43.921 199.758, 42 201 M 46.731 204.080 C 47.085 205.432, 47.538 205.886, 47.788 205.137 C 48.028 204.415, 47.750 203.350, 47.168 202.768 C 46.426 202.026, 46.296 202.417, 46.731 204.080 M 43.500 204 C 43.160 204.550, 43.359 205, 43.941 205 C 44.523 205, 45 204.550, 45 204 C 45 203.450, 44.802 203, 44.559 203 C 44.316 203, 43.840 203.450, 43.500 204 M 23 206 C 23 206.550, 23.477 207, 24.059 207 C 24.641 207, 24.840 206.550, 24.500 206 C 24.160 205.450, 23.684 205, 23.441 205 C 23.198 205, 23 205.450, 23 206 M 12.070 208.426 C 10.816 209.760, 10.101 211.355, 10.481 211.970 C 10.861 212.585, 10.619 213.754, 9.944 214.568 C 9.268 215.382, 8.987 216.321, 9.320 216.653 C 9.653 216.986, 10.458 216.089, 11.109 214.661 C 11.760 213.232, 12.677 212.300, 13.146 212.590 C 13.616 212.881, 14.057 212.529, 14.128 211.809 C 14.198 211.089, 14.361 209.488, 14.491 208.250 C 14.782 205.478, 14.843 205.474, 12.070 208.426 M 0.343 214.500 C 0.346 218.900, 0.522 220.576, 0.733 218.224 C 0.945 215.872, 0.942 212.272, 0.727 210.224 C 0.512 208.176, 0.339 210.100, 0.343 214.500 M 181 208 C 181 208.550, 181.450 209, 182 209 C 182.550 209, 183 208.550, 183 208 C 183 207.450, 182.550 207, 182 207 C 181.450 207, 181 207.450, 181 208 M 16.667 208.667 C 16.300 209.033, 16.041 210.721, 16.090 212.417 L 16.180 215.500 17.147 212.140 C 18.113 208.783, 17.924 207.410, 16.667 208.667 M 109.500 210 C 109.840 210.550, 110.879 210.993, 111.809 210.985 C 113.266 210.971, 113.293 210.835, 112 210 C 110.042 208.734, 108.718 208.734, 109.500 210 M 118.032 215.655 C 118.070 216.675, 126.655 222, 128.262 222 C 129.879 222, 128.316 220.734, 122.750 217.538 C 120.138 216.038, 118.014 215.190, 118.032 215.655 M 167 216.167 C 167 216.625, 167.423 217, 167.941 217 C 168.459 217, 169.114 216.625, 169.397 216.167 C 169.680 215.708, 169.257 215.333, 168.456 215.333 C 167.655 215.333, 167 215.708, 167 216.167" stroke="none" fill="#c7d4d8" fill-rule="evenodd"/>
</svg>