<svg xmlns="http://www.w3.org/2000/svg" width="200" height="200" viewBox="0 0 200 200" version="1.1">
	<rect x="0" y="0" width="100%" height="100%" fill="#fff" />
	<path d="M 0.658 0.675 C 0.296 1.037, -0 46.033, -0 100.667 L 0 200 63.107 200 C 122.809 200, 126.176 199.906, 125.512 198.250 C 122.943 191.840, 118 175.447, 118 173.334 C 118 171.112, 117.677 170.864, 115.500 171.411 C 114.125 171.756, 113 171.664, 113 171.207 C 113 170.148, 118.570 166, 119.993 166 C 122.423 166, 131.041 160.875, 130.388 159.819 C 129.913 159.051, 130.596 158.912, 132.601 159.368 C 134.924 159.896, 135.150 159.815, 133.738 158.958 C 132.407 158.149, 129.597 158.538, 122.238 160.547 C 116.882 162.010, 110.803 163.835, 108.730 164.603 C 106.656 165.371, 103.956 166.007, 102.730 166.015 C 101.117 166.026, 100.871 166.266, 101.842 166.881 C 102.830 167.508, 102.537 167.855, 100.729 168.201 C 98.773 168.575, 98.366 168.316, 98.729 166.928 C 99.131 165.393, 101.421 164.089, 104.500 163.644 C 106.571 163.345, 112 160.479, 112 159.684 C 112 159.229, 112.670 158.187, 113.490 157.367 C 114.309 156.548, 115.691 153.430, 116.561 150.439 C 117.430 147.447, 118.560 145, 119.071 145 C 119.582 145, 119.914 144.662, 119.810 144.250 C 119.475 142.933, 121.194 136.546, 122.229 135.261 C 124.101 132.936, 124.997 135.105, 123.423 138.150 C 121.694 141.492, 122.479 143.690, 124.258 140.492 C 125.719 137.866, 132.999 130.666, 133.592 131.259 C 133.847 131.514, 133.638 132.823, 133.127 134.167 C 132.616 135.511, 132.540 138.486, 132.959 140.777 C 133.869 145.751, 131.824 148.367, 127.444 147.832 C 125.537 147.599, 124.395 148.096, 123.613 149.500 C 123.001 150.600, 122.050 151.831, 121.500 152.235 C 119.991 153.344, 122.356 153.172, 133.456 151.367 C 140.128 150.282, 144.203 149.097, 145.595 147.838 C 146.831 146.720, 148.373 146.206, 149.357 146.584 C 150.275 146.936, 151.582 146.784, 152.263 146.247 C 152.943 145.709, 157.100 144.973, 161.500 144.610 C 173.587 143.613, 176.253 143.060, 179.218 140.935 C 181.716 139.145, 182.268 139.102, 186.039 140.401 C 190.053 141.784, 190.105 141.773, 188.416 139.908 C 186.897 138.229, 186.880 138, 188.272 138 C 190.370 138, 195.759 144.627, 196.536 148.163 C 197.205 151.208, 196.929 152.643, 195.750 152.250 C 195.337 152.112, 195 153.040, 195 154.311 C 195 155.583, 194.182 157.501, 193.183 158.573 C 192.184 159.646, 190.847 161.418, 190.213 162.512 C 189.085 164.458, 189.060 164.455, 189.030 162.339 C 189 160.210, 188.909 160.199, 183.032 161.570 C 174.828 163.484, 172.014 162.255, 179.110 159.857 L 184.500 158.035 180 158.473 C 177.069 158.759, 176.197 158.625, 177.500 158.091 L 179.500 157.270 177.500 156.751 C 176.213 156.417, 176.747 156.185, 179 156.101 C 181.651 156.001, 182.136 155.734, 181 155 C 180.175 154.467, 175.144 154.024, 169.820 154.015 C 161.248 154.002, 159.416 154.331, 153.820 156.893 C 150.344 158.484, 145.990 160.106, 144.144 160.496 C 139.174 161.547, 131.005 166.062, 129.262 168.723 C 128.221 170.312, 127.143 170.863, 125.868 170.458 C 124.840 170.132, 124 170.345, 124 170.933 C 124 171.520, 124.450 172, 125 172 C 125.550 172, 126 172.675, 126 173.500 C 126 174.325, 125.322 175, 124.494 175 C 123.387 175, 123.767 176.076, 125.924 179.054 C 128.458 182.552, 128.830 183.890, 128.634 188.804 C 128.487 192.471, 128.957 195.477, 129.953 197.244 L 131.500 199.987 144.250 199.994 C 151.262 199.997, 157 199.650, 157 199.223 C 157 198.119, 153.861 193.704, 152.158 192.413 C 151.370 191.815, 150.902 190.795, 151.118 190.147 C 151.820 188.040, 160.225 193.147, 161.947 196.727 C 162.822 198.545, 164.275 199.964, 165.276 199.977 C 166.920 199.998, 166.939 199.782, 165.526 197.050 C 163.898 193.902, 163.488 190, 164.784 190 C 166.246 190, 169.200 196.129, 168.685 198.095 C 168.192 199.982, 168.727 200.039, 184.337 199.774 L 200.500 199.500 200.755 99.750 L 201.010 0 170.398 -0 C 142.041 -0, 139.834 0.125, 140.436 1.694 C 141.047 3.286, 140.973 3.286, 139.214 1.694 C 137.599 0.232, 134.841 -0, 119.112 0 C 107.213 0, 101.097 0.347, 101.500 1 C 101.840 1.550, 101.641 2, 101.059 2 C 100.477 2, 100 1.550, 100 1 C 100 -0.439, 97.261 -0.234, 96.662 1.250 C 96.259 2.250, 96.142 2.250, 96.079 1.250 C 95.958 -0.664, 77.007 -0.473, 74.441 1.468 C 72.578 2.878, 72.607 2.938, 75.179 2.968 C 76.652 2.986, 78.452 3.562, 79.179 4.250 C 79.905 4.937, 82.193 6.764, 84.262 8.310 C 88.009 11.109, 91.524 17.342, 90.390 19.177 C 90.040 19.744, 91.147 20.010, 93.070 19.821 C 96.053 19.529, 98.701 17, 96.024 17 C 95.396 17, 95.160 17.450, 95.500 18 C 95.840 18.550, 95.525 19, 94.800 19 C 93.333 19, 90.809 15.524, 91.659 14.675 C 92.232 14.101, 96.636 15.749, 98.772 17.336 C 99.757 18.068, 99.585 18.602, 98.013 19.703 C 96.161 21, 96.122 21.265, 97.565 22.708 C 98.849 23.992, 98.898 24.449, 97.824 25.130 C 96.428 26.015, 97.323 26.351, 100.272 26.049 C 102.116 25.859, 102.265 27.938, 100.500 29.235 C 99.876 29.693, 99.958 29.975, 100.719 29.985 C 101.389 29.993, 101.692 30.640, 101.391 31.423 C 101.091 32.205, 101.810 33.810, 102.990 34.990 C 104.687 36.687, 104.888 37.430, 103.955 38.554 C 103.307 39.335, 103.057 40.706, 103.400 41.600 C 103.911 42.933, 104.297 42.998, 105.543 41.964 C 106.794 40.926, 107.326 41.039, 108.549 42.602 C 112.195 47.257, 114.263 52.746, 114.482 58.352 C 114.627 62.057, 115.222 64.527, 116.105 65.086 C 118.137 66.373, 115.427 66.299, 113.004 65.002 C 110.453 63.637, 107.787 66.305, 108.573 69.437 C 108.963 70.988, 108.640 71.924, 107.574 72.333 C 106.708 72.665, 106 72.510, 106 71.988 C 106 71.465, 104.875 70.756, 103.500 70.411 C 100.566 69.674, 100.236 67.095, 102.612 63.469 C 104.573 60.477, 103.927 55.852, 100.487 48.250 C 99.180 45.363, 98.380 43, 98.710 43 C 99.040 43, 98.634 42.212, 97.807 41.250 C 96.980 40.287, 96.025 38.712, 95.683 37.750 C 95.342 36.787, 94.471 36, 93.747 36 C 93.023 36, 91.629 34.642, 90.649 32.983 C 89.659 31.307, 86.644 28.840, 83.865 27.432 C 79.211 25.073, 78.908 24.694, 79.506 21.973 C 80.655 16.740, 78.857 16.552, 76.301 21.638 C 72.274 29.651, 67.825 33.257, 60.280 34.626 C 58.774 34.899, 57.202 35.657, 56.787 36.311 C 55.667 38.072, 55.842 40.036, 57.093 39.750 C 57.694 39.613, 58.637 40.181, 59.189 41.014 C 59.930 42.133, 59.475 43.622, 57.442 46.728 C 55.929 49.038, 54.263 50.663, 53.739 50.339 C 53.180 49.993, 53.287 49.440, 54 49 C 54.789 48.513, 54.855 48.029, 54.191 47.618 C 52.736 46.719, 48.059 48.684, 47.367 50.485 C 47.048 51.318, 45.738 52, 44.458 52 C 43.178 52, 40.976 52.439, 39.565 52.975 C 37.327 53.826, 37 54.535, 37 58.527 C 37 62.714, 37.256 63.193, 40 64.150 C 41.650 64.725, 43 65.602, 43 66.098 C 43 67.719, 47.127 67.046, 49.727 65 C 51.126 63.900, 53.642 63, 55.319 63 C 59.889 63, 67.271 59.148, 66.509 57.162 C 66.171 56.281, 66.197 55.863, 66.566 56.233 C 67.312 56.978, 70 54.650, 70 53.259 C 70 52.287, 75.952 47.619, 76.497 48.163 C 76.683 48.350, 76.349 50.634, 75.752 53.240 C 74.821 57.309, 74.912 58.245, 76.395 59.884 C 77.507 61.113, 77.722 61.926, 76.999 62.167 C 76.205 62.432, 76.168 63.312, 76.872 65.163 C 78.052 68.266, 77.365 71.646, 75.401 72.399 C 73.737 73.038, 73.507 76, 75.122 76 C 75.948 76, 75.950 76.355, 75.131 77.342 C 73.754 79.002, 74.660 80.068, 76.762 79.261 C 77.933 78.812, 78.097 79.018, 77.414 80.080 C 76.911 80.861, 76.500 83.026, 76.500 84.890 C 76.500 87.706, 76.090 88.345, 74.078 88.660 C 72.747 88.869, 71.047 89.546, 70.302 90.164 C 69.195 91.083, 69.356 91.493, 71.180 92.403 C 72.409 93.015, 73.726 94.637, 74.107 96.008 C 74.510 97.454, 74.842 97.793, 74.900 96.815 C 74.955 95.888, 74.561 93.976, 74.025 92.565 C 73.391 90.898, 73.391 90, 74.025 90 C 74.561 90, 75.007 90.563, 75.015 91.250 C 75.025 92.071, 75.283 92.139, 75.765 91.448 C 76.918 89.797, 84.211 86.600, 87.263 86.407 C 90.404 86.209, 91.941 87.790, 89.878 89.096 C 88.788 89.787, 88.866 89.973, 90.250 89.985 C 91.213 89.993, 92 89.492, 92 88.871 C 92 88.095, 93.561 87.949, 97 88.406 C 100.488 88.868, 102 88.721, 102 87.918 C 102 87.285, 101.157 86.987, 100.127 87.257 C 98.686 87.633, 98.367 87.314, 98.743 85.873 C 99.013 84.843, 100.081 84, 101.117 84 C 102.333 84, 103 83.292, 103 82 C 103 80.900, 103.450 80, 104 80 C 104.550 80, 104.887 79.510, 104.750 78.911 C 104.612 78.312, 105.732 76.878, 107.238 75.725 L 109.975 73.628 112.302 75.814 C 113.582 77.016, 115.312 78, 116.148 78 C 118.527 78, 118.959 78.997, 117.739 81.674 C 116.933 83.441, 116.917 84.637, 117.680 85.858 C 118.267 86.799, 118.692 88.678, 118.624 90.034 C 118.528 91.943, 117.879 92.572, 115.750 92.816 C 114.237 92.990, 113 93.583, 113 94.134 C 113 94.699, 112.076 94.841, 110.875 94.460 C 109.312 93.964, 108.956 94.119, 109.529 95.047 C 110.046 95.884, 109.905 96.059, 109.111 95.568 C 108.451 95.161, 106.919 95.449, 105.706 96.207 C 104.493 96.966, 100.238 98.877, 96.250 100.453 C 92.263 102.029, 88.933 103.809, 88.852 104.409 C 88.771 105.009, 88.651 106.175, 88.585 107 C 88.520 107.825, 87.634 110.912, 86.616 113.860 C 85.455 117.224, 84.960 120.668, 85.288 123.110 C 85.923 127.842, 85.362 128.178, 84.216 123.754 C 83.406 120.630, 80.431 119.242, 78.920 121.284 C 78.118 122.368, 74.877 121.007, 75.575 119.879 C 75.885 119.378, 76.552 119.223, 77.058 119.536 C 77.563 119.848, 77.720 119.434, 77.406 118.615 C 77.072 117.745, 76.177 117.379, 75.253 117.733 C 74.271 118.110, 73.924 117.933, 74.336 117.265 C 74.786 116.537, 73.729 116.361, 71.060 116.719 L 67.120 117.247 66.804 112.374 C 66.630 109.693, 67.105 105.804, 67.860 103.732 C 69.056 100.445, 69.028 99.550, 67.639 96.732 L 66.046 93.500 66.023 96.667 C 66.010 98.408, 65.438 100.068, 64.750 100.354 C 63.821 100.741, 63.916 101.215, 65.117 102.200 C 66.939 103.694, 65.805 105.403, 62.402 106.291 C 60.663 106.745, 60.693 106.850, 62.750 107.511 C 65.318 108.335, 65.361 108.457, 63.997 111.005 C 63.327 112.257, 63.327 113.084, 63.997 113.498 C 65.490 114.421, 65.210 117, 63.617 117 C 61.952 117, 60.664 112.826, 62.061 111.962 C 62.626 111.613, 62.205 110.591, 61.078 109.570 C 59.171 107.844, 59.112 107.863, 59.231 110.144 C 59.299 111.440, 59.763 113.043, 60.263 113.706 C 60.763 114.370, 60.840 115.450, 60.433 116.108 C 59.901 116.968, 59.318 116.787, 58.347 115.460 C 57.142 113.812, 57 113.796, 57 115.309 C 57 116.239, 56.586 117, 56.079 117 C 55.573 117, 54.862 118.350, 54.500 120 C 53.444 124.809, 51.266 123.328, 51.925 118.250 C 52.015 117.563, 51.618 117, 51.044 117 C 50.470 117, 49.663 117, 49.250 117 C 48.837 117, 48.500 117.413, 48.500 117.917 C 48.500 118.421, 48.090 119.208, 47.590 119.667 C 47.066 120.146, 46.967 119.998, 47.356 119.319 C 48.450 117.410, 46.417 116.902, 43.577 118.376 C 41.426 119.492, 39.888 119.520, 35.153 118.532 C 31.966 117.867, 28.437 117.664, 27.311 118.081 C 26.184 118.498, 23.881 119.056, 22.192 119.322 C 18.619 119.885, 17 120.739, 17 122.059 C 17 123.521, 28.742 123.227, 29.338 121.750 C 29.615 121.063, 29.878 122.547, 29.921 125.050 C 30.039 131.820, 25.877 134.518, 22.580 129.810 C 20.886 127.392, 21.348 125.948, 23.217 127.817 C 24.867 129.467, 27.673 129.294, 28.362 127.500 C 28.833 126.271, 27.872 126, 23.052 126 C 19.248 126, 17.009 126.442, 16.720 127.250 C 16.475 127.938, 15.928 128.179, 15.506 127.786 C 15.084 127.394, 15.375 125.139, 16.153 122.777 C 17.486 118.727, 17.437 118.288, 15.284 115.093 C 12.599 111.110, 12.401 108.300, 14.584 105.183 C 15.828 103.407, 15.947 102.286, 15.136 99.961 C 14.310 97.590, 14.385 97, 15.517 97 C 16.294 97, 17.365 97.813, 17.897 98.807 C 18.613 100.146, 19.737 100.512, 22.234 100.221 C 28.986 99.433, 34.293 107.848, 30.965 114.066 C 30.071 115.735, 30.267 116, 32.397 116 C 35.178 116, 36.251 113.817, 35.973 108.727 C 35.625 102.338, 35.464 102.487, 42.563 102.664 C 47.867 102.797, 49.250 102.509, 49.758 101.164 C 50.105 100.249, 50.976 98.905, 51.694 98.179 C 52.412 97.452, 53 95.975, 53 94.897 C 53 93.819, 53.675 92.678, 54.500 92.362 C 56.641 91.540, 56.353 90.429, 54 90.429 C 52.884 90.429, 51.984 91.107, 51.965 91.964 C 51.942 92.945, 51.452 92.640, 50.610 91.120 C 49.408 88.952, 49.559 88.483, 52.303 85.861 C 55.719 82.596, 55.202 80.570, 51.746 83.681 C 47.186 87.786, 46.644 87.692, 47.282 82.903 C 47.718 79.636, 47.607 78.966, 46.854 80.305 C 46.052 81.732, 45.541 81.864, 44.419 80.933 C 43.403 80.089, 43 80.074, 43 80.878 C 43 81.495, 43.450 82, 44 82 C 44.550 82, 45 83.350, 45 85 C 45 86.650, 44.550 88, 44 88 C 43.450 88, 43 87.495, 43 86.878 C 43 86.112, 42.514 86.158, 41.470 87.025 C 38.908 89.151, 35 86.733, 35 83.021 C 35 79.247, 33.023 78.987, 32.937 82.750 C 32.876 85.393, 32.838 85.413, 31.969 83.250 C 30.822 80.396, 30.009 80.319, 30.745 83.134 C 31.147 84.671, 30.911 85.137, 29.902 84.801 C 28.025 84.176, 27.816 76.284, 29.658 75.578 C 30.396 75.295, 31 74.599, 31 74.031 C 31 72.308, 28.768 72.872, 26.177 75.250 L 23.726 77.500 24.218 74.785 C 24.492 73.270, 24.221 71.905, 23.605 71.698 C 21.912 71.127, 24.888 68, 27.122 68 C 28.155 68, 29 67.530, 29 66.956 C 29 66.382, 28.437 65.985, 27.750 66.075 C 24.908 66.444, 23.999 65.883, 23.985 63.750 C 23.972 61.931, 23.784 61.787, 23 63 C 21.725 64.972, 21.629 62.573, 22.887 60.184 C 23.375 59.258, 23.445 55.125, 23.043 51 C 22.641 46.875, 22.670 42.517, 23.106 41.317 C 23.623 39.895, 23.481 38.963, 22.700 38.646 C 21.800 38.280, 21.813 38.138, 22.750 38.079 C 23.438 38.036, 24 37.564, 24 37.031 C 24 36.499, 23.212 36.358, 22.250 36.719 C 20.728 37.289, 20.676 37.158, 21.849 35.715 C 22.992 34.309, 22.954 33.811, 21.599 32.456 C 20.142 30.999, 19.568 31.264, 19.882 33.250 C 19.947 33.663, 19.104 34, 18.008 34 C 16.913 34, 15.455 34.900, 14.768 36 C 14.081 37.100, 13.177 38, 12.759 38 C 12.342 38, 12 37.100, 12 36 C 12 34.900, 11.590 34, 11.088 34 C 9.568 34, 10.647 28.732, 12.435 27.424 C 13.608 26.566, 13.739 26.080, 12.876 25.792 C 10.344 24.948, 13.271 22.994, 17.309 22.832 L 21.500 22.664 17.668 22.267 C 14.913 21.981, 13.985 21.480, 14.367 20.486 C 14.714 19.582, 14.395 19.295, 13.449 19.658 C 12.652 19.964, 12 19.777, 12 19.242 C 12 17.463, 16.120 13.001, 17.823 12.937 C 19.074 12.889, 18.955 12.653, 17.352 12.007 C 16.171 11.530, 14.915 10.672, 14.561 10.099 C 13.695 8.698, 16.490 3.471, 19.072 1.662 C 20.965 0.336, 20.422 0.219, 13.127 0.386 C 8.711 0.486, 4.780 0.887, 4.391 1.276 C 4.002 1.665, 3.151 1.540, 2.500 1 C 1.849 0.460, 1.020 0.313, 0.658 0.675 M 0.236 100.583 C 0.470 199.628, 0.476 199.922, 0.986 134.213 C 1.526 64.626, 1.352 67.264, 5.500 65.641 C 6.111 65.402, 6.013 64.734, 5.250 63.925 C 4.219 62.832, 4 62.879, 4 64.193 C 4 65.069, 3.325 66.045, 2.500 66.362 C 1.193 66.863, 1 63.919, 1 43.469 C 1 25.369, 1.286 19.996, 2.250 19.985 C 3.245 19.973, 3.246 19.808, 2.256 19.180 C 1.416 18.646, 1.041 15.708, 1.101 10.123 C 1.150 5.576, 0.922 1.589, 0.595 1.261 C 0.268 0.934, 0.106 45.629, 0.236 100.583 M 78 1.468 C 78 1.726, 80.502 3.785, 83.560 6.045 C 86.619 8.304, 89.515 11.131, 89.997 12.326 C 91.232 15.390, 91.192 12.995, 89.909 7.011 C 88.999 2.767, 88.515 2.019, 86.993 2.502 C 85.989 2.821, 84.879 2.613, 84.525 2.041 C 83.904 1.036, 78 0.518, 78 1.468 M 8.638 4.500 C 9.383 6.441, 11 6.441, 11 4.500 C 11 3.675, 10.339 3, 9.531 3 C 8.637 3, 8.288 3.586, 8.638 4.500 M 11 12 C 11 12.550, 11.450 13, 12 13 C 12.550 13, 13 12.550, 13 12 C 13 11.450, 12.550 11, 12 11 C 11.450 11, 11 11.450, 11 12 M 96 13 C 96.825 13.533, 97.950 13.969, 98.500 13.969 C 99.050 13.969, 98.825 13.533, 98 13 C 97.175 12.467, 96.050 12.031, 95.500 12.031 C 94.950 12.031, 95.175 12.467, 96 13 M 143.973 19.646 C 137.866 23.712, 137.508 27.903, 142.371 38.427 C 146.064 46.421, 148.032 48.665, 147.481 44.255 C 147.291 42.740, 147.041 38.701, 146.924 35.280 C 146.791 31.393, 146.333 29.294, 145.701 29.685 C 145.093 30.060, 145.004 29.802, 145.477 29.037 C 146.682 27.088, 147.895 20.947, 146.962 21.523 C 146.509 21.803, 145.856 21.575, 145.510 21.016 C 144.856 19.958, 146.839 19.542, 150.841 19.897 C 152.263 20.023, 152.927 19.691, 152.532 19.052 C 151.548 17.459, 146.758 17.792, 143.973 19.646 M 155.247 24.508 C 155.108 26.875, 155.379 29.851, 155.849 31.121 C 156.663 33.321, 156.759 33.261, 157.882 29.859 C 158.683 27.430, 158.750 25.474, 158.092 23.741 C 156.528 19.628, 155.518 19.900, 155.247 24.508 M 147.664 28.832 C 147.849 29.564, 148 30.378, 148 30.641 C 148 30.903, 148.450 30.840, 149 30.500 C 149.550 30.160, 150 29.432, 150 28.882 C 150 28.332, 149.588 28.136, 149.085 28.447 C 148.582 28.758, 147.981 28.672, 147.749 28.256 C 147.517 27.840, 147.479 28.099, 147.664 28.832 M 64.020 31.476 C 63.231 32.426, 63.155 33, 63.819 33 C 65.027 33, 66.436 31.103, 65.743 30.409 C 65.491 30.158, 64.716 30.638, 64.020 31.476 M 125.004 32.007 C 125.590 33.103, 126.730 34, 127.535 34 C 129.839 34, 129.249 32.435, 126.469 31.168 C 124.113 30.094, 124.011 30.153, 125.004 32.007 M 6 32.500 C 6 33.325, 6.375 34, 6.833 34 C 7.292 34, 7.667 33.325, 7.667 32.500 C 7.667 31.675, 7.292 31, 6.833 31 C 6.375 31, 6 31.675, 6 32.500 M 143.679 31.711 C 143.378 32.197, 143.496 33.185, 143.941 33.905 C 144.556 34.899, 144.927 34.927, 145.488 34.020 C 145.894 33.363, 145.776 32.376, 145.226 31.826 C 144.666 31.266, 143.985 31.216, 143.679 31.711 M 16.082 37.847 C 15.418 39.087, 15.440 40.040, 16.147 40.747 C 16.726 41.326, 17.200 43.442, 17.200 45.450 C 17.200 47.753, 17.624 48.960, 18.350 48.722 C 20.215 48.108, 20.255 44.318, 18.426 41.528 C 17.493 40.103, 17.040 38.627, 17.419 38.248 C 18.060 37.607, 19.460 39.162, 20.347 41.500 C 20.555 42.050, 21.030 42.221, 21.401 41.879 C 22.416 40.944, 19.871 36, 18.375 36 C 17.657 36, 16.626 36.831, 16.082 37.847 M 127 37.941 C 127 39.073, 127.450 40, 128 40 C 128.550 40, 129 39.352, 129 38.559 C 129 37.766, 128.550 36.840, 128 36.500 C 127.450 36.160, 127 36.809, 127 37.941 M 6.750 39.208 C 5.787 40.194, 5.375 41, 5.833 41 C 6.292 41, 7.004 40.663, 7.417 40.250 C 7.829 39.837, 8.654 39.500, 9.250 39.500 C 9.846 39.500, 10.518 38.825, 10.743 38 C 11.076 36.780, 10.974 36.755, 10.197 37.863 C 9.672 38.613, 9.075 38.819, 8.871 38.321 C 8.667 37.824, 7.713 38.223, 6.750 39.208 M 123 39.531 C 123 41.130, 125.212 43.987, 126.050 43.469 C 127.572 42.529, 127.155 41.153, 125 40 C 123.900 39.411, 123 39.200, 123 39.531 M 61 50 C 61 50.550, 61.675 51, 62.500 51 C 63.325 51, 64 50.550, 64 50 C 64 49.450, 63.325 49, 62.500 49 C 61.675 49, 61 49.450, 61 50 M 29.079 51.250 C 29.036 52.212, 28.144 53.856, 27.099 54.901 C 24.908 57.092, 23.131 61.655, 24.893 60.566 C 25.502 60.190, 26 59.440, 26 58.900 C 26 58.361, 26.952 56.631, 28.116 55.057 C 29.280 53.483, 29.990 51.589, 29.695 50.848 C 29.327 49.925, 29.133 50.052, 29.079 51.250 M 16.750 57.566 C 14.526 62.035, 14.550 63, 16.883 63 C 18.802 63, 19.961 60.480, 19.986 56.250 C 20.006 53.013, 18.765 53.518, 16.750 57.566 M 45.872 55.664 C 44.636 57.163, 44.710 57.216, 46.619 56.199 C 47.784 55.578, 49.093 55.392, 49.529 55.785 C 49.964 56.178, 49.997 55.938, 49.601 55.250 C 48.626 53.555, 47.510 53.679, 45.872 55.664 M 63 58 C 63 58.550, 63.450 59, 64 59 C 64.550 59, 65 58.550, 65 58 C 65 57.450, 64.550 57, 64 57 C 63.450 57, 63 57.450, 63 58 M 160.250 57.706 C 159.012 57.944, 158 58.756, 158 59.511 C 158 61.918, 159.445 61.868, 161.297 59.397 C 162.285 58.079, 162.960 57.061, 162.797 57.136 C 162.634 57.211, 161.488 57.467, 160.250 57.706 M 129.079 60.583 C 129.127 61.748, 129.364 61.985, 129.683 61.188 C 129.972 60.466, 129.936 59.603, 129.604 59.271 C 129.272 58.939, 129.036 59.529, 129.079 60.583 M 41.500 62 C 41.840 62.550, 42.316 63, 42.559 63 C 42.802 63, 43 62.550, 43 62 C 43 61.450, 42.523 61, 41.941 61 C 41.359 61, 41.160 61.450, 41.500 62 M 17.735 72 C 16.632 76.402, 16.322 81, 17.128 81 C 18.173 81, 19.276 74.864, 18.767 71.881 L 18.361 69.500 17.735 72 M 25.250 78.662 C 24.563 78.940, 24 80.344, 24 81.783 C 24 83.802, 24.271 84.129, 25.186 83.214 C 26.178 82.222, 27.510 77.831, 26.744 78.079 C 26.610 78.122, 25.938 78.385, 25.250 78.662 M 128.079 81.583 C 128.127 82.748, 128.364 82.985, 128.683 82.188 C 128.972 81.466, 128.936 80.603, 128.604 80.271 C 128.272 79.939, 128.036 80.529, 128.079 81.583 M 154.201 84.292 C 152.462 86.087, 150.740 89.052, 150.374 90.882 L 149.708 94.210 153.271 91.874 C 156.180 89.968, 156.911 88.801, 157.256 85.519 C 157.489 83.309, 157.608 81.394, 157.521 81.265 C 157.434 81.136, 155.940 82.498, 154.201 84.292 M 41.079 83.583 C 41.127 84.748, 41.364 84.985, 41.683 84.188 C 41.972 83.466, 41.936 82.603, 41.604 82.271 C 41.272 81.939, 41.036 82.529, 41.079 83.583 M 131 84.930 C 131 85.480, 131.900 86.411, 133 87 C 134.286 87.688, 135 87.714, 135 87.070 C 135 86.520, 134.100 85.589, 133 85 C 131.714 84.312, 131 84.286, 131 84.930 M 36.500 89 C 36.840 89.550, 37.316 90, 37.559 90 C 37.802 90, 38 89.550, 38 89 C 38 88.450, 37.523 88, 36.941 88 C 36.359 88, 36.160 88.450, 36.500 89 M 172.572 90.883 C 172.227 91.442, 172.969 92.446, 174.222 93.114 C 176.370 94.258, 176.416 94.218, 175.033 92.414 C 174.226 91.361, 173.484 90.358, 173.383 90.183 C 173.283 90.009, 172.918 90.324, 172.572 90.883 M 36.393 93.582 C 36.727 94.452, 37.045 96.139, 37.100 97.332 C 37.191 99.326, 37.264 99.299, 38 97 C 39.255 93.082, 39.124 92, 37.393 92 C 36.338 92, 35.995 92.544, 36.393 93.582 M 40.636 94.229 C 39.727 97.622, 39.901 98.683, 41.091 97 C 41.890 95.871, 42.278 95.809, 42.659 96.750 C 42.938 97.438, 43.537 98, 43.990 98 C 45.145 98, 44.046 94.283, 42.514 93.012 C 41.564 92.224, 41.091 92.530, 40.636 94.229 M 45.278 94.041 C 45.353 95.042, 45.772 95.641, 46.208 95.372 C 46.643 95.102, 47 95.584, 47 96.441 C 47 98.799, 48.684 98.308, 49.370 95.750 C 50.236 92.516, 50.235 92.514, 47.570 92.360 C 45.792 92.258, 45.178 92.709, 45.278 94.041 M 69 95.583 C 69 97.349, 71.153 97.042, 71.771 95.188 C 71.989 94.534, 71.454 94, 70.583 94 C 69.713 94, 69 94.713, 69 95.583 M 58.448 98.328 C 57.634 100.927, 57.713 101.943, 58.809 102.966 C 59.967 104.048, 60.364 104.034, 61.090 102.888 C 61.722 101.890, 61.974 101.851, 61.985 102.750 C 61.993 103.438, 62.707 104, 63.571 104 C 64.984 104, 64.980 103.837, 63.532 102.389 C 62.051 100.908, 62.065 100.669, 63.711 99.421 C 64.880 98.534, 65.047 98.053, 64.191 98.032 C 63.471 98.014, 63.160 97.550, 63.500 97 C 63.840 96.450, 63.641 96, 63.059 96 C 62.477 96, 62 96.482, 62 97.071 C 62 97.661, 61.331 98.812, 60.513 99.629 C 59.198 100.945, 59.097 100.764, 59.638 98.058 C 60.450 94, 59.753 94.158, 58.448 98.328 M 66.638 100.500 C 66.322 101.325, 66.499 102, 67.031 102 C 67.564 102, 68 101.325, 68 100.500 C 68 99.675, 67.823 99, 67.607 99 C 67.391 99, 66.955 99.675, 66.638 100.500 M 18.794 103.571 C 19.569 105.050, 19.573 106.845, 18.808 109.857 C 17.562 114.767, 18.387 116.320, 20.580 113.190 C 22.713 110.144, 23.733 110.458, 23.213 114 C 22.704 117.473, 24.728 118.106, 27.212 115.250 C 28.795 113.430, 29.293 109.701, 27.833 110.603 C 27.375 110.886, 27 110.291, 27 109.281 C 27 107.320, 23.557 103.776, 22.591 104.743 C 22.273 105.061, 21.044 104.461, 19.861 103.411 C 17.730 101.519, 17.720 101.521, 18.794 103.571 M 38.813 107.683 C 39.534 107.972, 40.397 107.936, 40.729 107.604 C 41.061 107.272, 40.471 107.036, 39.417 107.079 C 38.252 107.127, 38.015 107.364, 38.813 107.683 M 21 109 C 21 109.550, 21.450 110, 22 110 C 22.550 110, 23 109.550, 23 109 C 23 108.450, 22.550 108, 22 108 C 21.450 108, 21 108.450, 21 109 M 53.087 110.609 C 51.760 111.929, 50.973 113.306, 51.337 113.671 C 51.702 114.035, 52 113.808, 52 113.167 C 52 112.525, 52.900 112, 54 112 C 55.333 112, 56 111.333, 56 110 C 56 107.621, 56.118 107.596, 53.087 110.609 M 49.158 113 C 49.158 114.375, 49.385 114.938, 49.662 114.250 C 49.940 113.563, 49.940 112.438, 49.662 111.750 C 49.385 111.063, 49.158 111.625, 49.158 113 M 37 115.162 C 37 116.321, 43.164 116.189, 45 114.990 C 46.078 114.286, 45.164 114.054, 41.750 114.167 C 39.138 114.254, 37 114.701, 37 115.162 M 81.158 118 C 81.158 119.375, 81.385 119.938, 81.662 119.250 C 81.940 118.563, 81.940 117.438, 81.662 116.750 C 81.385 116.063, 81.158 116.625, 81.158 118 M 107.785 117.750 C 106.117 119.665, 106.452 122, 108.395 122 C 109.885 122, 114 118.300, 114 116.961 C 114 115.321, 109.392 115.906, 107.785 117.750 M 83.079 118.583 C 83.127 119.748, 83.364 119.985, 83.683 119.188 C 83.972 118.466, 83.936 117.603, 83.604 117.271 C 83.272 116.939, 83.036 117.529, 83.079 118.583 M 124 118.059 C 124 118.641, 124.450 118.840, 125 118.500 C 125.550 118.160, 126 117.684, 126 117.441 C 126 117.198, 125.550 117, 125 117 C 124.450 117, 124 117.477, 124 118.059 M 57.625 118.798 C 57.354 119.237, 57.595 120.249, 58.160 121.048 C 59.010 122.248, 59.095 122.208, 58.651 120.815 C 58.355 119.888, 58.650 118.911, 59.306 118.644 C 60.227 118.269, 60.227 118.140, 59.309 118.079 C 58.654 118.036, 57.896 118.359, 57.625 118.798 M 42.639 125.586 C 41.120 127.490, 39.388 128.740, 38.785 128.367 C 38.144 127.971, 37.975 128.151, 38.377 128.802 C 39.399 130.454, 34.405 133.311, 31.474 132.750 C 30.087 132.485, 28.711 132.658, 28.417 133.134 C 28.123 133.610, 25.714 134, 23.063 134 C 20.409 134, 17.796 134.561, 17.245 135.250 C 13.071 140.466, 16.127 145.078, 24.356 145.984 C 29.877 146.592, 30 146.551, 30 144.103 C 30 142.156, 29.733 141.867, 28.800 142.800 C 27.327 144.273, 21.559 144.370, 18.934 142.965 C 16.289 141.549, 16.473 138.149, 19.250 137.102 C 21.922 136.094, 26.994 136.214, 28.750 137.326 C 29.594 137.861, 30 137.480, 30 136.153 C 30 134.687, 30.503 134.319, 31.979 134.705 C 33.067 134.989, 35.568 134.272, 37.536 133.111 C 39.504 131.950, 41.328 131, 41.590 131 C 41.851 131, 41.938 136.063, 41.783 142.250 C 41.511 153.057, 41.411 153.513, 39.250 153.820 C 38.013 153.995, 37 154.558, 37 155.070 C 37 155.581, 40.375 156, 44.500 156 C 48.625 156, 52 155.764, 52 155.475 C 52 155.187, 50.875 154.523, 49.500 154 L 47 153.050 47 138.084 C 47 129.853, 46.640 122.895, 46.199 122.623 C 45.758 122.351, 44.156 123.684, 42.639 125.586 M 60.421 123.419 C 58.558 124.230, 56.648 126.222, 55.586 128.461 C 53.820 132.181, 54.295 135.011, 56.133 131.726 C 59.618 125.499, 67.212 123.912, 70.927 128.635 C 73.497 131.901, 73.509 133.082, 71.023 137.955 C 68.922 142.073, 56.543 153.649, 54.634 153.281 C 54.010 153.161, 52.150 152.832, 50.500 152.550 C 48.121 152.143, 47.999 152.193, 49.907 152.792 C 54.912 154.360, 54.361 159.981, 49.021 161.843 C 46.041 162.882, 45.999 162.994, 45.937 170.198 C 45.890 175.590, 45.637 176.912, 44.969 175.250 C 44.471 174.012, 43.262 172.993, 42.282 172.985 C 40.766 172.972, 40.724 172.825, 42 172 C 43.333 171.138, 43.333 171.021, 42 170.948 C 41.057 170.895, 41.336 170.462, 42.750 169.780 C 44.966 168.711, 45.821 167, 44.139 167 C 43.665 167, 43.492 165.875, 43.755 164.500 C 44.106 162.667, 43.802 162, 42.617 162 C 41.727 162, 41 161.373, 41 160.607 C 41 159.186, 38.120 157.547, 37.214 158.452 C 36.940 158.727, 37.284 159.638, 37.980 160.476 C 39.035 161.747, 38.934 162.020, 37.372 162.118 C 36.343 162.184, 35.179 162.189, 34.786 162.130 C 34.393 162.072, 34.329 162.694, 34.643 163.512 C 34.957 164.330, 35.616 165, 36.107 165 C 37.620 165, 37.095 167.207, 35.250 168.608 C 33.590 169.868, 33.593 169.938, 35.309 169.968 C 36.304 169.986, 36.861 170.416, 36.547 170.924 C 36.233 171.433, 36.769 172.055, 37.738 172.308 C 38.707 172.561, 37.857 172.820, 35.850 172.884 L 32.200 173 35.650 176.450 C 40.176 180.976, 40.371 181.014, 41.122 177.500 C 41.475 175.850, 41.817 175.302, 41.882 176.281 C 42.037 178.626, 44.332 179.428, 46.921 178.042 C 48.450 177.224, 48.933 176.105, 48.750 173.807 C 48.596 171.887, 49.023 170.507, 49.858 170.223 C 50.949 169.852, 51.145 171.450, 50.858 178.381 C 50.519 186.551, 51.040 188.943, 52.393 185.418 C 52.727 184.548, 53.015 181.511, 53.033 178.668 C 53.063 173.762, 53.241 173.418, 56.533 171.876 L 60 170.253 60 174.043 C 60 176.182, 59.455 178.019, 58.750 178.259 C 58.063 178.492, 58.935 178.898, 60.689 179.160 C 63.692 179.608, 63.846 179.481, 63.343 176.965 C 62.924 174.868, 63.419 173.814, 65.655 172.051 L 68.500 169.807 69 178.654 C 69.519 187.830, 71 188.026, 71 178.918 C 71 175.250, 71.375 174, 72.475 174 C 73.636 174, 73.748 174.534, 73 176.500 C 72.118 178.819, 72.264 179, 75.025 179 C 76.661 179, 78.338 179, 78.750 179 C 79.162 179, 79.500 178.438, 79.500 177.750 C 79.500 177.028, 78.550 176.632, 77.250 176.813 C 74.972 177.130, 74.164 175.635, 76 174.500 C 77.826 173.372, 77.035 172, 74.559 172 C 73.216 172, 71.840 171.550, 71.500 171 C 71.160 170.450, 71.772 170, 72.859 170 C 73.947 170, 75.548 169.727, 76.418 169.393 C 79.305 168.285, 78.056 167, 74.094 167 L 70.187 167 71.284 163.427 C 72.172 160.533, 72.107 159.683, 70.940 158.957 C 69.809 158.253, 69.312 158.966, 68.622 162.280 C 67.896 165.772, 67.606 166.155, 66.942 164.500 C 66.312 162.926, 66.126 163.273, 66.070 166.128 C 65.980 170.772, 63.476 173.269, 62.744 169.443 C 62.438 167.843, 62.746 166.651, 63.544 166.345 C 64.993 165.789, 64.538 161.353, 62.818 159.281 C 62.234 158.576, 60.783 158, 59.596 158 C 57.972 158, 57.381 158.669, 57.213 160.698 C 57 163.270, 57.057 163.305, 58.427 161.448 C 59.491 160.008, 60.161 159.791, 61.001 160.618 C 62.628 162.221, 59.869 168.384, 56.552 170.558 C 53.458 172.585, 52.402 171.986, 53.954 169.086 C 54.969 167.189, 54.801 167, 52.094 167 C 47.926 167, 47.382 165.371, 50.938 163.532 C 54.176 161.857, 56.465 158.561, 55.487 156.979 C 55.105 156.361, 59.326 156, 66.941 156 L 79 156 79 150.441 C 79 146.990, 78.621 145.116, 78 145.500 C 77.450 145.840, 77 146.959, 77 147.988 C 77 151.656, 74.280 153, 66.855 153 L 59.853 153 68.378 144.750 C 77.494 135.928, 79.035 132.913, 76.972 127.933 C 74.732 122.525, 67.195 120.469, 60.421 123.419 M 63.436 135.104 C 62.975 135.850, 63.154 136.551, 63.865 136.788 C 64.807 137.102, 64.790 137.550, 63.792 138.760 C 62.714 140.066, 62.748 140.243, 64 139.830 C 65.821 139.228, 66.558 136.158, 65.207 134.807 C 64.565 134.165, 63.952 134.268, 63.436 135.104 M 55.696 137.978 C 53.113 139.616, 51 141.169, 51 141.429 C 51 142.473, 59.383 138.068, 60.211 136.588 C 61.408 134.449, 61.121 134.537, 55.696 137.978 M 181.504 137.007 C 182.237 138.192, 184.683 138.322, 185.369 137.212 C 185.637 136.779, 184.739 136.332, 183.373 136.219 C 181.942 136.100, 181.150 136.434, 181.504 137.007 M 48.195 145.500 C 48.215 147.150, 48.439 147.704, 48.693 146.731 C 48.947 145.758, 48.930 144.408, 48.656 143.731 C 48.382 143.054, 48.175 143.850, 48.195 145.500 M 184.570 147.284 C 182.958 148.464, 179.358 150.218, 176.570 151.182 C 170.364 153.328, 173.682 153.581, 180.699 151.497 C 185.752 149.996, 188.496 147.925, 187.845 146.103 C 187.655 145.573, 186.181 146.104, 184.570 147.284 M 14.612 150.100 C 15.072 151.970, 15.428 154.916, 15.404 156.647 C 15.364 159.418, 15.571 159.660, 17.139 158.681 C 18.462 157.855, 18.609 157.350, 17.710 156.719 C 16.984 156.209, 17.412 156.126, 18.778 156.511 C 20.513 157, 21.739 156.420, 23.929 154.076 C 25.509 152.384, 27.297 151, 27.901 151 C 29.642 151, 29.178 153.797, 27.250 154.920 C 25.734 155.803, 25.844 155.943, 28.077 155.970 C 30.381 155.997, 30.607 155.680, 30.209 152.972 C 29.965 151.307, 28.898 149.481, 27.838 148.914 C 26.255 148.066, 25.385 148.447, 22.955 151.048 C 21.167 152.962, 19.406 153.986, 18.499 153.638 C 16.466 152.858, 16.606 150.329, 18.750 149.080 C 20.331 148.160, 20.338 148.058, 18.832 148.030 C 17.914 148.014, 16.401 147.707, 15.469 147.350 C 13.991 146.783, 13.882 147.134, 14.612 150.100 M 133.813 154.683 C 134.534 154.972, 135.397 154.936, 135.729 154.604 C 136.061 154.272, 135.471 154.036, 134.417 154.079 C 133.252 154.127, 133.015 154.364, 133.813 154.683 M 139.500 156.523 C 136.750 157.230, 134.950 157.899, 135.500 158.010 C 137.520 158.418, 142.529 157.786, 143.500 157 C 144.050 156.556, 145.625 155.985, 147 155.732 L 149.500 155.272 147 155.255 C 145.625 155.245, 142.250 155.816, 139.500 156.523 M 126.500 161 C 126.160 161.550, 126.359 162, 126.941 162 C 127.523 162, 128 161.550, 128 161 C 128 160.450, 127.802 160, 127.559 160 C 127.316 160, 126.840 160.450, 126.500 161 M 39 166 C 39 166.550, 39.450 167, 40 167 C 40.550 167, 41 166.550, 41 166 C 41 165.450, 40.550 165, 40 165 C 39.450 165, 39 165.450, 39 166 M 119.500 171 C 119.840 171.550, 120.316 172, 120.559 172 C 120.802 172, 121 171.550, 121 171 C 121 170.450, 120.523 170, 119.941 170 C 119.359 170, 119.160 170.450, 119.500 171 M 37.500 176 C 37.840 176.550, 38.316 177, 38.559 177 C 38.802 177, 39 176.550, 39 176 C 39 175.450, 38.523 175, 37.941 175 C 37.359 175, 37.160 175.450, 37.500 176 M 160 199 C 160 199.550, 160.477 200, 161.059 200 C 161.641 200, 161.840 199.550, 161.500 199 C 161.160 198.450, 160.684 198, 160.441 198 C 160.198 198, 160 198.450, 160 199" stroke="none" fill="#c7d4d8" fill-rule="evenodd"/>
</svg>